<?xml version="1.0" encoding="UTF-8" standalone="no"?>
<svg width="100px" height="108px" viewBox="0 0 100 108" version="1.1" xmlns="http://www.w3.org/2000/svg" xmlns:xlink="http://www.w3.org/1999/xlink">
    <!-- Generator: Sketch 48.2 (47327) - http://www.bohemiancoding.com/sketch -->
    <title>cereal</title>
    <desc>Created with Sketch.</desc>
    <defs>
        <polygon id="path-1" points="0.356969786 0.180243243 83.4246841 0.180243243 83.4246841 108 0.356969786 108"></polygon>
        <polygon id="path-3" points="0 0.339428571 9.55621075 0.339428571 9.55621075 4.49018772 0 4.49018772"></polygon>
    </defs>
    <g id="Page-2" stroke="none" stroke-width="1" fill="none" fill-rule="evenodd">
        <g id="cereal">
            <g id="Group-3" transform="translate(16.346154, 0.000000)">
                <mask id="mask-2" fill="white">
                    <use xlink:href="#path-1"></use>
                </mask>
                <g id="Clip-2"></g>
                <path d="M78.1643069,20.2073108 C78.7904433,18.9882973 78.0781181,17.5664189 79.3329258,16.6006216 C78.8809778,16.3364595 78.5170292,16.1233784 78.1816896,15.9274459 C77.3639823,16.7794054 76.3409428,18.8215541 76.2753959,19.7282432 C76.8769068,19.8807568 77.4961626,20.0376486 78.1643069,20.2073108 Z M50.8844618,104.199568 L52.9109853,104.199568 C52.9935527,103.124311 53.0699638,102.135527 53.1470992,101.137257 L50.8844618,101.137257 L50.8844618,104.199568 Z M62.4098614,103.472027 L62.4098614,99.9503514 C61.6888449,100.093014 61.0681406,100.216338 60.3844243,100.352068 C60.3119968,101.50577 60.2468119,102.545635 60.1700387,103.772311 C61.0058529,103.660662 61.6649438,103.571635 62.4098614,103.472027 Z M6.23720904,99.8186351 C6.61926449,98.4522162 6.9321516,97.1430811 7.02413462,95.7591486 C6.29334041,95.5066622 5.67698177,95.223527 4.8987475,95.372027 C4.83935689,96.2418649 4.78829545,97.0879865 4.7227485,97.9330135 C4.62533342,99.1885135 4.80676449,99.4428243 6.23720904,99.8186351 Z M57.769789,103.954378 C57.8809653,102.775135 58.0819518,101.760811 57.8947265,100.642135 C57.0465997,100.723865 56.3179783,100.793554 55.5603859,100.866162 C55.3963374,102.001986 55.2395317,102.989311 55.3804033,104.121122 C56.1930407,104.064568 56.9234728,104.013486 57.769789,103.954378 Z M42.8935277,104.117108 C42.9293794,103.012662 43.1495592,101.9655 42.9829758,100.816176 L40.6080757,100.816176 C40.522249,101.881946 40.4367845,102.93823 40.3419043,104.117108 L42.8935277,104.117108 Z M10.6705007,101.038743 C10.9880957,99.5665135 11.2683904,98.2654054 11.574759,96.8427973 C10.7918169,96.6640135 10.1504708,96.5173378 9.38961913,96.344027 C9.1205507,97.8421622 8.60052073,99.1367027 8.92970405,100.657459 C9.44068057,100.769473 9.96650475,100.884405 10.6705007,101.038743 Z M45.2459753,104.258311 L48.4020067,104.258311 L48.4020067,101.061 L45.402781,101.061 C45.3513574,102.112541 45.3017445,103.119568 45.2459753,104.258311 Z M69.1018069,12.3094459 C68.2511451,13.6193108 67.126707,16.4302297 67.1346741,17.2497162 C67.6818644,17.4051486 68.2569393,17.5686081 68.881265,17.7459324 C69.5671541,16.0912703 70.2023439,14.5592027 70.8799038,12.9242432 C70.2139323,12.6940135 69.6725362,12.5068378 69.1018069,12.3094459 Z M26.5288799,99.2523649 C25.5851486,99.1549459 24.798223,99.0739459 23.9338,98.9849189 C23.6096866,100.380162 23.2156806,101.61523 23.1124713,103.059365 C24.0884328,103.125405 24.9119343,103.18123 25.8140197,103.242527 C26.0055907,102.268338 26.1750712,101.434257 26.3311526,100.597257 C26.4021316,100.215243 26.445226,99.8284865 26.5288799,99.2523649 Z M20.6622465,102.787176 C20.989257,101.351797 21.2854858,100.053973 21.6103234,98.6273514 C20.6260327,98.4839595 19.8079633,98.3646486 18.8664048,98.2274595 C18.6190647,99.6891081 18.3970742,101.002622 18.152269,102.450041 C19.0344368,102.568622 19.7630582,102.666405 20.6622465,102.787176 Z M18.6541921,9.67256757 C19.2028309,7.8497027 19.7196016,6.13191892 20.2609978,4.33277027 C19.2270942,4.15909459 18.3959878,4.37108108 17.6575887,4.61152703 C17.1245217,5.31790541 17.5362725,5.91190541 17.6202885,6.47744595 C16.7935277,8.35686486 16.6798164,8.81075676 16.8293794,9.7875 C17.3899688,9.75247297 17.9617845,9.71635135 18.6541921,9.67256757 Z M13.8808529,97.3094595 C13.4904683,98.8050405 13.2014823,100.109432 13.0403309,101.46527 C13.9829758,101.836338 14.8271191,102.003081 15.7896816,102.004541 C16.0732355,100.594703 16.4469618,99.2786351 16.4708629,97.8224595 C15.583263,97.6465946 14.7912675,97.4900676 13.8808529,97.3094595 Z M31.3239473,103.70627 C31.7291796,102.658743 31.9602235,100.755243 31.790743,99.8879595 C30.8691021,99.8044054 29.9318894,99.5424324 28.890743,99.6398514 C28.6006706,100.9125 28.3428284,102.114 28.2638824,103.470203 C29.360798,103.554851 30.3273439,103.629649 31.3239473,103.70627 Z M24.9090372,4.05437838 L22.8759953,4.05437838 C22.1643944,5.8652027 21.6744218,7.66216216 21.157289,9.62622973 C22.0387325,9.6722027 22.7698889,9.71014865 23.4499838,9.74590541 C23.9464748,8.73632432 24.9521316,4.80125676 24.9090372,4.05437838 Z M73.6683654,19.1043243 C74.4223364,17.6543514 75.1151061,16.3218649 75.8774063,14.8558378 C74.904704,14.4544865 74.045713,14.1002027 73.0791671,13.7014054 C72.4077635,15.3184865 71.6465497,16.7618919 71.2735477,18.4807703 C72.0923414,18.6938514 72.8119093,18.881027 73.6683654,19.1043243 Z M27.6214498,4.14924324 C27.1119218,5.10518919 26.1471866,8.99756757 26.2340997,9.8757973 C26.8193144,9.92395946 27.4233604,9.97358108 27.9734478,10.0188243 C28.6687525,8.81914865 29.9123339,4.89210811 29.8203509,4.14924324 L27.6214498,4.14924324 Z M64.1586251,10.7565811 C63.3449013,12.398473 62.66372,13.9721351 62.1270317,15.7282297 C63.0215122,15.9825405 63.7646191,16.1941622 64.468253,16.3941081 C65.3029808,15.2991486 66.5255582,12.2718649 66.4469743,11.4549324 C65.7429783,11.240027 65.0049413,11.0149054 64.1586251,10.7565811 Z M38.0104608,11.0718243 C38.820201,9.10009459 39.579242,7.25278378 40.4063649,5.23945946 C39.4832755,5.10190541 38.6985227,4.98551351 37.8174413,4.85452703 C37.1453134,6.84158108 36.4481981,8.7075 35.9676411,10.7897838 C36.6882955,10.8893919 37.28872,10.9722162 38.0104608,11.0718243 Z M33.884262,103.807703 C35.2991346,104.020784 36.5868969,103.987581 37.9318769,104.015676 C38.126707,102.786446 38.3298664,101.704257 38.1759578,100.530851 C36.8653809,100.387824 35.657289,100.141541 34.3735102,100.242973 C34.0928534,101.446297 33.9755207,102.575919 33.884262,103.807703 Z M53.7779433,7.83109459 C52.870788,9.61601351 52.0143319,11.3016892 51.0666171,13.1672432 C52.0335252,13.3639054 52.805241,13.5207973 53.6283804,13.6886351 C54.4772315,11.8927703 55.437259,10.2994054 56.1814523,8.4302027 C55.3115972,8.21310811 54.5721116,8.02921622 53.7779433,7.83109459 Z M48.675783,6.66316216 C47.7646441,8.56702703 46.9273814,10.3147297 46.0071891,12.2372027 C46.9824263,12.4086892 47.7947015,12.5513514 48.6645567,12.7042297 C49.5713499,10.8627568 50.572299,9.20991892 51.4023189,7.28817568 C50.3905057,7.05648649 49.5405682,6.86128378 48.675783,6.66316216 Z M35.4534053,4.56409459 C34.3488849,4.47324324 33.4515072,4.39990541 32.4943769,4.32145946 C31.8443394,6.30231081 31.1446891,8.14524324 30.6203134,10.2103784 C31.6350237,10.3074324 32.5305907,10.3935405 33.4949638,10.4858514 C34.1457255,8.51813514 34.7646191,6.64601351 35.4534053,4.56409459 Z M59.7492345,15.1123378 C60.462284,13.3941892 61.1354983,11.7734595 61.8637575,10.0188243 C60.6755832,9.67767568 59.6503709,9.38322973 58.6747715,9.10337838 C57.4717495,10.6095405 56.5953759,12.924973 56.6938774,14.3680135 C57.6596991,14.6033514 58.6617345,14.8474459 59.7492345,15.1123378 Z M43.5442895,11.8935 C44.4351486,9.93709459 45.5012825,8.21712162 46.3034178,6.19467568 C45.0688899,5.98816216 43.9908054,5.80791892 42.8457255,5.61636486 C41.9226361,7.52095946 41.1932905,9.36644595 40.4914673,11.4034865 C41.5608604,11.574973 42.4810527,11.7231081 43.5442895,11.8935 Z M16.4969368,11.7052297 C15.7411551,13.9228784 15.4829508,16.0314324 15.885286,18.2038378 C15.9439523,18.5205405 16.0185527,18.9405 15.8689898,19.1692703 C15.4286301,19.8439054 15.5340122,20.5641486 15.5224238,21.2832973 C15.5104733,22.0458649 15.54379,22.8124459 15.4804158,23.5706351 C14.8980982,30.5745811 14.4128334,37.5898378 13.6697265,44.5766351 C13.0178784,50.7067297 12.1675787,56.8200405 11.233263,62.9140135 C9.8245467,72.1016757 7.75166958,81.1452162 5.02006369,90.0311351 C4.78032842,90.8112162 4.62678197,91.6182973 4.43158966,92.4177162 C4.66263362,92.520973 4.77598277,92.5877432 4.89838536,92.6235 C8.249247,93.6002432 11.6337875,94.413527 15.0668544,95.0717432 C19.3045917,95.8835676 23.5368969,96.7045135 27.8329383,97.110973 C32.3194643,97.5360405 36.8121466,97.9107568 41.3066396,98.2409595 C43.6351861,98.4120811 45.9749588,98.4361622 48.3096616,98.5328514 C52.6216371,98.7116351 56.9289048,98.7156486 61.2220492,98.1960811 C61.6254708,98.1475541 62.0173039,98.0034324 62.4308654,97.8994459 C62.4558529,97.4743784 62.4917045,97.1806622 62.4873589,96.8873108 C62.4091371,91.3475676 62.5970867,85.8176757 62.9371341,80.2863243 C63.4723739,71.5948784 64.6189023,63.0023108 66.5465622,54.5100811 C68.7436526,44.8309459 72.564207,35.7180811 76.0613724,26.4906486 C76.5629333,25.1672838 77.1170042,23.8636216 77.6699888,22.4950135 C77.3708629,22.3673108 77.1419918,22.2450811 76.8986351,22.1695541 C75.829242,21.837527 74.7594868,21.5073243 73.6839373,21.1975541 C67.1346741,19.3101081 60.5796166,17.4529459 53.8999838,16.0668243 C47.711772,14.7828649 41.5427535,13.4073243 35.2835627,12.4962568 C29.7316271,11.6877162 24.1456506,11.483027 18.5484478,11.4687973 C17.8415547,11.466973 17.1339373,11.6282432 16.4969368,11.7052297 Z M25.7817895,0.180243243 C37.018203,0.517743243 47.9967745,2.40227027 58.8069518,5.35512162 C64.3672165,6.87441892 69.8865597,8.54367568 75.2668419,10.6387297 C76.2797415,11.0331486 77.2665672,11.4936081 78.2714998,11.9099189 C79.9022065,12.5863784 81.3105607,13.6211351 82.7022565,14.6821622 C83.2074388,15.0674595 83.4344993,15.6198649 83.4243594,16.2492568 C83.3906806,18.4570541 83.0705507,20.6082973 82.128268,22.6307432 C82.0323014,22.8372568 81.8993969,23.0678514 81.9138824,23.2780135 C81.9834128,24.2839459 81.4992345,25.0713243 80.9614598,25.8306081 C80.0749463,27.0828243 79.4020942,28.4372027 78.8664923,29.8751351 C77.2365097,34.2531486 75.5511201,38.6107297 73.9479358,42.9989595 C71.1964123,50.5297703 69.4215747,58.3083243 68.2337625,66.2339189 C67.0177035,74.3507027 66.5414923,82.5233108 66.3260202,90.7170811 C66.29379,91.9426622 66.3354358,93.171527 66.3683904,94.3978378 C66.4169168,96.1860405 66.527731,97.9669459 66.2843744,99.7584324 C66.1246716,100.935851 66.2094118,102.144649 66.1185152,103.334108 C66.0638324,104.054716 65.970763,104.795757 65.7393569,105.473676 C65.3355732,106.657297 64.4649938,107.164095 63.2217745,107.118122 C62.8944018,107.106081 62.5605107,107.09477 62.2378459,107.141838 C56.8445267,107.928486 51.4142695,108.068959 45.9811151,107.974095 C36.6618594,107.811365 27.3607105,107.309311 18.1033804,106.159986 C14.1108104,105.664135 10.1989973,104.745405 6.292254,103.799676 C4.31425699,103.320973 2.65095779,102.308473 1.17850524,100.930378 C0.365867882,100.17 0.3086501,99.1888784 0.378904845,98.1734595 C0.452056693,97.1157162 0.574821429,96.0608919 0.612121628,95.0020541 C0.641454795,94.1770946 0.503842408,93.3433784 0.567216533,92.5231622 C0.634936314,91.6409189 0.779429321,90.7499189 1.01409466,89.8972297 C2.0704508,86.0628649 3.28506119,82.2693649 4.2320517,78.4087297 C6.30239386,69.9642973 7.76506868,61.4012838 8.80331793,52.7656622 C9.36101024,48.1238514 10.0041671,43.4897027 10.4438024,38.8358514 C10.9493469,33.4883919 11.3176411,28.1263378 11.6500837,22.7646486 C11.7771941,20.7173919 11.6489973,18.6537162 11.6113349,16.5980676 C11.6055407,16.2806351 11.5171791,15.9340135 11.3668919,15.6556216 C10.9250837,14.8368649 10.9670917,14.0111757 11.4516321,13.2912973 C12.4982105,11.736973 12.6264073,9.94621622 12.9262575,8.18756757 C13.0359853,7.54175676 13.2489223,6.91345946 13.41623,6.27786486 C13.5172665,5.89475676 13.636772,5.51566216 13.7197015,5.12890541 C13.823273,4.64290541 13.8866471,4.14851351 13.9865972,3.66178378 C14.2621841,2.32345946 15.1059653,1.50543243 16.3770692,1.14312162 C17.1027935,0.936608108 17.8495217,0.750891892 18.5980607,0.687405405 C20.9896191,0.48527027 23.3866096,0.344797297 25.7817895,0.180243243 Z" id="Fill-1" fill="#FFFFFF" mask="url(#mask-2)"></path>
            </g>
            <path d="M7.54285424,29.8928571 C7.78681627,30.0412466 8.22450222,30.2538045 8.60183016,30.5454792 C11.1712021,32.5310543 13.2862626,34.989507 15.4992692,37.3447798 C15.928281,37.8019799 16.3854839,38.2329291 16.80293,38.6999732 C17.441207,39.4138469 17.4719281,40.3198613 16.9077433,40.9436804 C16.3160902,41.5977608 15.3275922,41.6619292 14.6152231,40.9852441 C13.6599762,40.0777713 12.7856886,39.0838899 11.8542958,38.1494373 C10.1790899,36.4697559 8.48508981,34.8086688 6.8044625,33.1348209 C6.52544222,32.8566362 6.23232636,32.5780869 6.01908548,32.2514113 C5.68585142,31.7409806 5.69199564,31.1802361 6.00137564,30.6508466 C6.29087725,30.1557289 6.74482734,29.919837 7.54285424,29.8928571" id="Fill-4" fill="#FFFFFF"></path>
            <path d="M2.76713845,69.4285714 C1.81939067,69.4263426 1.21012424,68.9861395 1.02167246,68.2866439 C0.821511059,67.5429422 1.12559538,66.8007264 1.86586324,66.4281327 C2.81800213,65.9489243 3.80636767,65.5451262 4.76436137,65.0770622 C6.14170602,64.4043131 7.50514548,63.7014742 8.87626939,63.0149803 C9.08411523,62.9109661 9.29305886,62.796179 9.51444396,62.7367423 C10.2799607,62.5331716 11.0260834,62.87679 11.3641988,63.5658842 C11.6906046,64.2312037 11.5570417,64.9882787 10.9755856,65.4934906 C10.7011413,65.7319803 10.3805903,65.9303503 10.0534526,66.088972 C7.86338682,67.1476882 5.66819805,68.1963744 3.46752039,69.2335448 C3.20295605,69.3583618 2.89777395,69.3932809 2.76713845,69.4285714" id="Fill-6" fill="#FFFFFF"></path>
            <g id="Group-10" transform="translate(0.000000, 47.250000)">
                <mask id="mask-4" fill="white">
                    <use xlink:href="#path-3"></use>
                </mask>
                <g id="Clip-9"></g>
                <path d="M2.30510355,0.339428571 C4.22559172,0.645774725 6.15014793,0.931351648 8.06545858,1.26773901 C9.09171598,1.44798626 9.66309172,2.21385165 9.53957101,3.10433242 C9.40828402,4.04525275 8.61723373,4.61789011 7.53698225,4.46582967 C5.47781065,4.17654396 3.42233728,3.85944231 1.37093195,3.51786264 C0.454511834,3.36506044 -0.0795118343,2.64147527 0.00961538462,1.80736813 C0.0950443787,1.00775275 0.714497041,0.450692308 1.58801775,0.398027473 C1.82137574,0.384304945 2.05695266,0.396173077 2.29142012,0.396173077 C2.29622781,0.377258242 2.30029586,0.358343407 2.30510355,0.339428571" id="Fill-8" fill="#FFFFFF" mask="url(#mask-4)"></path>
            </g>
            <path d="M58.3597579,70.5985916 C58.2695635,70.5891082 58.1793692,70.5788954 58.0891749,70.5690472 C57.339703,71.7650473 56.590947,72.9610473 55.8414751,74.1566826 C57.0848683,73.8958896 58.0111497,73.2174633 58.9227566,72.4186709 C58.721251,71.7661415 58.5405044,71.1825489 58.3597579,70.5985916 M64.671571,57.8901339 C63.485802,58.4660668 61.3365285,61.8913904 61.351203,63.145385 C61.9603726,63.1140169 62.5792058,62.9994868 63.1747747,63.0746244 C63.7943238,63.1530446 64.3913244,63.4156613 65.0906883,63.6253899 C65.112521,63.284353 65.1307747,63.006417 65.1504599,62.7069611 C64.3322685,62.3155893 63.9582484,61.6991696 64.1525957,60.8456655 C64.2363476,60.4780022 64.4400007,60.1241992 64.646517,59.802129 C65.1468808,59.023033 65.1755139,58.6214483 64.671571,57.8901339 M51.0873036,58.4044248 C51.3095682,58.6520869 51.5357698,58.9701449 51.8231748,59.2112416 C52.5261178,59.8006701 53.2498199,60.3642016 53.9806803,60.9167908 C54.2652219,61.1319906 54.5723121,61.3453666 54.9026667,61.4609909 C55.8468438,61.791815 56.8046216,61.0535704 56.7552295,60.0461437 C56.7233751,59.4012739 56.3933784,58.8260705 55.8421909,58.6148829 C55.0197046,58.2993782 54.6521269,57.765391 54.6521269,56.9527383 C53.2100914,56.1772897 51.8271118,56.7236782 51.0873036,58.4044248 M56.6743409,63.9562139 C56.2645294,63.7844188 56.0855724,63.6341438 55.9288061,63.6556637 C54.3876285,63.8642981 53.2254817,63.1180291 52.1624772,62.1302987 C51.4248165,61.4449421 50.6044776,60.9463352 49.5436206,60.8018961 C48.8743214,61.1046347 48.1710204,61.4256106 47.8614248,62.2196613 C48.1724521,62.6934655 48.4569937,63.126783 48.7905696,63.633779 C49.7293779,63.5156015 50.7172205,63.2475137 51.6982628,63.7377314 C52.7133068,64.245457 52.9774474,65.2444945 53.3056545,66.3314357 C54.5773229,65.6975082 55.5583651,64.9362847 56.6743409,63.9562139 M59.1178197,67.0211691 C59.0573322,67.5077394 58.9739383,68.1821536 58.8801648,68.934988 C59.9979302,68.920763 60.3476121,69.6323811 60.5416015,70.5489862 C60.6160476,70.8995065 60.8576396,71.2131875 61.0161955,71.5294218 C61.979342,71.1522751 62.4908011,70.6890484 62.8837906,69.8738426 C63.4686221,68.65997 63.5713434,67.3363091 63.664759,66.0210374 C63.706277,65.4359858 63.4228091,65.1653448 62.8469255,65.1456485 C62.0061856,65.1171984 61.2703144,65.4024292 60.618553,65.9630429 C60.2169735,66.308092 59.7538328,66.5780035 59.1178197,67.0211691 M41.2224783,72.0491839 C41.0929135,72.7487655 41.3545486,73.2791052 42.1909936,73.6536987 C43.1924369,74.1019708 44.2611681,74.1916981 45.3384892,74.1854974 C45.5135091,74.1844032 45.6881711,74.0797213 45.8896767,74.0144319 C45.8588961,73.7718762 45.8424321,73.5774669 45.8091461,73.3859756 C45.4991925,71.6125837 46.0536013,70.1598029 47.4795306,69.1286678 C48.2655097,68.5596651 49.1628001,68.1478675 50.0207199,67.6860999 C50.3850764,67.4898669 50.7766343,67.3461573 51.2494386,67.1378877 C51.1506544,66.603171 51.0658288,66.1414033 50.9842244,65.697873 C49.5643796,65.2474125 48.6645838,66.2362371 47.5926314,66.5510124 C46.6298428,68.7653814 45.2901708,70.4523287 42.9504871,70.4297145 C42.3194847,71.0213315 41.8609969,71.4506368 41.2224783,72.0491839 M56.8668986,66.5889459 C56.3858622,66.8862134 56.1485653,67.051443 55.895878,67.1867635 C54.7777547,67.7845812 53.6692951,68.4028246 52.529697,68.9557785 C51.7988366,69.3106757 50.9999726,69.5207691 50.2698281,69.8771253 C49.6606585,70.1751222 49.0461201,70.5201713 48.5418193,70.9702671 C47.3395863,72.0440774 47.6212646,73.6909027 49.088354,74.3474444 C50.191087,74.8413096 51.3052732,74.8610058 52.3646986,74.2165008 C54.801377,72.7338109 55.9577971,70.3013241 56.915217,67.7386233 C57.0132855,67.4752771 56.8966055,67.128769 56.8668986,66.5889459 M43.2572193,58.1662461 C41.8899879,58.6838198 40.5589058,59.3527628 39.5141549,60.4933215 C38.5366918,61.5605664 38.2428444,62.7934057 38.860246,64.1491642 C39.2414244,64.9869843 39.6752162,65.8054729 40.1494522,66.5933228 C40.6852494,67.4822073 41.5173995,68.0147355 42.513832,68.194555 C42.938318,68.2715162 43.4440504,68.2456193 43.8366821,68.0792954 C45.2303991,67.4887727 45.9870293,65.5807897 45.3828705,64.1706842 C44.9057712,63.0567519 44.7049814,61.8997796 44.6065551,60.707427 C44.5718374,60.2806749 44.5228032,59.8510049 44.4286718,59.4351952 C44.2898012,58.8191403 43.9594466,58.3504425 43.2572193,58.1662461 M37.6991731,66.6181255 C36.9396796,66.6006177 36.7077513,66.9799529 36.6941506,67.4891374 C36.6766128,68.1475028 36.6705283,68.818999 36.7703863,69.4671515 C37.4597286,73.9520604 39.8545311,77.0389004 44.0814952,78.57922 C51.372919,81.2356604 57.9048492,79.5950358 63.8480109,74.8617353 C64.5731447,74.2839787 65.1912621,73.4990467 65.6837518,72.6987954 C66.614686,71.1851021 67.4908595,69.6294632 67.962948,67.8772265 C68.2539321,66.799404 68.9862241,66.027238 69.8863778,65.4549526 C71.1269077,64.6660084 72.3967865,63.9233868 73.6774027,63.204109 C74.9301017,62.5001504 76.2121496,61.8498095 77.4809546,61.1757601 C77.5099457,61.1604407 77.537505,61.1425682 77.5661382,61.1272489 C78.3753817,60.6990379 78.9569919,60.7792818 79.2683771,61.3617802 C79.5758252,61.9358894 79.3453286,62.4771715 78.5249897,62.9360211 C76.4440778,64.1010178 74.3484914,65.2382938 72.2647162,66.3974546 C71.8656421,66.6195845 71.4937695,66.8913198 71.1118753,67.1433588 C70.4289754,67.5945488 70.0195218,68.2168044 69.7682662,69.0217974 C69.1125677,71.1241897 68.0506369,73.0343611 66.789706,74.810671 C65.6042949,76.4804752 63.9271099,77.6068089 62.208049,78.6229895 C58.4184558,80.8636202 54.3532687,82.1398642 49.9280202,81.9447254 C46.9988521,81.8159703 44.1548676,81.1433799 41.5750236,79.7562533 C36.8530644,77.2172608 34.6132387,73.0682824 34.6153862,67.6594735 C34.616102,66.2132582 35.1161078,64.9953734 36.609325,64.3862487 C36.5921451,64.128009 36.6021667,63.8657571 36.5531325,63.615177 C36.2188408,61.9056155 36.8076093,60.4783669 37.8752667,59.2207249 C38.2542976,58.7735471 38.7077747,58.3777984 39.1762841,58.0272781 C39.8301929,57.5385194 40.4891126,57.0891531 41.0163199,56.4267755 C41.6032988,55.6899899 42.4587132,55.545186 43.3341708,55.8242162 C44.922951,56.331577 46.0836661,57.3017996 46.487751,59.0325163 C46.554323,59.316653 46.6298428,59.5989659 46.73328,60.0111281 C47.5131745,59.5555612 48.2243496,59.1401162 48.9541362,58.7137289 C49.0647317,56.6930396 50.2598065,55.5101704 51.9423601,54.7701021 C53.798502,53.953802 55.8901514,54.7044479 56.9241649,56.4701802 C57.0712675,56.7214898 57.2613199,56.954562 57.4628254,57.1646554 C59.0591218,58.8278942 59.253827,60.0859009 58.2287614,62.1908464 C58.1858117,62.27875 58.1586102,62.3750428 58.0820166,62.5789354 C58.2556049,62.7642261 58.459258,62.9816143 58.7448733,63.2861767 C58.9148825,62.9214313 59.0369311,62.6971129 59.1267675,62.4600285 C59.8601333,60.5221364 60.96394,58.8063742 62.1883638,57.1650201 C62.4027543,56.8783303 62.6665369,56.6179021 62.9457098,56.3957721 C64.634348,55.0505913 66.7632203,55.9000832 67.0323717,58.0681296 C67.1107548,58.6987743 66.9332295,59.371 66.8212024,60.0144108 C66.7671574,60.3248091 66.5924954,60.612958 66.4783208,60.8970946 C66.9325137,61.4438479 67.2832694,61.0867622 67.6282984,60.88214 C69.9343383,59.5168982 72.2328619,58.1388902 74.5421229,56.779849 C75.8660467,56.0011177 77.2021396,55.2424473 78.5414538,54.4914366 C78.8803983,54.3014043 79.2418914,54.1259618 79.6144799,54.032587 C80.0686728,53.9187864 80.4573673,54.1055361 80.6617362,54.5538081 C80.8614522,54.9925968 80.7845007,55.4157014 80.417281,55.7224522 C80.1696045,55.9292628 79.8625143,56.0620301 79.5822676,56.228354 C75.6752786,58.545946 71.7715107,60.8682797 67.8577213,63.1741999 C67.4292983,63.4266036 67.1902117,63.7574277 67.0534886,64.2319614 C66.8065279,65.0902072 66.5609989,65.9615839 65.7861152,66.5145378 C65.6182535,67.446827 65.4876149,68.3656205 65.283246,69.2669063 C64.9507439,70.7317237 64.2753602,72.0112504 63.0291037,72.8716847 C62.5298137,73.216369 61.9260128,73.4034834 61.367667,73.6584404 C60.9020209,73.8707222 60.3708766,73.9936414 59.9757395,74.299298 C55.8364643,77.5057744 51.2043415,78.5007998 46.1470169,77.5003032 C44.261526,77.1271687 42.4207744,76.5300806 40.8681435,75.3165728 C39.4268239,74.1902391 38.2643192,72.8490705 37.99481,70.8962238 C37.8015365,69.4963311 37.416421,68.1186879 37.6991731,66.6181255" id="Fill-11" fill="#FFFFFF"></path>
            <path d="M44.854193,34.9257397 C45.7777167,34.9616672 46.2362569,34.5180716 46.1761205,33.6433451 C45.4534096,33.7775236 45.1298183,34.3010398 44.854193,34.9257397 M59.8682535,34.2467818 C58.9411503,33.968893 58.5660135,34.2526475 58.3938372,35.2971135 C59.3592416,35.3007796 59.6080203,35.1336064 59.8682535,34.2467818 M68.1123128,36.6561291 C67.3351928,36.1927367 66.7814365,36.2913542 66.3493849,36.7752767 C65.7516003,37.4447028 65.189969,38.1661872 65.4194181,39.3459315 C66.7327547,38.7861212 67.2116983,37.6166419 68.1123128,36.6561291 M79.5217674,30.0722172 C77.8894931,30.7574075 75.651917,34.8040258 75.9039172,36.5043534 C75.9665593,36.5043534 76.0470992,36.5307492 76.0889799,36.5006874 C77.7796009,35.2974801 79.0614374,33.7588266 79.7168528,31.7355174 C79.8897451,31.1999032 79.9158758,30.6345938 79.5217674,30.0722172 M75.26282,39.1985551 C75.0212004,40.0901456 74.9990072,40.9824694 75.1608028,41.87296 C75.2903825,42.5863791 75.7421216,43.0593033 76.405412,43.2887999 C77.0819468,43.5237956 77.619953,43.2074129 78.0656069,42.7271565 C78.6114881,42.1398506 79.0492669,41.5136842 78.9368691,40.6037634 C78.8613406,39.9959274 79.2225171,39.5842267 79.7061142,39.5153044 C80.1796885,39.4478485 80.6507572,39.7459008 80.7420357,40.3555698 C80.8272289,40.9256451 80.8751949,41.5921383 80.6657913,42.0973241 C80.3565182,42.8455709 79.8947564,43.5784201 79.3402843,44.1605935 C77.5515836,46.0390926 74.7978366,45.5698344 73.6083524,43.2433405 C73.4626648,42.9584861 73.3320112,42.665933 73.1519599,42.2886934 C72.7514084,42.6124082 72.4339024,42.8829649 72.1024361,43.1340913 C70.857469,44.0773735 69.7198883,43.8035174 69.1281889,42.3301201 C68.8747568,41.7002877 68.8325181,40.9769702 68.7254896,40.2910468 C68.6811032,40.0083921 68.7179725,39.7125395 68.7179725,39.1934226 C68.3532165,39.5292355 68.1631424,39.7305033 67.9476536,39.8976765 C67.4064258,40.3159761 66.896698,40.8083306 66.2967656,41.1085825 C65.1384235,41.6889228 64.213826,41.3109501 63.618905,40.142204 C63.5172458,39.9427692 63.4087854,39.7462674 63.261308,39.4691118 C62.97566,39.6641472 62.7422734,39.8250881 62.5067391,39.9838293 C62.1541535,40.2217579 61.8144543,40.4846158 61.4443289,40.6902828 C59.689634,41.6628937 58.2270303,41.3828052 56.9136937,39.8313204 C56.7476026,39.6348186 56.6226764,39.4016559 56.3105397,38.9334976 C55.9876644,39.4181533 55.8455563,39.7334361 55.6164651,39.9534009 C55.1686636,40.383432 54.7140608,40.8343597 54.1867933,41.1412106 C53.3341447,41.6379643 52.4220756,41.2896868 51.9678308,40.3933304 C51.6220464,39.711073 51.5730066,38.9672255 51.7290749,38.2472076 C51.9463535,37.2423352 52.2563425,36.2583595 52.5412746,35.2696179 C52.6776554,34.7959605 52.8480419,34.3322014 53.0395478,33.7529609 C52.6851724,33.590187 52.3877119,33.4538088 52.0200922,33.2851692 C51.8665296,33.6543434 51.7455408,33.9183011 51.6456714,34.1906908 C51.006006,35.9331783 50.0663744,37.4952947 48.7422992,38.7600921 C48.1158781,39.3587628 47.3452012,39.856983 46.5577004,40.2063604 C45.4186879,40.7115461 44.3254937,40.4692182 43.4162882,39.5468327 C43.2358789,39.3642619 43.0304128,39.2080869 42.7887933,38.9980206 C42.5772419,39.2084536 42.401844,39.3924907 42.2164234,39.5636966 C41.9028549,39.8529503 41.6050364,40.1674999 41.2617576,40.4142271 C39.4100569,41.743914 37.0303727,41.1298457 36.1029116,39.0027865 C35.7682237,38.2354761 35.6053543,37.3372867 35.5806554,36.4918888 C35.520161,34.4282527 36.1984855,32.5625849 37.3654185,30.8912194 C37.9062884,30.1165768 38.6229141,29.5410023 39.5056309,29.2147213 C41.1328939,28.612751 42.6201965,29.5651985 42.6835545,31.3300491 C42.7061057,31.965014 42.5056509,32.6414056 42.2708325,33.242276 C42.068588,33.7610263 41.5556386,33.8944716 41.1307461,33.7093345 C40.6983366,33.5212647 40.5132739,33.1080975 40.6446434,32.5468208 C40.7559674,32.0713303 41.0194222,31.6042718 40.6328309,31.097253 C40.099836,30.8923192 39.6459492,31.1793732 39.3660285,31.5577126 C38.8430564,32.2652659 38.346215,33.019745 37.9932714,33.8255493 C37.5103903,34.9279393 37.2644752,36.113916 37.5465437,37.3343538 C37.6349586,37.7159927 37.766686,38.1126624 37.9771635,38.4345442 C38.488681,39.2168855 39.3517103,39.3884581 40.1019838,38.8524773 C40.4678137,38.5910858 40.8350754,38.2633383 41.0627347,37.8791332 C41.6490648,36.8881919 42.2021052,35.8704883 42.6839125,34.8230894 C43.1070152,33.9029035 43.6145952,33.065571 44.3580675,32.3946785 C44.6229542,32.1549169 44.9239942,31.9345855 45.2447218,31.7879424 C46.100592,31.3967717 46.9034849,31.5478142 47.6025708,32.1787464 C48.3181226,32.824343 48.4867194,33.6356463 48.172077,34.5400681 C47.7217698,35.8341941 46.7402574,36.5622775 45.5432562,37.0410675 C45.1870911,37.1829447 44.8241248,37.3075914 44.4690336,37.4384705 C44.7621986,38.3568233 45.1591706,38.6585417 45.8833134,38.3780866 C46.4145185,38.1724195 46.941786,37.8424724 47.3505705,37.4395703 C48.5622479,36.244795 49.4542715,34.8205232 49.9679368,33.1645552 C50.1662438,32.527024 50.3695622,31.8935254 50.108971,31.217867 C50.0631528,31.0990861 50.0713858,30.9542759 50.0721017,30.8219305 C50.0760392,30.050954 50.4733691,29.5061746 51.0750913,29.4383521 C51.696501,29.3686966 52.1750867,29.7888293 52.3361664,30.5561397 C52.3834165,30.7808704 52.4116949,31.0100003 52.4593029,31.3021868 C52.8390931,31.4627611 53.22819,31.6189361 53.6104859,31.7905086 C54.6607256,32.2608666 55.0798907,33.0340427 54.863328,34.1958233 C54.7724075,34.6826786 54.5877028,35.1523034 54.4370037,35.626694 C54.2057649,36.3547774 53.9466055,37.0744288 53.7389917,37.8098443 C53.6452075,38.1438241 53.6462814,38.5063994 53.5832813,39.0310153 C53.9022191,38.8440453 54.0965886,38.7894207 54.2007535,38.6596415 C55.006152,37.6573354 55.7514141,36.6341326 56.1601986,35.3609033 C56.4182841,34.5561989 56.8632221,33.7888885 57.3446714,33.0923334 C57.8869731,32.3074258 58.729241,32.0233047 59.6677987,32.0768294 C61.3526925,32.1721475 62.3213184,33.7888885 61.6437098,35.3774006 C61.2173855,36.3767739 60.3922995,36.8782935 59.4340542,37.1961426 C58.9787355,37.3471851 58.5108885,37.4593671 58.0591494,37.5862134 C58.2563826,39.0284491 59.2991052,39.7011746 60.4062597,39.0137847 C61.4539937,38.3634223 62.372506,37.4941949 63.3422058,36.71332 C64.030911,36.1586422 64.6920538,35.5669369 65.3972249,35.0357221 C66.4020043,34.2790433 67.4987781,34.2647456 68.6474554,34.6779127 C69.0945411,34.8388536 69.5720529,34.9275727 70.0427636,34.9957618 C70.666679,35.0863139 71.0113896,35.3656692 71.0271396,36.0152985 C71.0403839,36.5765752 70.9455259,37.141518 70.8907588,37.7042612 C70.8069974,38.5654232 70.6874404,39.4243856 70.6423381,40.2873807 C70.6233665,40.6528888 70.7550939,41.0264623 70.8374235,41.5063521 C71.1130488,41.3479775 71.285941,41.3032513 71.3750718,41.1892362 C72.3111239,39.9929945 73.2503975,38.7868544 73.5714831,37.239769 C73.9516312,35.4063627 74.3886941,33.5828548 75.3537405,31.9767454 C75.9966275,30.9077167 76.7540601,29.8918461 77.5798621,28.9632282 C78.2807378,28.1753878 79.223233,27.6738681 80.3035409,28.1493586 C81.366309,28.6164171 81.6186672,29.6480519 81.7138832,30.7086486 C81.7994345,31.6632957 81.5528035,32.5633181 81.1350702,33.4094493 C80.0032168,35.7014821 78.3777435,37.5132585 76.1451788,38.7234313 C75.8595308,38.8781398 75.5735248,39.0313819 75.26282,39.1985551" id="Fill-13" fill="#FFFFFF"></path>
            <path d="M53.3762639,43.3928571 C59.6992374,43.5524365 66.8005611,44.4909793 73.5968604,47.0168632 C73.8387267,47.1067956 74.0859758,47.1940233 74.3113349,47.3150602 C74.9447088,47.6548424 75.1593023,48.1957893 74.8793977,48.6931223 C74.6073879,49.1759174 74.1164782,49.3155494 73.4479368,49.0352713 C70.8398,47.9422205 68.0899165,47.2873366 65.3195786,46.7098758 C58.1098816,45.2073959 50.8510219,44.9751268 43.5487411,46.0296351 C42.3243378,46.2064571 41.1020877,46.397479 39.8744548,46.5506346 C39.5662008,46.588839 39.167875,46.603715 38.9428748,46.4536022 C38.6916783,46.2859087 38.4555537,45.9153601 38.4616542,45.6381248 C38.4681135,45.3612276 38.7261281,45.0214454 38.9791188,44.8375234 C39.2156024,44.6657728 39.5862965,44.6400778 39.9049572,44.5869974 C44.053646,43.8966139 48.2292487,43.4618279 53.3762639,43.3928571" id="Fill-15" fill="#FFFFFF"></path>
            <path d="M27.872303,86.0031641 C28.598059,86.2580897 29.1045347,86.4921678 29.6362981,86.6135958 C32.2929477,87.2203701 34.9560998,87.7967873 37.6170845,88.387103 C37.9693055,88.4650071 38.3305578,88.5249896 38.6661612,88.6519038 C39.2568087,88.8761067 39.5201617,89.3651105 39.3908334,89.8980038 C39.2593375,90.4382121 38.8211384,90.7202031 38.169078,90.6243774 C37.6503197,90.5479362 37.1395089,90.4144386 36.6265306,90.3003255 C34.0630841,89.7293945 31.4949413,89.176385 28.9390812,88.572171 C28.3079733,88.4229462 27.6927606,88.1526592 27.1111444,87.8560384 C26.2629239,87.4240912 25.8724102,86.6662634 25.9786184,85.7164184 C26.0479788,85.0942828 26.1744171,84.4633692 26.3824985,83.8756138 C27.0576791,81.967146 27.7812675,80.076234 28.489322,78.1798359 C28.5471224,78.0254906 28.6157603,77.8715112 28.7002934,77.7303328 C29.0109704,77.2120693 29.4589232,77.0291958 29.9404726,77.2117036 C30.4527284,77.406281 30.6987412,77.9040626 30.4863249,78.5247353 C30.0239219,79.8747074 29.5019123,81.2034663 29.0268655,82.5494152 C28.6442993,83.6349523 28.2953295,84.7329248 27.872303,86.0031641" id="Fill-17" fill="#FFFFFF"></path>
            <path d="M37.5838266,19.6214006 C37.5838266,20.3063604 37.5852475,20.7596139 37.5834714,21.2132581 C37.5820505,21.53288 37.6058499,21.8564092 37.5671316,22.1697792 C37.4967992,22.733611 37.1383886,23.1052007 36.6872671,23.1399762 C36.1878366,23.178659 35.7239275,22.8254339 35.6770393,22.2229193 C35.5974714,21.1999731 35.5488071,20.1660862 35.5946297,19.1419678 C35.6340584,18.2596864 36.0919289,17.7196896 36.9590057,17.6192705 C38.3663625,17.4567244 39.7943217,17.2957413 41.2009681,17.380531 C43.743588,17.5336994 46.2766172,17.8732488 48.8142641,18.1252733 C49.4561353,18.1889633 50.1001378,18.2217851 50.7441403,18.2577328 C51.4513709,18.2971971 51.87372,18.6457334 51.9191874,19.2459035 C51.9653652,19.8554513 51.5984294,20.3356656 50.9217472,20.4489789 C50.5445102,20.5118874 50.1491573,20.4978209 49.7669473,20.4583566 C46.9728361,20.1672585 44.1829874,19.8179407 41.385324,19.5811548 C40.175466,19.4791728 38.9503339,19.5995194 37.5838266,19.6214006" id="Fill-19" fill="#FFFFFF"></path>
        </g>
    </g>
</svg>