<?xml version="1.0" encoding="UTF-8" standalone="no"?>
<svg width="110px" height="125px" viewBox="0 0 110 125" version="1.1" xmlns="http://www.w3.org/2000/svg" xmlns:xlink="http://www.w3.org/1999/xlink">
    <!-- Generator: Sketch 48.2 (47327) - http://www.bohemiancoding.com/sketch -->
    <title>compota</title>
    <desc>Created with Sketch.</desc>
    <defs>
        <polygon id="path-1" points="0.340311622 0.350146199 77.1531979 0.350146199 77.1531979 124.634466 0.340311622 124.634466"></polygon>
        <polygon id="path-3" points="0.226572988 0.102483323 12.8820199 0.102483323 12.8820199 7.02624106 0.226572988 7.02624106"></polygon>
        <polygon id="path-5" points="0 0.160636375 9.3446508 0.160636375 9.3446508 3.5458747 0 3.5458747"></polygon>
    </defs>
    <g id="Page-2" stroke="none" stroke-width="1" fill="none" fill-rule="evenodd">
        <g id="compota">
            <g id="Group-3" transform="translate(16.026490, 0.015351)">
                <mask id="mask-2" fill="white">
                    <use xlink:href="#path-1"></use>
                </mask>
                <g id="Clip-2"></g>
                <path d="M38.0625497,23.6559576 C41.7122185,23.8770833 45.2478808,24.0916301 48.7675166,24.3050804 L48.7675166,22.1804459 C45.3334768,21.8189693 42.0003311,21.4680921 38.6529801,21.1157529 C38.4704967,21.9001096 38.2923841,22.666557 38.0625497,23.6559576 M33.4312583,14.7480629 C33.6873179,14.8924342 33.7969536,14.9637061 33.9135099,15.0188962 C36.2981788,16.1497442 38.8343709,16.7575658 41.4244702,17.1424342 C46.1843377,17.8496711 50.9707947,17.9479898 55.7689073,17.6884868 C56.0551987,17.673136 56.3389404,17.5982091 56.735596,17.5324196 C56.735596,17.045943 56.7643709,16.6208699 56.7304967,16.2009137 C56.5319868,13.7155336 56.0715894,11.2798611 55.4221523,8.87123538 C55.0910596,7.6431652 54.385894,6.87415936 53.2392715,6.37196637 C49.2424834,4.62123538 45.0967219,4.19689327 40.8169205,4.8683114 C40.1682119,4.97028509 39.459404,5.02291667 38.9057616,5.32956871 C37.7503974,5.97028509 36.7494702,6.82481725 36.0093377,7.97174708 C35.0645033,9.43629386 34.4117881,11.0199927 33.9306291,12.6819079 C33.7390397,13.3445541 33.6042715,14.0240132 33.4312583,14.7480629 M61.8021523,119.352961 C61.4404636,118.556908 61.6298675,117.7053 61.9507616,116.844189 C62.0990066,116.447259 62.1357947,116.001718 62.1795033,115.573721 C62.496755,112.468458 62.8354967,109.365022 63.1061258,106.255373 C63.7195033,99.2060307 64.5689073,92.1881213 65.700596,85.2023757 C66.9320861,77.5989401 68.0787086,69.981981 69.3050993,62.3778143 C69.9818543,58.1830044 70.7161589,53.9969664 71.4836093,49.8175073 C71.8671523,47.729788 72.3850993,45.667288 72.8382119,43.5923611 C73.041457,42.6614401 73.0542053,41.7648757 72.4830795,40.922405 C71.3109603,39.1943348 70.140298,37.4637061 69.017351,35.7034722 C68.1974503,34.418019 67.4474834,33.0879751 66.6803974,31.7688962 C66.2236424,30.984174 65.6583444,30.4680921 64.6705298,30.3800073 C62.463245,30.1844664 60.2588742,29.9267909 58.0643377,29.6168494 C53.2097682,28.9311769 48.3355298,28.5042763 43.4401656,28.2542763 C38.7458609,28.0148757 34.0653974,27.6267178 29.4293709,26.7762061 C26.7624172,26.2868056 24.0783444,25.8445541 21.3425497,26.0024488 C20.8377152,26.0316886 20.382053,26.0879751 19.9675497,26.4465278 C18.3386755,27.8551535 16.6686424,29.2166301 15.0488742,30.6358553 C14.3036424,31.289364 13.607947,32.0082968 12.9548675,32.7550073 C12.6889735,33.0594664 12.5021192,33.5020833 12.4427483,33.9063231 C12.2686424,35.0872442 12.124404,36.2776681 12.0632119,37.4695541 C11.8920199,40.8197003 11.8089735,44.174598 11.6177483,47.5236477 C11.2822848,53.3913377 10.9271523,59.2586623 10.5151987,65.1219664 C10.1054305,70.9520102 9.69165563,76.7835161 9.13291391,82.6000365 C8.8,86.0664108 8.25218543,89.5159722 7.68033113,92.9531067 C6.65754967,99.101864 6.11519868,105.328107 4.69794702,111.583955 C5.19112583,111.837975 5.71016556,112.206031 6.28711921,112.382931 C8.18407285,112.963706 10.0813907,113.567507 12.0151325,113.995139 C17.5442715,115.218092 23.1273179,116.162171 28.7507947,116.810197 C34.075596,117.423867 39.418245,117.883297 44.7514238,118.423867 C49.0971523,118.864656 53.4468874,119.269993 57.7427152,120.114291 C58.6387417,120.290826 59.5784768,120.279496 60.498543,120.286075 C61.0565563,120.290095 61.5103974,120.005007 61.8021523,119.352961 M53.1660596,22.0781067 C52.8149338,23.0188962 53.1456623,23.7853436 53.2152318,24.6767909 C54.2871854,24.8229898 55.3573179,24.979788 56.4303642,25.1131944 C59.6491391,25.5137792 62.8693709,25.9023026 66.0881457,26.3039839 C66.5470861,26.361367 67.0012914,26.4589547 67.4547682,26.5528874 C68.4349338,26.7553728 69.0217219,27.3324927 69.4700993,28.2634137 C70.1129801,29.6007675 70.9361589,30.8558845 71.742947,32.106981 C73.1627483,34.3087354 74.5803642,36.5148757 76.0908609,38.6533991 C77.2928477,40.355519 77.3034106,42.1983553 76.9548344,44.0919956 C76.3480132,47.3895102 75.5936755,50.6603436 75.0327483,53.9648026 C73.7936093,61.2641447 72.6160265,68.5740863 71.4511921,75.8858553 C70.5526159,81.5251096 69.6558609,87.165826 68.8636424,92.8204313 C68.3245695,96.666557 67.9541391,100.536806 67.5338079,104.399013 C67.2103642,107.370504 66.9069536,110.344554 66.6330464,113.320797 C66.4778808,115.006104 66.3474834,116.696893 66.2990397,118.387683 C66.2269205,120.901937 65.1771854,122.810928 62.9524172,123.975037 C61.4557616,124.757931 59.807947,124.718092 58.1867219,124.492946 C56.2209272,124.21992 54.2718874,123.819335 52.3039073,123.564949 C49.4828808,123.200183 46.6523841,122.901206 43.8229801,122.602595 C38.0643709,121.994773 32.2955629,121.472478 26.5460596,120.790095 C20.3325166,120.052156 14.1677815,118.982346 8.10503311,117.410344 C6.54536424,117.005738 5.00172185,116.4447 3.54513245,115.754642 C1.58662252,114.82701 0.418145695,113.226133 0.341291391,110.97723 C0.327086093,110.563487 0.470231788,110.136952 0.583509934,109.727961 C0.749602649,109.126718 1.03516556,108.548501 1.13023179,107.938487 C2.0805298,101.836148 2.94523179,95.7202851 3.94907285,89.6270833 C4.8684106,84.045943 5.34519868,78.422405 5.74294702,72.791557 C6.20844371,66.1987208 6.57668874,59.5993056 6.9631457,53.0009868 C7.2913245,47.3982822 7.57506623,41.7926535 7.90433775,36.1899488 C7.96662252,35.1314693 8.13817881,34.0792032 8.27950331,33.0265716 C8.43903974,31.8376096 8.95152318,30.8025219 9.75903974,29.9293494 C11.0881457,28.4922149 12.4751656,27.1219664 14.0585099,25.9512792 C15.2557616,25.0660453 16.3492053,24.0411915 17.5224172,23.1219664 C18.5291722,22.3332237 19.6513907,21.9267909 20.979404,21.8482091 C24.9598013,21.6124635 28.8243709,22.3822003 32.7122517,22.9936769 C33.0313245,23.0441155 33.3536755,23.0748173 33.7018874,23.1179459 C34.1655629,22.0123173 34.6846026,20.9995249 34.194702,19.7860746 C33.4888079,19.475402 32.7574172,19.170212 32.0409603,18.8324927 C31.5933113,18.6212354 31.1569536,18.3796418 30.7344371,18.1205044 C29.5841722,17.415095 29.0228808,16.4066886 29.1809603,15.0283991 C29.6216887,11.1859284 30.8331457,7.64718567 33.3201656,4.63402778 C35.0903642,2.49002193 37.2936424,1.16107456 40.1099338,0.723940058 C45.1455298,-0.0585891813 50.0070199,0.336513158 54.6947682,2.39243421 C55.4181457,2.70968567 56.1123841,3.10990497 56.7807616,3.53388158 C57.7266887,4.13439327 58.4613576,4.96114766 58.8416225,6.02182018 C59.2878146,7.26779971 59.73,8.52693713 60.0170199,9.81567982 C60.5728477,12.3105629 61.0795033,14.8226243 60.9593046,17.4070541 C60.9454636,17.7056652 60.9862583,18.0203582 60.9050331,18.2992325 C60.7589735,18.8025219 60.6795695,19.4593202 60.3262583,19.7425804 C59.0947682,20.73125 57.9980464,22.0148757 56.1681126,21.9373904 C55.1850331,21.8960892 54.1946689,22.0240132 53.1660596,22.0781067" id="Fill-1" fill="#FFFFFF" mask="url(#mask-2)"></path>
            </g>
            <path d="M3.09762914,48.5147661 C3.29103974,48.6065058 3.68223179,48.7227339 3.98709934,48.9540936 C4.35060927,49.2304094 4.67150331,49.5798246 4.95597351,49.9409357 C6.82123841,52.3089912 8.67156954,54.6883772 10.5266358,57.0637427 C10.6286225,57.1938596 10.7386225,57.3192251 10.8336887,57.4544591 C11.4135563,58.277924 11.3268675,59.1975146 10.6206093,59.7596491 C9.93693377,60.3035088 8.9585894,60.1931287 8.33501325,59.4062135 C6.58630464,57.1997076 4.8809404,54.9584795 3.14060927,52.7450292 C2.73630464,52.2311404 2.28137086,51.7523392 1.81368874,51.2947368 C1.3201457,50.8119152 1.12964901,50.1909357 1.36130464,49.5812865 C1.59004636,48.9807749 2.27809272,48.5041667 3.09762914,48.5147661" id="Fill-4" fill="#FFFFFF"></path>
            <g id="Group-8" transform="translate(96.887417, 63.977339)">
                <mask id="mask-4" fill="white">
                    <use xlink:href="#path-3"></use>
                </mask>
                <g id="Clip-7"></g>
                <path d="M1.95064238,7.02616959 C1.16425166,7.03201754 0.609880795,6.67858187 0.373125828,6.11571637 C0.0853774834,5.43114035 0.23507947,4.80358187 0.702033113,4.26885965 C0.913291391,4.02690058 1.1988543,3.80833333 1.49461589,3.68845029 C4.27411921,2.56162281 6.90574172,1.05942982 9.85206623,0.356578947 C10.2050132,0.272149123 10.5565033,0.172733918 10.9145497,0.123026316 C11.8903444,-0.0118421053 12.702596,0.529459064 12.8541192,1.39130117 C13.0129272,2.29371345 12.4887881,3.05796784 11.4969669,3.24217836 C9.03289404,3.7001462 6.81431788,4.8244152 4.53600662,5.78457602 C3.8767351,6.06162281 3.26772848,6.45635965 2.62557616,6.77690058 C2.36587417,6.90665205 2.07812583,6.98011696 1.95064238,7.02616959" id="Fill-6" fill="#FFFFFF" mask="url(#mask-4)"></path>
            </g>
            <path d="M108.851411,78.7456871 C108.866344,79.7752924 107.972503,80.513962 106.895815,80.2975877 C105.957172,80.1086257 105.039291,79.8187865 104.103563,79.6141082 C102.619656,79.2895468 101.127371,79.0040936 99.6409139,78.6912281 C99.2220397,78.6027778 98.7911457,78.5234649 98.4014106,78.3564327 C97.6645563,78.0410088 97.3221722,77.2687135 97.5425364,76.5592836 C97.7727351,75.8180556 98.4622384,75.2950292 99.2089272,75.444883 C102.025583,76.0106725 104.837503,76.6016813 107.639954,77.2336257 C108.436543,77.4134503 108.841212,78.0252924 108.851411,78.7456871" id="Fill-9" fill="#FFFFFF"></path>
            <path d="M4.90847682,82.3792763 C4.02884106,82.3756213 3.47301325,81.979057 3.25738411,81.3558845 C3.01807947,80.6632675 3.22059603,79.9764985 3.90645695,79.5503289 C5.42096026,78.608443 6.95294702,77.6925073 8.50168874,76.8083699 C9.24546358,76.3840278 10.0231126,75.9987939 10.825894,75.7082237 C11.2265563,75.5631213 11.7506954,75.5634868 12.1611921,75.6884868 C12.7778477,75.8763523 13.1031126,76.4213085 13.1184106,77.0682383 C13.1344371,77.7579313 12.7749338,78.2520833 12.1597351,78.5649488 C10.6590728,79.3288377 9.15403974,80.0850512 7.66649007,80.8734284 C7.02543046,81.2129751 6.43208609,81.6424342 5.7986755,81.9980629 C5.46102649,82.1873904 5.0836755,82.3058114 4.90847682,82.3792763" id="Fill-11" fill="#FFFFFF"></path>
            <path d="M103.200033,91.6130482 C103.202219,92.76875 102.274139,93.5662646 101.161026,93.2895833 C100.732318,93.1828582 100.260265,92.9631944 99.9666887,92.646674 C98.5075497,91.0713816 97.0775497,89.4657529 95.6963576,87.8213816 C95.4311921,87.5052266 95.3284768,86.9664839 95.3292053,86.5304459 C95.3299338,85.89375 95.8781126,85.3462354 96.4911258,85.203326 C97.1401987,85.0516447 97.657053,85.2939693 98.0700993,85.7884868 C98.874702,86.7523026 99.667649,87.7259868 100.479536,88.6832237 C100.818642,89.0830775 101.174503,89.4156798 101.741258,89.5688231 C102.610331,89.8042032 103.198576,90.7413377 103.200033,91.6130482" id="Fill-13" fill="#FFFFFF"></path>
            <g id="Group-17" transform="translate(0.000000, 66.170322)">
                <mask id="mask-6" fill="white">
                    <use xlink:href="#path-5"></use>
                </mask>
                <g id="Clip-16"></g>
                <path d="M4.7455894,0.267690058 C5.63760927,0.227119883 6.53035762,0.144152047 7.42092053,0.163523392 C7.85982781,0.173026316 8.34827152,0.282309942 8.71906623,0.505628655 C9.23154967,0.814108187 9.43260927,1.36673977 9.30949669,1.98004386 C9.18128477,2.61820175 8.80284106,3.04583333 8.16906623,3.22711988 C8.07436424,3.25416667 7.97529139,3.27828947 7.87731126,3.28267544 C5.79678146,3.37733918 3.71698013,3.50380117 1.63535762,3.54546784 C0.659927152,3.56483918 0.0181390728,2.89013158 0.000291390728,2.02755848 C-0.0179205298,1.14305556 0.649728477,0.500877193 1.6750596,0.438377193 C2.6982053,0.37624269 3.72244371,0.33128655 4.74595364,0.278289474 L4.7455894,0.267690058 Z" id="Fill-15" fill="#FFFFFF" mask="url(#mask-6)"></path>
            </g>
            <path d="M55.2013146,50.3179459 C56.3304536,47.5650219 55.8183344,44.4418494 54.2007517,43.6589547 C53.8026391,45.9411184 54.0361159,48.1074196 55.2013146,50.3179459 M54.112606,54.3954313 C53.7913477,54.1377558 53.5039636,53.9615863 53.2850563,53.7218202 C52.0655861,52.3892178 49.9886987,52.0014254 48.4020762,52.8457237 C47.0598576,53.559905 46.1317781,54.6596857 45.5613808,56.057712 C44.3725066,58.9710892 44.0822086,61.9794956 44.8394603,65.0357822 C45.0824073,66.0160453 45.5180364,66.9882675 46.0534669,67.8460892 C46.9003212,69.2020833 47.7741291,69.4294225 49.2842616,68.9005482 C50.0018113,68.6487208 50.7066126,68.3555921 51.4044934,68.0522295 C52.4243609,67.6092471 53.4063477,67.680519 54.3559172,68.2309576 C54.9576391,68.5792763 55.5214801,68.998136 56.1410497,69.3088085 C56.994096,69.7368056 57.8555199,70.187098 58.763202,70.4597588 C61.1136325,71.1662646 63.0510166,70.4089547 64.6241623,68.5843933 C65.6502219,67.3943348 66.1648907,65.9604898 66.5433344,64.4714547 C67.6120099,60.2667763 65.8592947,56.9659722 62.6915132,55.0938962 C60.8754205,54.0207968 58.981745,54.1867325 57.3262815,55.4941155 C57.0665795,55.6995249 56.8188974,55.926133 56.5391623,56.1001096 C55.4817781,56.7591009 54.3573742,56.2455775 54.1544934,55.0189693 C54.1224404,54.8241594 54.1268113,54.623136 54.112606,54.3954313 M52.775851,70.3661915 C52.0291623,70.6662646 51.3567781,70.9400219 50.6822086,71.2068348 C47.4310166,72.494481 45.0215795,71.6220395 43.354096,68.5379751 C42.5553212,67.060636 42.0912815,65.4751096 41.9186325,63.803326 C41.5984669,60.7061038 41.9495927,57.7042763 43.2135,54.8387792 C43.8975397,53.2883406 44.9083013,52.0032529 46.3044272,51.0229898 C47.7548245,50.0043494 49.3356192,49.5770833 51.0945265,49.8417032 C51.3480364,49.8800804 51.6059172,49.8906798 51.9861821,49.925402 C51.926447,49.5657529 51.9060497,49.2832237 51.8310166,49.0160453 C51.1943278,46.7547149 51.3028709,44.4827851 51.7188311,42.2053728 C51.7366788,42.1074196 51.7556192,42.0094664 51.7811159,41.9133406 C52.2852219,40.0394371 53.5811821,39.5737939 55.1353874,40.7229167 C56.8830033,42.0145833 58.1115795,43.6388523 58.3519768,45.8811769 C58.3698245,46.0452851 58.408798,46.2079313 58.4532351,46.3669225 C58.4692616,46.4243056 58.5304536,46.4692617 58.6400894,46.6063231 C58.8866788,46.4148026 59.1431026,46.2305921 59.3835,46.0273757 C59.8639305,45.620212 60.3185,45.180519 60.814957,44.7949196 C61.5077384,44.2561769 62.2981358,44.3066155 62.7698245,44.8760599 C63.2207517,45.4213816 63.1621093,46.1680921 62.5574735,46.7521564 C61.9859834,47.304057 61.3438311,47.7821272 60.7701556,48.3318348 C60.0777384,48.995212 59.3915132,49.6710161 58.7668444,50.3976243 C58.4106192,50.812098 58.182606,51.3373173 57.8431358,51.9020102 C58.0988311,51.9414839 58.2219437,51.9941155 58.3301225,51.9721857 C62.4522086,51.1428728 65.393798,53.0164108 67.6739305,56.2024488 C69.1756854,58.3007675 69.7395265,60.7002558 69.4135331,63.2912646 C69.1141291,65.6684576 68.4224404,67.9001827 66.9946258,69.8501096 C64.7684007,72.8914108 61.3609503,74.0588085 57.7728377,72.9308845 C56.6815795,72.5880482 55.6606192,72.0039839 54.6316457,71.4820541 C53.9880364,71.1560307 53.3903212,70.739364 52.775851,70.3661915" id="Fill-18" fill="#FFFFFF"></path>
            <path d="M83.5665629,42.0985746 C82.2334503,40.1095395 81.018351,38.2484284 79.7478874,36.4260599 C79.2958675,35.7783991 78.7130861,35.2213816 78.1820265,34.6296418 C77.7300066,34.1263523 77.1067947,33.9710161 76.4817616,33.9121711 C75.2320596,33.794481 73.9776225,33.7162646 72.7231854,33.6618056 C71.6260993,33.6139254 71.0400397,33.2085892 71.0280199,32.4096126 C71.016,31.6022295 71.6217285,31.0609284 72.673649,31.107712 C74.2894106,31.1793494 75.9048079,31.3069079 77.5129205,31.4801535 C78.4934503,31.5857822 79.3581523,32.0485015 80.0170596,32.790095 C80.8070927,33.6797149 81.5869272,34.5865132 82.2859007,35.5485015 C83.2791788,36.9161915 84.1391457,38.3836623 85.1611987,39.728326 C86.0106026,40.8456506 86.2710331,42.0236477 86.0353709,43.3719664 C85.4806358,46.543019 85.0063974,49.729788 84.3828212,52.8865863 C83.0515298,59.6267178 81.5428543,66.3332237 80.2989801,73.0890716 C78.9043113,80.6647295 77.7434834,88.2809576 77.3399073,95.9929459 C77.1319272,99.9721126 76.8889801,103.950548 76.5684503,107.921674 C76.4355033,109.567507 76.1415629,111.21261 75.7725894,112.823721 C75.3085497,114.850037 73.9364636,116.018531 71.8898079,116.288633 C70.1199735,116.522186 68.3384834,116.677887 66.5584503,116.816045 C66.0769272,116.852961 65.5622583,116.762683 65.0963974,116.621235 C64.446596,116.423136 64.1231523,115.760855 64.2622914,115.115022 C64.3879536,114.534247 64.9539801,114.042288 65.5771921,114.125621 C67.3473907,114.362829 69.0749735,113.999525 70.812755,113.814218 C72.7122583,113.612098 73.0247748,113.333224 73.4553046,111.43739 C73.6971589,110.372697 73.8752715,109.282054 73.9543113,108.193969 C74.141894,105.611367 74.2202053,103.020724 74.4026887,100.437025 C74.6714967,96.6278143 74.8947748,92.8116594 75.3110993,89.0177997 C76.2315298,80.6292763 77.6506026,72.3204313 79.4178874,64.0667763 C80.6898079,58.1278143 81.8364305,52.1614401 83.0027219,46.2001827 C83.2693444,44.8361477 83.3855364,43.4428728 83.5665629,42.0985746" id="Fill-20" fill="#FFFFFF"></path>
            <path d="M26.5828113,107.340863 C27.1848974,107.616082 27.6995662,107.910307 28.2513874,108.090497 C29.2260894,108.409576 30.2335728,108.627047 31.2057252,108.952705 C31.6282417,109.094152 32.0565861,109.336111 32.3738377,109.644956 C32.7923477,110.053216 32.7635728,110.746199 32.4171821,111.204898 C32.0784404,111.653363 31.6435397,111.782018 31.0997318,111.615351 C30.0561887,111.295906 29.0017185,111.010453 27.9603609,110.683699 C27.4249305,110.515936 26.8887715,110.328801 26.3857583,110.082822 C24.6446987,109.231579 24.0433411,107.896784 24.4454603,105.985965 C25.0806921,102.964035 25.7534404,99.9483187 26.2939702,96.9092105 C27.3535397,90.9552632 28.1100629,84.9563596 28.5788377,78.9271199 C29.2351954,70.4834064 29.8383742,62.036038 30.4229768,53.5875731 C30.8010563,48.1215643 31.107745,42.6504386 31.4410232,37.1811404 C31.5309901,35.7059942 32.138904,34.5279971 33.2793344,33.5733187 C34.8033079,32.2966374 36.2722815,30.9538012 37.7667517,29.6413012 C38.4274801,29.0612573 38.9530762,29.0038743 39.4316854,29.4516082 C39.9507252,29.9366228 39.9740364,30.7067251 39.4123808,31.3244152 C38.9457914,31.8372076 38.4118179,32.290424 37.8938709,32.7549708 C36.7833079,33.7502193 35.6683742,34.7414474 34.5450629,35.722807 C34.0981424,36.1131579 33.8173146,36.5777047 33.7743344,37.1749269 C33.6974801,38.2345029 33.6213543,39.2940789 33.5499636,40.354386 C33.0338377,48.0415205 32.5268179,55.729386 32.0015861,63.4157895 C31.6486391,68.5850146 31.3208245,73.7564327 30.8924801,78.9194444 C30.1279437,88.1310673 28.884798,97.2739766 26.7594669,106.281287 C26.6920828,106.56674 26.661851,106.860965 26.5828113,107.340863" id="Fill-22" fill="#FFFFFF"></path>
            <path d="M37.7824503,87.5733187 C36.889702,87.5733187 35.9973179,87.5744152 35.1045695,87.5729532 C34.4536755,87.5718567 34.1429801,87.3646199 34.0723179,86.8894737 C33.9954636,86.3719298 34.2948675,85.9702485 34.9217219,85.8883772 C35.5085099,85.8112573 36.1127815,85.7637427 36.7006623,85.8105263 C39.7959603,86.0568713 42.8963576,86.2725146 45.9810927,86.6204678 C51.203543,87.2096491 56.4234437,87.8357456 61.6298675,88.5528509 C64.4082781,88.9358918 67.1560927,89.5407895 69.9173841,90.0466374 C70.0146358,90.0641813 70.1115232,90.0901316 70.2047682,90.1226608 C70.7707947,90.3192982 71.0494371,90.6891813 70.9631126,91.1233918 C70.8633113,91.6244883 70.4579139,91.8664474 69.8146689,91.7421784 C68.4524172,91.478655 67.1050993,91.1208333 65.7344702,90.9198099 C62.7921523,90.4888889 59.8396358,90.1263158 56.8900331,89.7472953 C52.8575497,89.2290205 48.8261589,88.7027047 44.7896689,88.2162281 C42.4610927,87.9351608 40.1237748,87.725731 37.7900993,87.4845029 C37.7875497,87.5141082 37.785,87.5437135 37.7824503,87.5733187" id="Fill-24" fill="#FFFFFF"></path>
            <path d="M50.1885927,79.9375 C49.9518377,80.3271199 49.724553,80.7236842 49.4750497,81.1052632 C49.2266391,81.4846491 48.9017384,81.7646199 48.4081954,81.6747076 C47.9536258,81.5913743 47.7795199,81.2364766 47.6680629,80.8333333 C47.5631623,80.4543129 47.4506126,80.0771199 47.1508444,79.6772661 C47.0557781,80.005117 46.9457781,80.3293129 46.8692881,80.6611842 C46.7203146,81.3070175 46.5997517,81.9594298 46.4500497,82.6048977 C46.3469702,83.0482456 46.0559437,83.2894737 45.5929967,83.2671784 C45.1497185,83.246345 44.8364735,82.8951023 44.8321026,82.3881579 C44.8299172,82.126462 44.8852815,81.8607456 44.9439238,81.6034357 C45.3482285,79.8260234 45.7660099,78.0519006 46.1659437,76.2737573 C46.2668377,75.8230994 46.4343874,75.4722222 46.9239238,75.3344298 C47.6676987,75.125 48.1535927,75.3815789 48.3244205,76.1399854 C48.4912417,76.879386 48.6303808,77.625 48.9822351,78.442617 C49.2382947,78.0438596 49.4932616,77.6451023 49.7500497,77.247076 C49.9656788,76.9133772 50.163096,76.564693 50.4042219,76.250731 C50.7586258,75.7891082 51.2794868,75.6597222 51.820745,75.8501462 C52.340149,76.0332602 52.5255464,76.4342105 52.4858444,76.9429825 C52.427202,77.7021199 52.3612748,78.4627193 52.2523675,79.2156433 C52.0534934,80.5932018 51.820745,81.9660088 51.6018377,83.3406433 C51.5759768,83.5040205 51.5665066,83.6728801 51.5169702,83.8289474 C51.382202,84.2573099 51.0962748,84.5124269 50.6318709,84.4473684 C50.1765728,84.3834064 49.8968377,84.0763889 49.9325331,83.6260965 C50.0028311,82.7353801 50.1365066,81.8497807 50.2479636,80.9630848 C50.2880298,80.6418129 50.3386589,80.3216374 50.3841887,80.0010965 C50.3189901,79.9795322 50.2537914,79.9586988 50.1885927,79.9375" id="Fill-26" fill="#FFFFFF"></path>
            <path d="M60.1114305,84.0775219 C61.4073907,83.2800073 62.0939801,80.8794225 61.4256026,79.6564693 C61.1746424,79.1970395 60.7940132,79.1455044 60.3667616,79.2335892 C59.119245,81.2058114 59.0063311,83.1385599 60.1114305,84.0775219 M57.6568278,82.5245249 C57.7493444,80.7164108 58.2257682,79.3183845 59.1258013,78.0859284 C59.8885166,77.0420687 60.4570927,76.94375 61.5796755,77.5300073 C62.3536821,77.9342471 62.9131523,78.5380482 63.1251391,79.3794225 C63.6248742,81.3655336 63.2923245,83.2226243 61.9646755,84.7960892 C60.621,86.3878289 58.6289801,85.9821272 57.9365629,84.00625 C57.7435166,83.4547149 57.7143775,82.8450658 57.6568278,82.5245249" id="Fill-28" fill="#FFFFFF"></path>
            <path d="M41.4383477,81.037902 C42.3416589,80.4578582 42.9044073,79.3968202 43.0890762,78.0682383 C43.1550033,77.5960161 43.2555331,77.0945541 42.7758311,76.727595 C42.4247053,76.9377558 42.1169238,77.1223319 41.7832815,77.3218933 C41.4154007,78.5024488 40.6308311,79.6380482 41.4383477,81.037902 M42.4403675,75.0134137 C43.8594404,74.7648757 44.5915596,75.7378289 44.7332483,76.8485746 C44.9823874,78.7992325 44.3985132,80.5569079 43.1032815,81.9962354 C41.9919901,83.23125 40.2509305,82.8434576 39.6725199,81.2904605 C39.4816589,80.7780336 39.3880497,80.1833699 39.4262947,79.6391447 C39.5301026,78.1519371 40.0986788,76.8134868 40.9298709,75.5821272 C41.3210629,75.0024488 41.8706987,74.9052266 42.4403675,75.0134137" id="Fill-30" fill="#FFFFFF"></path>
            <path d="M71.7711391,81.8013889 L71.6505762,81.7480263 C71.340245,82.3902047 71.0302781,83.0327485 70.6569338,83.8061404 C71.1158742,83.8584064 71.4101788,83.8920322 71.7711391,83.9329678 L71.7711391,81.8013889 Z M71.7962715,85.4497807 C71.159947,85.3865497 70.6146821,85.3313596 70.0450132,85.2743421 C69.881106,85.5437135 69.7437881,85.7630117 69.6126623,85.9852339 C69.251702,86.597807 68.9417351,86.7582602 68.5374305,86.5375 C68.136404,86.3185673 68.0773974,85.975731 68.347298,85.3171053 C68.4980927,84.9486842 68.6645497,84.5868421 68.8342848,84.227193 C69.598457,82.6073099 70.3604437,80.9866959 71.1359073,79.3722953 C71.3788543,78.8668129 71.6054106,78.2977339 72.3196821,78.35 C72.817596,78.3861842 73.156702,78.8649854 73.1763709,79.7447368 C73.2266358,82.0002193 73.2335563,84.2567982 73.2277285,86.5130117 C73.2259073,87.0974415 72.9155762,87.3982456 72.4759404,87.3580409 C71.9885894,87.3138158 71.8028278,86.9929094 71.797,86.5378655 C71.7929934,86.2129386 71.7962715,85.8880117 71.7962715,85.4497807 Z" id="Fill-32" fill="#FFFFFF"></path>
            <path d="M55.2715762,77.940826 C54.9867417,78.8161915 54.8275695,79.5826389 54.8785629,80.4368056 C55.9199205,79.7675804 56.1202517,78.6743787 55.2715762,77.940826 M54.483,82.7398026 C54.4163444,83.0797149 54.365351,83.3381213 54.3154503,83.5968933 C54.162106,84.3976974 53.807702,84.7602705 53.2824702,84.6535453 C52.7561457,84.5468202 52.5481656,84.1184576 52.6701854,83.2902412 C52.9211457,81.5859284 53.1903179,79.884174 53.4536623,78.1816886 C53.4940927,77.9196272 53.5356159,77.6575658 53.5924371,77.3987939 C53.7843907,76.5230629 54.0440927,76.3096126 54.9470397,76.2701389 C56.4608146,76.2032529 57.5655497,77.2522295 57.5018079,78.7759868 C57.4435298,80.1718202 56.959457,81.3633406 55.6398212,82.063633 C55.2624702,82.2639254 54.9004172,82.4945541 54.483,82.7398026" id="Fill-34" fill="#FFFFFF"></path>
            <path d="M36.8184934,75.932383 C35.998957,76.7394006 35.8131954,77.8410088 35.6846192,78.9477339 C35.6103146,79.5902778 35.5458444,80.2719298 36.2357119,80.7953216 C36.4921358,80.5482456 36.7121358,80.3106725 36.9579967,80.1052632 C37.3593874,79.7690058 37.7961093,79.7657164 38.118096,80.0840643 C38.4561093,80.4181287 38.4510099,80.8077485 38.1996854,81.1706871 C37.6959437,81.8991228 37.0920364,82.560307 36.1257119,82.502924 C35.1182285,82.442617 34.4611424,81.7690058 34.2196523,80.8530702 C33.6528974,78.7028509 34.071043,76.6955409 35.4500497,74.9499269 C36.099851,74.1275585 37.0060762,74.0237573 37.8532947,74.5095029 C38.7340232,75.0142544 39.2705464,76.1736111 39.0279636,77.0464181 C38.9186921,77.4385965 38.6819371,77.6977339 38.2594205,77.6937135 C37.8467384,77.6900585 37.5819371,77.4550439 37.481043,77.0548246 C37.3805132,76.6571637 37.5018046,76.1549708 36.8184934,75.932383" id="Fill-36" fill="#FFFFFF"></path>
            <path d="M65.627457,79.0705044 C65.1856358,78.994481 64.8334172,78.9436769 64.4848411,78.8720395 C64.0404702,78.7806652 63.7705695,78.5003289 63.788053,78.0416301 C63.8059007,77.5759868 64.118053,77.3241594 64.5573245,77.2755482 C64.8141126,77.2470395 65.0847417,77.2802997 65.341894,77.3259868 C66.1872914,77.4762061 67.0308675,77.6370249 67.8715298,77.8124635 C68.0937152,77.8588816 68.3144437,77.9502558 68.5151391,78.059174 C68.8706358,78.2528874 69.0469272,78.5668494 68.941298,78.9714547 C68.8378543,79.3676535 68.5552053,79.5807383 68.1399735,79.5770833 C67.9126887,79.5748904 67.6857682,79.5427266 67.3801722,79.5178728 C67.3131523,79.7781067 67.237755,80.0186038 67.190404,80.2645833 C66.8840795,81.8581506 66.6050728,83.4572003 66.2732517,85.0456506 C66.0856689,85.9436769 65.7177881,86.2561769 65.1517616,86.1414108 C64.5857351,86.0262792 64.4513311,85.6001096 64.6363642,84.6823465 C64.9572583,83.0920687 65.2588477,81.4977705 65.5600728,79.9031067 C65.6023245,79.680519 65.5983179,79.4491594 65.627457,79.0705044" id="Fill-38" fill="#FFFFFF"></path>
            <path d="M68.3654735,74.4807383 C68.1199768,74.3155336 67.814745,74.1960161 67.6446457,73.9723319 C67.463255,73.7340278 67.273851,73.3637792 67.3365,73.1137792 C67.4009702,72.8572003 67.7353411,72.6112208 68.0085199,72.4825658 C68.2219636,72.3824196 68.5315662,72.4277412 68.7836192,72.4792763 C70.6303079,72.8557383 72.4729901,73.2493787 74.3164007,73.639364 C74.4132881,73.6598319 74.5050762,73.7022295 74.6012351,73.7263523 C75.0485199,73.8378289 75.4258709,74.0501827 75.4717649,74.5542032 C75.5165662,75.0457968 75.2594139,75.3696272 74.7593146,75.5125365 C73.2276921,75.1762792 71.682957,74.8169956 70.1287517,74.5063231 C69.5951424,74.399598 69.0371291,74.4149488 68.4904073,74.3747442 L68.3654735,74.4807383 Z" id="Fill-40" fill="#FFFFFF"></path>
            <path d="M41.4253444,71.4300439 C39.5207417,71.2973684 37.6157748,71.1643275 35.7111722,71.0309211 C35.5465364,71.0195906 35.379351,71.0166667 35.2187219,70.9826754 C34.7098808,70.8759503 34.4363377,70.5539474 34.4538212,70.102924 C34.4734901,69.6142544 34.8209735,69.2747076 35.385543,69.2893275 C36.2094503,69.3105263 37.0319007,69.3836257 37.8547152,69.4410088 C38.8421656,69.5097222 39.8303444,69.5711257 40.8156093,69.665424 C41.1721987,69.6997807 41.5327947,69.786769 41.8697152,69.911038 C42.2936887,70.0671053 42.4714371,70.413231 42.3840199,70.8646199 C42.3013377,71.2922515 41.8981258,71.5612573 41.4253444,71.4300439" id="Fill-42" fill="#FFFFFF"></path>
            <path d="M64.4630596,10.3431287 C62.6557086,10.1000731 60.4262053,9.84239766 58.2130927,9.48530702 C56.9644834,9.28428363 55.8116689,8.75138889 54.7888874,7.9871345 C54.2068344,7.55146199 54.0840861,6.89356725 54.4231921,6.32010234 C54.7615695,5.74773392 55.4383245,5.48347953 56.051702,5.86542398 C58.3828278,7.31644737 61.0148146,7.36505848 63.6081921,7.56900585 C65.189351,7.69364035 66.7716026,7.6874269 68.3261722,7.22178363 C69.1282252,6.98128655 69.7955099,7.36834795 70.0020331,8.05182749 C70.2238543,8.78830409 69.8545166,9.43230994 69.0083907,9.73347953 C68.6678278,9.85445906 68.3134238,9.96483918 67.9568344,10.0065058 C66.9409735,10.1252924 65.9207417,10.2060673 64.4630596,10.3431287" id="Fill-44" fill="#FFFFFF"></path>
            <path d="M51.2043079,57.2059942 C50.2154007,57.8035819 49.844606,58.7407164 49.7458974,59.8043129 C49.669043,60.6296053 49.6654007,61.4622076 49.630798,62.2915205 C49.6238775,62.4574561 49.6326192,62.6241228 49.6191424,62.7893275 C49.5466589,63.6855263 49.0389106,64.2187865 48.278745,64.2045322 C47.5287781,64.1906433 47.007553,63.6449561 47.0126523,62.726462 C47.0192086,61.5327485 47.045798,60.3309942 47.1976854,59.1497076 C47.288745,58.4424708 47.5681159,57.7348684 47.8824536,57.0857456 C48.4033146,56.0111842 49.239606,55.2151316 50.3337781,54.7103801 C50.9759305,54.4143275 51.6148046,54.416155 52.2511291,54.720614 C52.8637781,55.0141082 53.1762947,55.5773392 53.0601026,56.1643275 C52.939904,56.7725146 52.4784139,57.1526316 51.7827185,57.2038012 C51.5874868,57.2180556 51.3904338,57.2059942 51.2043079,57.2059942" id="Fill-46" fill="#FFFFFF"></path>
        </g>
    </g>
</svg>