<?xml version="1.0" encoding="UTF-8" standalone="no"?>
<svg width="119px" height="112px" viewBox="0 0 119 112" version="1.1" xmlns="http://www.w3.org/2000/svg" xmlns:xlink="http://www.w3.org/1999/xlink">
    <!-- Generator: Sketch 48.2 (47327) - http://www.bohemiancoding.com/sketch -->
    <title>jugo</title>
    <desc>Created with Sketch.</desc>
    <defs>
        <polygon id="path-1" points="0 0.320596807 48.7836919 0.320596807 48.7836919 89.3825731 0 89.3825731"></polygon>
        <polygon id="path-3" points="0.0401398783 0.374922586 9.82753099 0.374922586 9.82753099 4.72308619 0.0401398783 4.72308619"></polygon>
    </defs>
    <g id="Page-2" stroke="none" stroke-width="1" fill="none" fill-rule="evenodd">
        <g id="jugo">
            <g id="Group-3" transform="translate(0.000000, 14.933333)">
                <mask id="mask-2" fill="white">
                    <use xlink:href="#path-1"></use>
                </mask>
                <g id="Clip-2"></g>
                <path d="M32.9984397,18.1102563 C32.9850316,18.5176827 32.866765,18.9345763 32.9822812,19.2743801 C33.2064376,19.9347152 33.5622687,20.5514337 33.858279,21.1755906 C34.6803005,20.4496616 35.9186617,18.5863197 36.0173318,17.8066306 C35.0230673,17.7525325 34.0611199,17.8032495 32.9984397,18.1102563 M43.0125939,3.52540498 C42.6498868,3.51864272 42.4033835,3.48990309 42.1623809,3.51357102 C39.0544451,3.8202397 35.9423837,4.09377328 32.8433867,4.46840272 C31.7054146,4.60601479 30.595634,4.97624875 29.4793212,5.26465932 C29.2200974,5.33160574 28.987346,5.49694309 28.6786152,5.64841781 C28.678959,6.4443363 28.6744896,7.20644347 28.6799904,7.96855064 C28.7040563,11.2225522 28.7281221,14.4765537 28.7587202,17.7308933 C28.7659399,18.5288405 28.7886306,19.3271257 28.8257608,20.1243967 C28.8353872,20.3252359 28.9289003,20.5220178 28.9773758,20.6954699 C29.9327911,20.8469446 30.1758564,20.7563303 30.249773,19.9343771 C30.4007004,18.2549688 30.488369,16.5674457 30.5285934,14.8816133 C30.5736309,13.0098186 30.5199984,11.1356571 30.5420015,9.262848 C30.5554096,8.14876498 31.1285212,7.34067442 32.1207229,6.82978536 C32.4504253,6.66005253 32.8035061,6.50722536 33.1638066,6.42709253 C34.8075059,6.06260649 36.4508613,5.69203442 38.1065935,5.39178989 C39.5185727,5.13583819 40.9480857,4.97827743 42.3676285,4.76357555 C42.603474,4.72773555 42.8293495,4.62427291 43.1167648,4.53433479 C43.0816974,4.19622158 43.0524745,3.91085404 43.0125939,3.52540498 M32.016552,24.2872465 C32.6343574,23.6150774 33.2201895,22.5226337 33.3020135,21.8349114 C31.2247847,23.6580178 28.7986008,23.8284269 26.2871548,23.0632767 C24.4705251,22.5097854 24.2020187,20.8405205 25.5909635,19.5502805 C25.7738641,19.3802095 25.9237601,19.1759891 26.2132382,18.8453144 C25.7607998,18.7864827 25.525298,18.7235937 25.2911714,18.7300178 C21.8573149,18.8229989 18.4231146,18.9153038 14.9902895,19.0397295 C14.6079859,19.0535922 14.1679242,19.1759891 13.8653818,19.3954246 C11.3260882,21.2361129 8.8112043,23.108922 6.2949452,24.9793642 C6.0649442,25.1501114 5.8741362,25.3722518 5.66510689,25.5703861 C5.69192315,25.6393612 5.71873941,25.7086744 5.74555567,25.7776495 C6.19696272,25.8009793 6.64974496,25.8625159 7.09874542,25.8415529 C11.0287027,25.6579574 14.9610667,25.5105401 18.8855232,25.2495167 C22.0006788,25.0422533 25.1038014,24.6703288 28.2162066,24.4133627 C29.4201879,24.3139574 30.6341394,24.3295106 32.016552,24.2872465 M32.2424274,82.7970608 C32.5044017,81.9027514 32.2444902,72.7527318 31.9044738,72.0602759 C31.8443091,72.0619665 31.7638603,72.0399891 31.7263863,72.0697431 C31.5094496,72.2411665 31.292513,72.4152948 31.0934538,72.6063288 C27.8459359,75.7247469 23.9280115,77.4173416 19.4232236,77.609728 C15.4860465,77.7777703 11.7255817,76.9493929 8.26009577,75.0184284 C7.63541442,74.6701718 7.00454471,74.3320586 6.36576764,74.0091605 C6.19008675,73.9202367 5.97693186,73.9040072 5.59531585,73.8073069 C5.80606415,78.1676148 5.9318943,82.4055257 6.23684331,86.7546759 C6.95125599,86.7543378 7.53433775,86.7888254 8.11191874,86.7475755 C11.4756404,86.5085295 14.8386745,86.2566352 18.201021,86.0003454 C22.0979737,85.7028057 25.9681101,85.2209944 29.7725811,84.3145129 C30.1280684,84.2299846 30.4973077,84.1102925 30.7984749,83.9152012 C31.2835742,83.6007559 31.7171038,83.2102352 32.2424274,82.7970608 M37.9962342,20.5575197 C37.8590588,20.501731 37.7218833,20.4459423 37.5847078,20.3901537 C37.4434067,20.6619967 37.3196394,20.9446593 37.1580542,21.2043303 C36.2129529,22.7234729 35.2609757,24.2385582 34.3065919,25.752291 C33.4103099,27.1730427 33.0486342,28.646202 33.2198457,30.3749748 C33.6289656,34.5057038 33.4690994,38.6584103 33.4058406,42.806045 C33.3119837,48.9542955 33.7207597,55.0849642 34.1673536,61.2146186 C34.428984,64.7979423 34.5867874,68.3890427 34.742528,71.9784525 C34.8638888,74.7709295 34.9054883,77.5664495 34.9945321,80.3599408 C35.0051898,80.7031257 35.0904518,81.0439438 35.1588676,81.5074971 C35.4204981,81.3168012 35.5697065,81.2528978 35.6522181,81.1409823 C36.8764835,79.4740842 38.1224082,77.8207106 39.2868527,76.1139152 C39.5577657,75.7166322 39.6499036,75.1303438 39.6433715,74.6333174 C39.616899,72.5758986 39.5636103,70.5171272 39.4422495,68.4630895 C39.1452079,63.4343318 38.7749372,58.4092933 38.4933665,53.3798593 C38.304965,50.0065038 38.1224082,46.6284148 38.1086563,43.2516782 C38.0897474,38.5224888 38.2558019,33.7929612 38.2912131,29.0630955 C38.3097782,26.576611 38.2248601,24.0894503 38.1695085,21.6029657 C38.161945,21.2533567 38.0563989,20.9061144 37.9962342,20.5575197 M4.13726765,41.5597597 C4.63027428,41.1719438 4.94313065,40.9464223 5.23226494,40.694528 C8.15008034,38.1539454 11.5619338,36.584762 15.4093795,36.1979605 C20.7093727,35.6647559 25.5699918,36.9526291 29.8134931,40.2279318 C30.0610278,40.4186276 30.3536001,40.5538729 30.6829587,40.7496405 C30.7589382,40.4879408 30.8184152,40.375011 30.8211656,40.2607288 C30.9133035,36.0819876 30.8521075,31.9083182 30.3821353,27.7491876 C30.3529125,27.4891786 30.2394591,27.2382986 30.1552285,26.949888 C29.8014601,26.9397446 29.5233274,26.9055952 29.2500078,26.9282488 C27.5076385,27.0726231 25.7645816,27.2088827 24.0253064,27.386054 C18.1212598,27.986205 12.2065554,28.4095227 6.26640995,28.419328 C5.58087632,28.4203423 4.8946551,28.4855982 4.21049666,28.5407106 C3.801033,28.5735076 3.39603871,28.6468782 3.17635165,29.1256465 C3.68723579,33.1461506 3.68242262,37.2532118 4.13726765,41.5597597 M4.96100815,58.0248586 C4.95378839,58.0251967 4.94588103,58.0255348 4.93866127,58.0258729 C5.10334061,61.9848405 5.28177188,65.9434699 5.42066636,69.9034518 C5.44713882,70.6544012 5.71839561,71.1821959 6.35579749,71.5815076 C8.86896239,73.1574533 11.4536373,74.563328 14.4206159,75.1573929 C21.0982085,76.4942925 26.7086515,74.7942593 31.1116751,69.563648 C31.7697049,68.7815922 32.0461186,67.9376616 31.9605129,66.9273793 C31.7810502,64.8155242 31.6101825,62.7016405 31.5025737,60.5853899 C31.2378491,55.371008 31.0040663,50.1552737 30.7764719,44.9392012 C30.7434672,44.1882518 30.7032428,43.5184495 30.0510576,42.9510955 C26.7017755,40.0379122 22.8357646,38.3223257 18.357793,38.1309537 C13.0333901,37.9030654 8.60630056,39.8249008 5.09405806,43.7757537 C4.50650692,44.4364269 4.27891251,45.1721612 4.33116984,46.0613989 C4.56564021,50.0477537 4.75541683,54.0368133 4.96100815,58.0248586 M1.03792679,28.7104435 C0.880811011,28.5467967 0.803112616,28.4524631 0.712006091,28.3730065 C-0.245815719,27.5334714 -0.247190912,26.8376344 0.768045199,26.0251484 C2.27009957,24.8221416 3.77971751,23.6272495 5.3168393,22.4685355 C7.72205157,20.6548963 10.1595809,18.8831831 12.5682311,17.0742774 C13.1726284,16.6205295 13.7969659,16.4443725 14.5653549,16.4768314 C15.6228782,16.5214623 16.6862461,16.4230714 17.7475511,16.3895982 C20.1204464,16.3145371 22.4936854,16.245562 24.8669244,16.1644148 C25.2633238,16.1508903 25.6583479,16.0893537 26.1307267,16.0423559 C26.1740452,15.5892842 26.2438363,15.2339272 26.2362727,14.8795846 C26.1774832,12.0228661 26.0949717,9.16648574 26.0389325,6.30976725 C25.9997395,4.31794234 26.5989798,3.420928 28.5603486,2.85222158 C30.0830309,2.41064574 31.6438747,2.02891592 33.2150326,1.83416272 C36.6863631,1.40408272 40.1752273,1.11465781 43.6551528,0.75186234 C44.1481594,0.700469132 44.6397908,0.590244226 45.116639,0.454322717 C46.5829383,0.0370910189 47.8934971,0.610531019 48.5278048,1.97414158 C49.3309174,3.70122385 48.1520333,5.99836498 46.2680192,6.4186397 C45.8203939,6.51838309 45.3978659,6.72226536 44.9591794,6.86461102 C44.6346339,6.96976423 44.3076818,7.08742762 43.9721347,7.14017328 C42.4298559,7.38226234 40.8807012,7.58445404 39.3404852,7.83837706 C37.7707026,8.09737177 36.2057332,8.38645857 34.6445455,8.69278913 C34.1948575,8.78103668 33.7664849,8.97511366 33.212626,9.15938536 C33.0909214,11.1752163 33.2497562,13.1521642 33.1156749,15.2149929 C33.5261699,15.2437325 33.7963953,15.2961401 34.0607762,15.2758533 C35.7756416,15.1426367 37.4843187,15.0817763 39.1984966,15.3353612 C40.2123575,15.4851454 40.6379797,15.8388118 40.7325242,16.8531514 C41.0814794,20.5889642 41.2588792,24.3312012 41.2021525,28.0845959 C41.1210162,33.4301657 40.9721515,38.7767499 41.0171891,44.1216435 C41.0501937,48.020765 41.3238571,51.9195484 41.5356368,55.815965 C41.8357726,61.3387061 42.1792271,66.8590805 42.4989594,72.3808072 C42.5309326,72.9329461 42.4680176,73.4955665 42.5508729,74.0379001 C42.8015018,75.6794397 42.1744139,77.0592797 41.2602544,78.3400525 C39.8967507,80.2503922 38.5342784,82.1637748 37.086888,84.0122397 C36.0276457,85.3646925 34.6039773,86.2089612 32.8540444,86.5234065 C26.2751219,87.7054503 19.6721335,88.6748208 12.97907,88.9639076 C10.8268932,89.0568888 8.67815439,89.2391318 6.527009,89.3743771 C6.27878669,89.3899303 6.02609501,89.3828299 5.7782165,89.3574714 C4.45906277,89.2229023 3.71886523,88.5388993 3.62363312,87.2351348 C3.47820648,85.2433099 3.38434957,83.2474276 3.29599343,81.2522216 C3.09246489,76.6474578 2.91437742,72.0416797 2.70844229,67.4369159 C2.3997115,60.5299393 2.10163845,53.6222865 1.74958909,46.7173386 C1.48211408,41.4694835 1.14209765,36.2256857 0.823740508,30.9805355 C0.775952557,30.1974654 0.406713281,29.4045899 1.03792679,28.7104435" id="Fill-1" fill="#FFFFFF" mask="url(#mask-2)"></path>
            </g>
            <path d="M101.707048,41.0985859 C101.453023,41.7703418 101.228029,42.2974224 101.409821,42.9780083 C101.758544,42.9749518 102.082037,42.9722348 102.391014,42.9695179 C102.74423,42.3653451 102.950906,41.8165293 102.725221,41.0941709 C102.393779,41.0955293 102.071669,41.0972274 101.707048,41.0985859 M55.5405344,109.415964 C55.7928312,107.957663 55.6445637,106.601246 55.2215345,106.180125 C54.7936668,106.715695 54.6260449,108.262296 54.8935487,109.363324 C55.0829441,109.378607 55.2875464,109.395248 55.5405344,109.415964 M66.0941443,43.773044 C66.2095787,43.0330257 66.3298517,42.4458336 65.9610837,41.7815491 C65.3372539,41.8661129 64.7154978,41.9503371 64.0018089,42.047127 C64.0280754,42.7032608 64.0488121,43.2300017 64.0733506,43.8501364 C64.8074306,43.822288 65.4125973,43.7991943 66.0941443,43.773044 M59.9792301,44.28654 C60.8484445,44.1877124 61.596349,44.102809 62.3404517,44.0182452 C62.4237442,43.3349423 62.5087648,42.7939376 62.1161495,42.1833121 C61.4819514,42.2787436 60.8235604,42.3779108 60.1261153,42.4828515 C60.0746191,43.114533 60.0331456,43.6225951 59.9792301,44.28654 M99.8977687,41.0846617 C98.8813236,41.0992651 98.0639511,41.1111516 97.1366739,41.1243965 C97.0806848,41.8240008 97.0340271,42.4050799 96.9776924,43.1111369 C97.9277799,43.0714021 98.7137017,43.0381199 99.4629887,43.0065358 C99.6119475,42.3466663 99.7298012,41.8260385 99.8977687,41.0846617 M92.5780508,43.1749842 C93.6121221,43.1603809 94.4073755,43.1491736 95.3018195,43.1366079 C95.3564262,42.4363244 95.4027382,41.8453965 95.4597642,41.1162458 C94.5801815,41.0697187 93.8250191,41.0296443 92.9302295,40.9820984 C92.8127214,41.7153244 92.7104203,42.3521002 92.5780508,43.1749842 M90.2344555,108.187581 C90.1705172,107.205418 90.1186754,106.400534 90.0613038,105.514821 C89.3396658,105.531802 88.7628393,105.545387 88.1345166,105.56033 C88.0090594,106.517361 87.8832566,107.349415 88.1410832,108.28573 C88.8215934,108.253806 89.4305618,108.225278 90.2344555,108.187581 M90.8510274,43.1597016 C91.0860436,42.3653451 91.24779,41.7231355 91.0666893,40.9773438 C90.1936732,40.8296118 89.3465781,40.7912354 88.4849672,40.958665 C88.2658492,41.7071737 88.0823292,42.3731562 88.3691872,43.1563055 C89.1952,43.1573243 89.9959831,43.1583432 90.8510274,43.1597016 M78.2531222,40.934892 C78.068911,41.8100766 77.8542859,42.5018698 78.1069283,43.3223766 C78.9844373,43.2782268 79.8367166,43.2354355 80.7695236,43.1882292 C80.8282776,42.3891181 80.8783914,41.7054756 80.9395647,40.8703654 C79.9839474,40.8934592 79.1669205,40.9131568 78.2531222,40.934892 M57.1704409,106.097259 C57.2298862,107.285228 57.2810368,108.310861 57.3377172,109.443133 C58.0673042,109.41087 58.6662499,109.38438 59.2219941,109.359588 C59.5337362,108.043585 59.6097708,106.665433 59.4062053,105.988243 C58.7212022,106.021525 58.0161536,106.055826 57.1704409,106.097259 M67.8567658,109.05937 C68.0226596,107.93355 68.0948925,106.917086 67.9981211,105.854435 C67.1983748,105.804851 66.4950543,105.706024 65.8311335,105.966168 C65.5912788,107.041725 65.5757262,108.332257 65.8204196,109.123896 C66.4553089,109.103859 67.1237226,109.082803 67.8567658,109.05937 M82.0717898,105.624177 C81.1928984,105.632328 80.4391185,105.63946 79.5605726,105.647271 C79.5132238,106.739468 79.4714047,107.699217 79.4226734,108.816546 C80.3371629,108.765944 81.0885235,108.724171 81.944259,108.676625 C81.9888429,107.612955 82.0275515,106.681394 82.0717898,105.624177 M83.6166757,108.561496 C84.6362313,108.485083 85.4307934,108.425311 86.294478,108.360445 C86.410258,107.401715 86.4835278,106.541813 86.3269655,105.564065 C85.4276829,105.591914 84.6099648,105.617724 83.6954753,105.646252 C83.6685175,106.652527 83.6446703,107.521259 83.6166757,108.561496 M76.4960305,41.0075694 C75.2815497,41.0707375 74.2720169,41.1233777 73.1394461,41.1824705 C73.0976271,42.0097695 73.0616834,42.7168453 73.0195188,43.5539932 C74.172135,43.4989757 75.1747556,43.4510902 76.2551389,43.3994689 C76.3373945,42.5850752 76.4061713,41.9007535 76.4960305,41.0075694 M67.8394852,43.7312715 C69.0978587,43.687801 70.1744403,43.6504435 71.2575885,43.613086 C71.4469839,42.8098995 71.5492851,42.1327097 71.2994075,41.3604281 C70.161307,41.3108444 69.0667536,41.4500861 67.8384484,41.6402698 C67.838794,42.3194972 67.8391396,42.9403112 67.8394852,43.7312715 M95.0934154,105.317506 C93.8906854,105.387806 92.8562685,105.448257 91.7074541,105.5155 C91.7741572,106.435514 91.8298007,107.21255 91.8902828,108.048679 C92.9589153,108.097584 93.872368,108.022529 94.8857026,107.750838 C94.9517145,106.97516 95.0156527,106.230727 95.0934154,105.317506 M77.7167323,108.9096 C77.8342404,107.786158 77.9375784,106.769354 77.8615437,105.607536 C76.9270087,105.631648 76.0771487,105.653384 75.1229138,105.678175 C75.0437686,106.809768 74.9736093,107.804157 74.8948098,108.930317 C75.8756568,108.923185 76.7065082,108.917072 77.7167323,108.9096 M86.6978073,40.9134964 C85.3181239,40.7582929 84.0604416,40.7762924 82.7823682,40.8829311 C82.4336457,41.6202326 82.3887161,42.3269687 82.5566835,43.1780408 C83.8662076,43.1630978 85.154995,43.1481548 86.5298398,43.1321929 C86.5899763,42.3391948 86.6393988,41.6823819 86.6978073,40.9134964 M63.8673658,109.157858 C64.0377525,108.052755 64.1144784,107.039008 64.0215088,105.904698 C63.0914667,105.923037 62.2371137,105.940018 61.4231973,105.956319 C61.0506275,107.134779 60.9700999,108.53127 61.2396773,109.294383 C62.0670726,109.251591 62.922808,109.207102 63.8673658,109.157858 M73.4902424,105.757985 C72.1430466,105.710778 70.9555235,105.670704 69.7209973,105.860208 C69.66328,106.94867 69.5212335,107.939663 69.6992237,109.036616 C70.9019537,109.063785 72.0310683,109.090614 73.2310333,108.939826 C73.3191644,107.860533 73.3983096,106.890936 73.4902424,105.757985 M55.7634542,104.35572 C56.3385527,104.3907 56.7062839,104.439604 57.0726327,104.430774 C63.758498,104.272514 70.4443633,104.085387 77.1312654,103.950221 C82.4364106,103.842903 87.7429381,103.799432 93.0487745,103.720302 C93.5388524,103.712831 94.028239,103.65204 94.492396,103.618079 C94.5456203,103.426197 94.5936604,103.338576 94.5902043,103.252994 C94.547694,102.175399 94.5079486,101.097465 94.4481577,100.02089 C93.9788165,91.5492252 94.4509226,83.1159369 95.547204,74.7115158 C96.2875051,69.0365703 97.5700714,63.4706407 99.150901,57.9688982 C100.003526,54.9999949 100.880689,52.0372047 101.724328,49.0655845 C102.027085,47.9985181 102.285948,46.9175276 102.514398,45.8328013 C102.584557,45.4999799 102.48744,45.1328574 102.462901,44.7158118 C102.011186,44.6859258 101.673523,44.6400779 101.336897,44.6451721 C100.143844,44.6635113 98.9511372,44.7175098 97.7580844,44.7249813 C93.3311395,44.75249 88.9024666,44.7107176 84.4769042,44.8013944 C79.956644,44.8937694 75.4388032,45.0978772 70.9213079,45.279231 C68.0672436,45.3933412 65.2149072,45.5509219 62.3625709,45.7023897 C62.0297465,45.71971 61.701415,45.8212545 61.4428972,45.8701589 C61.0115734,46.5296887 61.1135289,47.1464273 61.1653707,47.7614678 C61.2870262,49.2051657 61.4480814,50.6478449 61.505453,52.0939202 C61.7104009,57.2821992 61.4100641,62.4602899 61.1149114,67.6373617 C60.6414228,75.9348045 59.7597665,84.186739 58.1499055,92.3513929 C57.4514235,95.8935641 56.6779437,99.4218112 55.9476654,102.958209 C55.8629905,103.365406 55.836724,103.784489 55.7634542,104.35572 M51.7401842,111.988878 C51.2594379,111.377573 51.3095516,110.812796 51.3427304,110.261942 C51.5286697,107.209833 51.8165645,104.181837 52.6494896,101.2075 C55.6791249,90.3833313 57.0709046,79.3085273 57.756599,68.13116 C58.142302,61.8432117 58.4098058,55.5542445 58.1170723,49.2537305 C58.0800919,48.4532609 57.9677679,47.7995045 57.2312686,47.2513679 C56.513778,46.7168159 56.2013447,45.8677816 56.2753057,44.9406361 C56.3610175,43.8660982 56.4515678,42.7915603 56.5490304,41.6049499 C56.8963706,41.4545011 57.2419826,41.2300164 57.6190454,41.1536033 C59.952618,40.6805214 62.2799696,40.1486862 64.6356614,39.8179025 C66.7114074,39.5265139 68.8203322,39.4388935 70.9175062,39.3196891 C75.0524089,39.085016 79.1876572,38.837098 83.3256704,38.693781 C87.8120605,38.5385775 92.3029436,38.4961258 96.7851864,38.8411734 C99.5376409,39.0527527 102.286639,39.303048 105.036329,39.5441738 C105.315583,39.568626 105.596566,39.6294168 105.865106,39.7102449 C106.286753,39.8365812 106.433638,40.1310263 106.395275,40.5653923 C106.261869,42.096371 106.247699,43.6453493 106.001623,45.1579889 C105.730318,46.8248131 105.320422,48.4777131 104.853846,50.1044629 C103.184885,55.9271404 101.420535,61.7233281 100.152485,67.6506066 C98.5374396,75.1995407 97.8057789,82.8456044 97.6557832,90.5419309 C97.5863152,94.1163654 97.7881526,97.6969131 97.9025502,101.273725 C97.9229413,101.913218 98.1800767,102.54388 98.2198221,103.185071 C98.3148654,104.719446 98.359795,106.257557 98.3922825,107.794648 C98.4019597,108.251429 98.3024234,108.710247 98.2460886,109.232233 C97.6948374,109.738937 96.9863327,110.003836 96.1741443,110.033382 C93.4472652,110.133568 90.7200404,110.238509 87.9928156,110.339374 C82.3189025,110.549595 76.6436068,110.732307 70.9710761,110.975131 C66.0803198,111.184673 61.1919828,111.455345 56.3036459,111.71413 C55.1133579,111.776959 53.9265261,111.904654 52.737275,111.989218 C52.4003033,112.01299 52.060221,111.990236 51.7401842,111.988878" id="Fill-4" fill="#FFFFFF"></path>
            <path d="M106.40607,65.5990744 C106.314463,66.7656586 107.515767,67.5561235 108.605685,67.0380209 C110.872269,65.959835 113.135384,64.873799 115.400581,63.7928826 C116.260787,63.3826327 116.606396,62.6744226 116.312489,61.9126274 C116.007132,61.1231864 115.188219,60.7590128 114.278392,61.1139712 C113.196456,61.5365081 112.147831,62.0416411 111.089143,62.5211762 C109.887839,63.0659007 108.67786,63.5939012 107.498764,64.1826542 C106.772499,64.5454626 106.449792,65.0434281 106.40607,65.5990744" id="Fill-6" fill="#FFFFFF"></path>
            <path d="M111.025631,87.1100273 C112.127768,87.1452352 112.828923,86.3173372 112.624728,85.3998813 C112.528428,84.9681574 112.301688,84.5275461 112.026637,84.1894821 C110.617563,82.4574593 109.173706,80.7572261 107.741766,79.0463964 C107.128859,78.314551 106.266345,78.1904688 105.65376,78.7442239 C105.051482,79.2890916 104.959691,80.1798852 105.535559,80.897374 C106.782952,82.4509646 108.078011,83.9611436 109.352135,85.4904646 C109.640069,85.8360488 109.895474,86.2195755 110.216259,86.5261917 C110.503871,86.8010183 110.860407,86.9941489 111.025631,87.1100273" id="Fill-8" fill="#FFFFFF"></path>
            <path d="M6.29325439,19.9111111 C6.69040241,19.9752886 7.16017932,20.0724513 7.63424795,20.1244387 C9.47869182,20.3277273 11.3254466,20.5112965 13.1702206,20.7149437 C13.4954,20.7507971 13.827182,20.8095966 14.1348644,20.9250445 C14.7492389,21.1552231 15.0978576,21.7998667 15.0070715,22.4491713 C14.9123238,23.1246488 14.4385853,23.5893085 13.7710597,23.6409373 C13.5941093,23.6545616 13.4131973,23.6255204 13.2352565,23.6047254 C11.2432439,23.3706029 9.25057105,23.1414999 7.25987899,22.8937531 C6.78647063,22.834595 6.30447885,22.7643224 5.85450982,22.605492 C5.24739826,22.3914473 4.94961978,21.813491 5.01630631,21.164545 C5.08431337,20.5016161 5.57125712,19.9964421 6.29325439,19.9111111" id="Fill-10" fill="#FFFFFF"></path>
            <g id="Group-14" transform="translate(108.904694, 70.933333)">
                <mask id="mask-4" fill="white">
                    <use xlink:href="#path-3"></use>
                </mask>
                <g id="Clip-13"></g>
                <path d="M0.0463157895,1.83124786 C-0.0295061979,2.76400684 0.601389961,3.56466325 1.46726275,3.69944615 C3.64356838,4.03755214 5.82023166,4.37336068 7.99725259,4.70380855 C8.87671611,4.83744274 9.64995733,4.26346667 9.8030319,3.38048547 C9.94573461,2.56030085 9.45432229,1.72211966 8.61133916,1.51113846 C7.6360252,1.26684444 6.64390165,1.08802735 5.65285105,0.925675214 C4.37424914,0.716225641 3.09278602,0.50562735 1.80524284,0.384246154 C0.951887828,0.303452991 0.38250762,0.753750427 0.135013209,1.50156581 C0.0920951026,1.63137094 0.0634830319,1.76691966 0.0463157895,1.83124786" id="Fill-12" fill="#FFFFFF" mask="url(#mask-4)"></path>
            </g>
            <path d="M18.769937,13.3930096 C18.8528803,14.3271172 18.15885,14.9993224 17.2847546,14.9281716 C17.0656991,14.9105533 16.8257305,14.860409 16.6421208,14.7519888 C14.7011044,13.6051066 12.7671772,12.4473823 10.8399847,11.2798325 C10.6276639,11.1514223 10.4433454,10.9603318 10.2919914,10.7658531 C9.89641543,10.2572947 9.93079793,9.60880644 10.3476415,9.1490371 C10.7425086,8.71433993 11.3486331,8.59101198 11.9292366,8.83427976 C12.046208,8.88340766 12.1653062,8.94100588 12.2627824,9.01859407 C13.9546142,10.3741852 15.9495083,11.2618754 17.8412549,12.3067749 C18.3460042,12.5859569 18.7203127,12.9217206 18.769937,13.3930096" id="Fill-15" fill="#FFFFFF"></path>
            <path d="M36.0607529,0.0172031128 C36.8854559,-0.0968314003 37.4603617,0.367020752 37.5421811,1.08342581 C37.5657352,1.29002952 37.550859,1.51172603 37.5083996,1.71531117 C37.1185175,3.58245863 36.7205773,5.44759371 36.319228,7.312058 C36.2745992,7.51765552 36.211685,7.72392383 36.1249068,7.91241617 C35.8224227,8.56878541 35.2524757,8.84816997 34.6626937,8.6469326 C34.0295226,8.43093781 33.6805502,7.82118856 33.8339617,7.07526869 C34.1085528,5.74072949 34.4181651,4.41491057 34.7200293,3.08707929 C34.880569,2.37905912 35.048237,1.67238053 35.2264422,0.969055902 C35.3649775,0.421019448 35.6928752,0.0822698645 36.0607529,0.0172031128" id="Fill-17" fill="#FFFFFF"></path>
            <path d="M26.2314099,6.78858462 C26.2485951,6.97747357 26.2851528,7.16671103 26.2792161,7.35455448 C26.256719,8.08606356 25.8111533,8.62903218 25.1887361,8.70291495 C24.6025641,8.77261567 24.0420137,8.39344374 23.8910963,7.73024137 C23.4302201,5.70717791 22.9809049,3.68062942 22.5681473,1.64467133 C22.4072312,0.848340583 22.7990541,0.210927481 23.4374067,0.0422517333 C24.0841956,-0.128863539 24.6856781,0.225216129 24.885339,1.00551571 C25.3762112,2.92054305 25.8227143,4.84985903 26.28734,6.77359896 C26.2685925,6.77847801 26.2501574,6.78370557 26.2314099,6.78858462" id="Fill-19" fill="#FFFFFF"></path>
            <path d="M12.740233,73.5728785 C13.2568338,78.4517396 17.1116024,81.9089725 21.2725556,81.9493215 C22.4238374,81.9604174 23.4930809,81.6614989 24.419873,80.962117 C27.9107898,78.3276665 28.2986695,73.1280313 25.2670296,69.9939262 C23.4862157,68.1530051 21.2626012,67.5218802 18.7585463,67.5212078 C17.6203083,67.5208715 16.6114779,67.8033142 15.7155789,68.4979887 C15.450585,68.7034321 15.1193426,68.825824 14.8443943,69.0215164 C14.5272255,69.2474705 14.1620007,69.4616562 13.9515846,69.7689808 C12.9969887,71.1663996 12.6561352,72.7252142 12.740233,73.5728785 M23.866887,67.2559134 C24.5547727,66.8393104 24.9206839,66.2629928 25.1376219,65.6244706 C25.9504529,63.2344676 25.5550216,60.7876397 23.6746635,59.0156481 C22.5487827,57.9541344 21.1798764,57.4420389 19.5614228,57.7298614 C19.192079,57.7954285 18.7709035,57.6851413 18.3936648,57.5842689 C16.2493425,57.0103051 14.1520463,56.8784985 12.1560107,58.083251 C9.21430397,59.858605 7.84230841,63.9775608 9.16968064,67.1109934 C9.67838653,68.311711 10.6182224,69.1223888 11.7595497,69.8392552 C12.0828971,69.430722 12.371919,69.07666 12.6482403,68.7138556 C13.4003149,67.7276599 14.340494,67.1083035 15.5988717,66.7760971 C18.2258124,66.0817588 20.7696851,66.0871387 23.2933057,67.1197357 C23.4615013,67.1886651 23.6520085,67.2061497 23.866887,67.2559134 M14.3947285,80.4688511 L14.4239053,80.491043 C14.3044521,80.2822372 14.2165785,80.0461958 14.0600536,79.8683241 C12.7913782,78.425849 11.9401025,76.7893626 11.587235,74.9094376 C11.5584015,74.7561116 11.4509622,74.6169077 11.3459258,74.401377 C10.0604308,77.9090461 11.5158377,81.5673514 14.4935864,83.5612622 C16.9461528,85.2034647 22.0369875,84.8073724 23.6623062,83.0047829 C23.6128773,82.9772111 23.5624186,82.9250937 23.5140195,82.9267749 C23.3592109,82.9314823 23.202686,82.9442594 23.0509667,82.9751936 C20.1559428,83.5716857 17.6422767,82.7246939 15.3424593,81.040125 C15.0469156,80.8232494 14.7115541,80.6581549 14.3947285,80.4688511 M25.1022665,68.0834032 C25.3799609,68.361811 25.6078831,68.6072671 25.8539979,68.8338937 C27.120957,69.9986336 27.8270353,71.4643094 28.3656045,73.0587655 C29.3198571,75.8845373 28.5255619,78.5179791 27.39007,81.042815 C26.6637396,82.6577819 25.2426584,83.8211767 23.6396513,84.6473216 C21.0329627,85.9902693 18.2766144,86.2158872 15.4694641,85.3638518 C12.2088722,84.3742937 9.67220791,80.7902977 9.6306739,77.2641353 C9.60767572,75.3062023 9.97701954,73.437037 10.8361901,71.6650454 C10.9295559,71.4720429 11.0157132,71.2746693 11.087797,71.0732607 C11.1166306,70.9925628 11.0994677,70.8957253 11.1046166,70.7656 C10.8289818,70.5934444 10.532065,70.4310399 10.2608925,70.2350112 C8.78523355,69.1691263 7.88555871,67.7659914 7.62125133,65.9694542 C7.36621188,64.2347854 7.55054053,62.5572776 8.19277312,60.9268436 C9.44085315,57.7594506 12.6252421,55.7789895 16.0766846,56.0197382 C16.3873315,56.0415939 16.7007246,56.0600872 17.0069092,56.1138858 C18.256019,56.3334513 19.5010097,56.4692928 20.778953,56.5399035 C23.2909029,56.6787711 25.0875065,58.1030892 26.0640708,60.3552334 C27.146358,62.849135 27.0272481,65.2986528 25.3758418,67.5763513 C25.2883115,67.6967257 25.2323607,67.8396283 25.1022665,68.0834032" id="Fill-21" fill="#FFFFFF"></path>
            <path d="M68.1275738,84.8026713 C68.5015521,85.6539125 69.113699,85.8944414 69.6974129,86.1299141 C71.4398573,86.8323597 73.219432,86.8114127 74.9779327,86.2407886 C77.2596016,85.500783 78.7381204,83.8033568 79.5867634,81.4439344 C79.7035062,81.1188954 79.6616929,80.7274039 79.7025027,80.264765 C79.4295453,80.3539701 79.3064469,80.3680551 79.2107781,80.430896 C79.0037186,80.5666901 78.8000041,80.7133188 78.6140185,80.8798111 C77.7573473,81.6465421 76.8280882,82.2240281 75.6750443,82.2431693 C73.7148361,83.2627085 71.5867057,83.6953716 69.5084167,84.3046393 C69.0772378,84.4310433 68.6591047,84.6090925 68.1275738,84.8026713 M77.6245482,79.4048561 C78.0410088,79.1379629 78.4404096,78.8309816 78.8779441,78.6124831 C80.0189458,78.0436647 81.1763383,78.6540159 81.3315494,80.0000387 C81.4141725,80.7169304 81.3502817,81.5407238 81.0963913,82.2016366 C79.694809,85.8489359 77.1468729,87.9086001 73.4863682,88.2903404 C71.7670047,88.4698342 70.0707222,88.3091204 68.5236296,87.4253754 C67.8706728,87.0523027 67.2324344,86.5347683 66.7668014,85.9236949 C66.0081406,84.9297977 66.3021718,83.7910776 67.3993532,83.2670424 C68.1158661,82.9246679 68.8889107,82.7126702 69.6475714,82.4840594 C70.6119537,82.1936912 71.5954028,81.9773596 72.5547675,81.6711006 C73.9225646,81.2344648 75.2706259,80.7620747 76.3460643,79.6399677 C76.5972787,79.3781306 77.1150948,79.4146072 77.5104815,79.313484 C77.5482807,79.343821 77.58608,79.3745191 77.6245482,79.4048561" id="Fill-23" fill="#FFFFFF"></path>
            <path d="M80.2910503,92.9136317 C80.8660355,93.4979821 81.7257153,93.8849737 82.8113321,94.1009445 C84.6723395,94.4707288 87.0243926,93.5267782 88.0054348,92.016387 C88.429329,91.3632069 88.4342255,90.8747265 88.0215232,90.4585876 C87.5794422,90.012599 86.93101,89.9216454 86.3605715,90.2552589 C86.1440777,90.3816809 85.9531155,90.5579693 85.7677492,90.7296924 C84.4883722,91.9163029 82.9799104,92.5810717 81.2497087,92.7538484 C80.9527729,92.783698 80.6589849,92.8514742 80.2910503,92.9136317 M82.0216018,95.6211685 C80.9450785,95.2706988 79.694031,94.8984564 78.648985,94.0686367 C78.4503283,93.9109604 78.2565681,93.7420467 78.086241,93.5545208 C77.2856685,92.6723765 77.5102065,91.7751318 78.644788,91.4499464 C79.1893451,91.2936748 79.766079,91.2020189 80.3319708,91.1798951 C82.1601019,91.1072024 83.6895485,90.4371661 85.0346781,89.1736489 C86.4329693,87.8599141 88.6129465,88.1794807 89.6943664,89.7664274 C90.1752694,90.4719321 90.2574601,91.2638252 89.934643,92.0462366 C89.7436808,92.5104861 89.4754243,92.9627958 89.1557549,93.3490851 C87.5108916,95.336368 84.6761867,96.2617064 82.0216018,95.6211685" id="Fill-25" fill="#FFFFFF"></path>
            <path d="M88.9860607,86.64901 C89.0212847,86.5702407 89.0571492,86.4918199 89.0923732,86.4133991 C88.6671233,85.9494966 88.2172166,85.5085976 87.8236683,85.014721 C87.4269178,84.5170104 87.0647509,83.9816579 86.7272408,83.4341066 C86.4073428,82.9151353 86.1393201,82.3588706 85.8485618,81.8189871 C85.859129,83.2762194 86.4041406,84.5041145 87.0772394,85.6246603 C87.4813549,86.2969878 88.2575641,86.5332958 88.9860607,86.64901 M88.4122295,88.2554161 C87.1765071,87.8375204 85.9920196,87.1435837 85.1296718,85.9069751 C84.7553366,85.3695314 84.461056,84.8136152 84.5068472,84.0883102 C84.5254198,83.7896141 84.3797205,83.4797649 84.3169577,83.1730525 C84.1722191,82.4651743 84.003464,81.7607814 83.9019548,81.0448869 C83.844956,80.6461608 83.8702532,80.2237342 83.9166849,79.81978 C83.9832903,79.2391177 84.1491633,78.6859898 84.7300393,78.4747765 C85.3381339,78.2538042 85.8331914,78.5469237 86.1947178,79.0345266 C86.5744967,79.5461786 86.9568374,80.0912902 87.1886754,80.6900764 C87.8797065,82.476676 88.8711023,83.9959479 90.2432377,85.2346477 C90.5743435,85.5336922 90.8702252,85.9003529 91.1145517,86.2868803 C91.5932781,87.0435536 91.4168378,87.6559328 90.6431904,88.0466425 C89.9598445,88.391694 89.2425556,88.4265476 88.4122295,88.2554161" id="Fill-27" fill="#FFFFFF"></path>
            <path d="M87.0860022,64.769663 C86.4517547,65.1486276 86.3251036,65.4181355 86.4438183,66.0318861 C86.5711308,66.6896178 86.9639806,67.1089259 87.5337452,67.1949039 C88.3802904,67.3228788 89.2622185,66.8000665 89.4731935,65.9426013 C89.5833105,65.4938623 89.6067889,64.97105 89.4890662,64.5299167 C89.2890037,63.7825695 88.9735334,63.0613464 88.6557483,62.352028 C88.3373018,61.6407254 87.9037781,60.9783642 87.6157543,60.2564797 C87.0631852,58.8735567 87.5598691,57.3576985 88.7721482,56.5101539 C90.1758921,55.5290127 91.9238756,56.0118122 92.5025686,57.5405671 C92.9843718,58.8127108 92.0571403,60.4304198 90.709943,60.6466875 C90.510542,60.6787639 90.269475,60.6843856 90.0991739,60.5987383 C89.9381319,60.5177205 89.7598945,60.3077358 89.7466672,60.1420628 C89.7337706,59.9803581 89.8852229,59.7597914 90.0280774,59.6437211 C90.1828364,59.5183917 90.4202659,59.5015268 90.6064397,59.4076123 C91.0713782,59.1728263 91.3517962,58.798822 91.3451826,58.264105 C91.339561,57.8411594 91.1428054,57.500885 90.7489635,57.3322358 C90.2519489,57.119275 89.8038752,57.286932 89.4110253,57.6086882 C88.7268448,58.1695292 88.4821404,59.0342694 88.839938,59.8887584 C89.1289538,60.5785665 89.5075843,61.2319993 89.859099,61.8950219 C90.3696716,62.8586368 90.7790555,63.858627 90.870985,64.954185 C91.0426088,66.995501 89.5343696,68.5424436 87.5525941,68.4396007 C85.4593789,68.3304748 84.5883632,65.8420732 85.4514425,64.3956588 C86.1015627,63.305061 87.808211,63.2409082 88.5102483,64.2795885 C88.7251914,64.5980377 88.8657312,64.9445952 88.5135551,65.2471716 C88.2106507,65.5077511 87.9060928,65.3982945 87.6240213,65.1575561 C87.4484293,65.007756 87.2490283,64.886064 87.0860022,64.769663" id="Fill-29" fill="#FFFFFF"></path>
            <path d="M75.1372633,91.5115958 C74.3055825,91.5683757 73.4481265,91.4526734 72.7123295,91.9186966 C72.3140163,92.1711705 71.9352923,92.280445 71.4861159,92.2304501 C71.195715,92.1983106 70.8819445,92.1258181 70.645156,92.4425711 C72.1335897,93.3324791 74.2100423,92.9346631 75.1372633,91.5115958 M70.0495764,94.2384569 C69.490082,93.9974104 68.41199,93.5735256 67.3706707,93.0667923 C66.8039593,92.7911065 66.2369042,92.3747209 66.3616563,91.5958729 C66.4901888,90.7916702 67.1706549,90.6573984 67.8006015,90.6209736 C70.3581918,90.4720604 72.87626,90.0174645 75.4053257,89.6435746 C75.6816361,89.6025074 75.9675694,89.587509 76.2452545,89.6114351 C77.4291968,89.7132102 77.9649779,90.6845385 77.3587445,91.7469287 C76.6356634,93.0139406 75.5788789,93.9102766 74.2011069,94.3348755 C73.0054798,94.7034089 71.7964497,94.6377014 70.0495764,94.2384569" id="Fill-31" fill="#FFFFFF"></path>
            <path d="M67.0801786,76.2986465 C68.4644275,77.9557004 72.0838979,78.5603977 73.4986399,77.4291822 C73.1355582,77.4026693 72.8295626,77.2983174 72.5884537,77.3771762 C71.7782568,77.6429846 71.2190969,77.3615404 70.7939651,76.7017779 C69.6118223,76.5372622 68.4580452,76.3088437 67.0801786,76.2986465 M69.6423155,79.5257379 C68.6743341,79.1222665 67.6570672,78.7983336 66.7564544,78.2864314 C66.1792113,77.9577399 65.6399074,77.4210244 65.3197289,76.8550767 C64.7024192,75.7649901 65.4026988,74.7010765 66.6958226,74.6687851 C67.3971659,74.6511099 68.1041824,74.7476439 68.8048165,74.8241233 C69.7937177,74.9322142 70.7843917,75.040985 71.764074,75.2048209 C72.4168409,75.3139315 73.0515247,75.5205959 73.6947182,75.6810327 C73.9422094,75.7425561 74.1914735,75.7966016 74.4400284,75.8537062 C74.7204948,75.9182888 75.0115984,75.9556788 75.2800093,76.051533 C76.522784,76.4954535 76.7266628,77.5015827 75.7076231,78.3078457 C74.3205377,79.4057501 72.678515,79.7361412 70.9209019,79.6236315 C70.5064073,79.5967787 70.0961675,79.5060232 69.684155,79.4444997 C69.6699721,79.4716924 69.6561438,79.4988851 69.6423155,79.5257379" id="Fill-33" fill="#FFFFFF"></path>
            <path d="M67.4426943,57.446602 C66.8097468,57.6448379 66.5648252,58.1405999 66.3450955,58.6153316 C65.4833213,60.4784037 65.1229367,62.4266311 65.4381858,64.4700117 C65.559247,65.2560599 65.8129159,65.9945315 66.365389,66.5961341 C66.8954694,67.1725695 67.4213511,67.1484364 67.8394673,66.4968438 C68.0560479,66.158981 68.1729105,65.757338 68.3265114,65.3815518 C68.4332272,65.1212595 68.4976066,64.8395922 68.6323135,64.5958483 C68.8020092,64.2903928 69.1204073,64.1238747 69.433907,64.2907375 C69.6480384,64.4045077 69.8716169,64.6806588 69.9059059,64.9106124 C70.0591569,65.943852 68.9269192,67.8227831 67.9493321,68.2492487 C67.1386416,68.6029704 66.3972289,68.4643777 65.7226448,67.9272447 C64.7601028,67.1611925 64.2671106,66.1265738 64.0354847,64.959568 C63.6541068,63.039266 63.8465452,61.1517161 64.4917387,59.3162246 C64.7394594,58.6129183 65.0431622,57.9058197 65.4521813,57.284221 C66.5928163,55.5514674 68.4076854,55.5790481 69.5154309,57.3252472 C70.133683,58.3005676 70.1763693,59.3989665 70.0280168,60.5056396 C69.9772831,60.8803916 69.7477565,61.1606798 69.3278909,61.1330992 C68.8688378,61.1027605 68.6861963,60.7876517 68.6603046,60.3622203 C68.6284647,59.8319825 68.6312638,59.2958839 68.5455413,58.7739203 C68.4265794,58.04786 68.2054501,57.8182512 67.4426943,57.446602" id="Fill-35" fill="#FFFFFF"></path>
            <path d="M64.2503179,86.37872 C64.2875911,85.803901 64.293615,85.2261475 64.3696674,84.6552409 C64.4472258,84.0703144 64.5485035,83.4821275 64.7224452,82.9148074 C64.8881039,82.3738971 65.1614408,81.8580924 65.4287537,81.2340404 C63.265778,81.840812 62.5127838,84.9933506 64.2503179,86.37872 M67.5028761,81.4358628 C67.4004689,81.6311644 67.2705774,81.9396039 67.0860939,82.2209816 C66.424965,83.2297679 66.2141266,84.3236522 66.2062202,85.4648131 C66.2028317,85.9962681 66.2175151,86.5352221 66.1215084,87.0568957 C65.9230944,88.1377382 64.9528614,88.625829 63.782332,88.2055557 C63.2981567,88.0317732 62.8354418,87.7230077 62.4830406,87.3822896 C61.5406684,86.4722952 61.2797559,85.3441761 61.3471489,84.1576948 C61.4216953,82.840469 62.0368915,81.7015903 62.9849112,80.6869352 C63.9393313,79.6651071 65.2254453,79.5216468 66.5992832,79.7218391 C67.3997159,79.8385635 67.7878844,80.5702107 67.5028761,81.4358628" id="Fill-37" fill="#FFFFFF"></path>
            <path d="M74.344812,64.3195303 C73.8015636,64.3422004 73.3538169,64.3609841 72.797486,64.3843019 C72.7709941,65.0465907 72.7507163,65.596501 72.7265138,66.1464113 C72.6934806,66.8916078 72.4982251,67.193767 72.0517867,67.1999203 C71.5739505,67.2060736 71.3165534,66.8563073 71.3551466,66.0855261 C71.4810651,63.587612 71.6321673,61.0909934 71.7885025,58.5950225 C71.8064909,58.3074369 71.8535877,57.9835793 72.0066523,57.754288 C72.1273378,57.5735755 72.4517824,57.3983685 72.6486732,57.4320497 C72.8439287,57.465407 73.0581537,57.7374475 73.1441708,57.9518412 C73.2239737,58.1519852 73.1530014,58.4143099 73.1363213,58.6481352 C73.0568455,59.7343537 72.9649413,60.8192768 72.8969126,61.9061431 C72.8759807,62.2458698 72.9158821,62.5891589 72.9322352,63.0509799 C73.4833331,63.0163271 73.9343504,62.9878277 74.38733,62.9593282 C74.4867566,62.5172625 74.5940326,62.1830414 74.6326258,61.8410477 C74.7644314,60.6712739 74.8632039,59.4979376 74.9927201,58.3278399 C75.0784101,57.5560872 75.3423484,57.2199229 75.790095,57.2458315 C76.2532135,57.2730356 76.4118382,57.6318699 76.3431553,58.4334175 C76.1348174,60.8668839 75.9330207,63.3013219 75.7282805,65.7351121 C75.7138898,65.9109668 75.7119274,66.0897362 75.6756236,66.2610569 C75.5987643,66.6241014 75.3675321,66.8346088 74.9861789,66.8180921 C74.5946867,66.8012515 74.4017207,66.5411938 74.3663981,66.1855981 C74.3379438,65.8944501 74.3706499,65.5981203 74.3686875,65.3040576 C74.3667251,65.0200344 74.355278,64.7363351 74.344812,64.3195303" id="Fill-39" fill="#FFFFFF"></path>
            <path d="M90.4712924,78.3383043 C91.3877338,76.497444 90.489361,74.0423902 88.0410603,74.0214009 C88.8519809,75.461401 89.6238732,76.8329279 90.4712924,78.3383043 M92.6315789,78.3943903 C92.2553899,79.0801538 91.990865,79.7304764 91.5767318,80.2779173 C90.9230084,81.1419173 90.0253584,81.0741324 89.4341525,80.1722829 C89.1916713,79.8017022 89.0033961,79.3994657 88.7865724,79.0134011 C88.1061074,77.8022183 87.4372064,76.5844978 86.7368659,75.3839816 C86.398621,74.8045407 86.1677038,74.2529708 86.6403794,73.6411858 C86.7122926,73.5486267 86.7249406,73.4092718 86.7462616,73.2884977 C86.9132159,72.3673793 87.1882206,72.1516374 88.1697091,72.1801965 C89.9494701,72.2318094 92.174081,73.9494869 92.4859457,75.6386053 C92.6536227,76.5466483 92.5911052,77.493229 92.6315789,78.3943903" id="Fill-41" fill="#FFFFFF"></path>
            <path d="M83.102113,62.3725515 C84.693293,61.6028314 85.4029662,59.3472638 84.6334949,58.0142812 C84.3843361,57.5833818 84.052697,57.3402366 83.4588398,57.5923739 C83.1687845,59.1098734 82.9935141,60.6597444 83.102113,62.3725515 M86.2896281,60.3781132 C85.9438987,61.8657591 85.2338818,63.0009164 83.9980539,63.6627318 C83.1357924,64.1245639 82.7378256,64.756166 82.8333651,65.7607586 C82.8605148,66.0481448 82.8230551,66.3513569 82.7649753,66.6358656 C82.6921178,66.9887139 82.4457083,67.2721436 82.1065086,67.1836617 C81.8511637,67.1171205 81.5851651,66.8671413 81.4439178,66.6225574 C81.3301639,66.4258112 81.3689983,66.1136069 81.3854944,65.8560744 C81.5518294,63.2498166 81.7209138,60.6442781 81.9044321,58.0398186 C81.9649176,57.1765812 82.0446484,56.2683834 83.077369,56.0648032 C84.0911878,55.8651795 85.0098107,56.1130006 85.6782438,57.0003368 C86.2703827,57.7858829 86.4020073,58.7181794 86.3676406,59.6860845 C86.3583616,59.9457751 86.3102481,60.204027 86.2896281,60.3781132" id="Fill-43" fill="#FFFFFF"></path>
            <path d="M70.4951806,54.7555556 C70.3778332,54.6210001 70.0957816,54.4396822 70.0996119,54.2625879 C70.1037904,54.0794598 70.3520655,53.7853083 70.551591,53.7424678 C71.0982837,53.6248072 71.6749227,53.5741227 72.2404189,53.5674854 C74.8979723,53.5361092 77.5551776,53.5207229 80.2130793,53.514689 C83.408272,53.5074483 86.6034647,53.5119737 89.7986575,53.5213262 C90.1754228,53.522533 90.5751701,53.5300754 90.9192035,53.6401936 C91.1302199,53.707773 91.3941645,53.9868398 91.3791914,54.1533747 C91.3642183,54.3187029 91.0511758,54.4979091 90.8265791,54.6022951 C90.6789372,54.6707796 90.4553852,54.6173798 90.2659579,54.6185866 C83.9086526,54.6575051 77.5506509,54.6967253 71.1929974,54.7365488 C71.0035701,54.7374539 70.814491,54.7465047 70.4951806,54.7555556" id="Fill-45" fill="#FFFFFF"></path>
            <path d="M70.5511743,69.6888889 C70.4293723,69.5863709 70.1768223,69.4629111 70.1183298,69.3034116 C70.0243977,69.0486996 70.2969039,68.8923658 70.6316875,68.8397675 C70.9035057,68.7969096 71.1880545,68.7837601 71.4677863,68.7757242 C75.4635129,68.6641964 79.4599276,68.5541296 83.4559982,68.4491765 C83.8286299,68.4391926 84.2074549,68.4428452 84.5752695,68.4813199 C84.9121176,68.5166289 85.2011394,68.6817291 85.1006699,68.932058 C85.0414893,69.0796254 84.7565963,69.2415599 84.5319163,69.2822262 C84.1775205,69.3462695 83.7880292,69.3114475 83.4136771,69.3224055 C79.4182947,69.4378295 75.4225681,69.553984 71.4271857,69.6696516 C71.1777323,69.6769569 70.928279,69.6806095 70.5511743,69.6888889" id="Fill-47" fill="#FFFFFF"></path>
            <path d="M80.0516788,77.1176843 C79.0970413,76.962394 78.4670355,76.3134898 77.8659164,75.644769 C77.4271133,75.1569199 77.5653569,74.5184645 78.1867654,74.3293058 C79.3535829,73.9744082 80.5324365,73.6310403 81.7295163,73.4364771 C82.1937673,73.3608136 82.7814746,73.5978925 83.2037711,73.8749648 C83.964111,74.3739833 84.0652146,75.3367107 83.5459412,76.1135221 C83.1480609,76.7087413 82.5923353,77.0787716 81.9090267,77.1349788 C81.294152,77.1857814 80.671024,77.1277727 80.0516788,77.1176843" id="Fill-49" fill="#FFFFFF"></path>
            <path d="M79.2042585,57.9557473 C79.2593239,57.5639139 79.3683075,57.2414075 79.6830981,57.244466 C79.9510832,57.2468449 80.1215565,57.5601757 80.1135261,58.0974598 C80.1027425,58.806702 80.0596079,59.5149247 80.0336813,60.2241669 C79.9655378,62.1038116 79.8996888,63.9837962 79.8317748,65.8637808 C79.8216794,66.1404091 79.8528832,66.449322 79.7790037,66.6834704 C79.7110897,66.8975685 79.5424519,67.1174438 79.3896454,67.1792943 C79.1698426,67.267992 78.9796375,67.0634095 78.9165417,66.7245909 C78.8729482,66.4911221 78.855052,66.2355638 78.864459,65.993599 C78.9644945,63.4057316 79.0723309,60.8182039 79.1790202,58.2310162 C79.1826912,58.13892 79.1953104,58.0475036 79.2042585,57.9557473" id="Fill-51" fill="#FFFFFF"></path>
            <path d="M83.841137,87.9101396 C83.4956278,89.328899 82.2462216,89.9096332 81.0395397,89.4401283 C80.489697,89.2264509 80.0906895,88.8877869 80.114838,88.3893038 C80.1538471,87.5799641 80.6375601,86.9213693 81.4418909,86.4258134 C81.7272147,86.2504808 82.07421,86.1377879 82.3933417,85.9967023 C83.0557536,85.7037008 83.7389703,85.9185491 83.828877,86.5133333 C83.9109819,87.0598206 83.8422516,87.6206506 83.841137,87.9101396" id="Fill-53" fill="#FFFFFF"></path>
            <path d="M10.8434392,64.6965834 C10.1488944,64.7859179 9.9801821,64.452378 10.0195731,63.9947216 C10.2035215,61.8591139 11.0489412,60.0735219 12.9475121,58.9022877 C13.3064903,58.680782 13.7539123,58.5500754 14.1764363,58.4940582 C14.4566326,58.4570796 14.7650714,58.6284261 15.0077347,58.692498 C15.0865166,59.2753692 14.8126378,59.4280433 14.456261,59.5228697 C12.7836307,59.9673456 11.8858137,61.1345524 11.4317026,62.7015678 C11.3209619,63.0845346 11.2823141,63.4872722 11.1723167,63.8706052 C11.0857308,64.17156 10.9411734,64.4564053 10.8434392,64.6965834" id="Fill-55" fill="#FFFFFF"></path>
            <path d="M17.7385388,58.6874462 C18.4526407,58.3263887 19.0176129,58.5174108 19.5535877,58.7880968 C20.0841454,59.0557847 20.1692258,59.6802471 19.8132901,60.2832945 C19.4971861,60.8190986 18.3239048,61.2075674 17.9039198,60.822525 C17.7053989,60.6409256 17.5432044,60.2190494 17.5266344,59.8913994 C17.5068779,59.4982193 17.6601501,59.0891922 17.7385388,58.6874462" id="Fill-57" fill="#FFFFFF"></path>
            <path d="M12.8887651,65.9555556 C13.2964481,66.6040415 13.1834914,66.9230965 12.7736444,67.2 C12.3763482,66.7227144 12.4624723,66.3829078 12.8887651,65.9555556" id="Fill-59" fill="#FFFFFF"></path>
            <path d="M23.0527454,63.4830041 C23.0252063,63.6841877 22.9970413,63.8853713 22.9695021,64.086555 C22.851835,64.0874885 22.7341679,64.0879553 22.6165007,64.0888889 C22.5883357,63.8816371 22.5601707,63.6739185 22.5320057,63.4666667 C22.705377,63.4722681 22.8793741,63.4774027 23.0527454,63.4830041" id="Fill-61" fill="#FFFFFF"></path>
            <path d="M11.2794857,67.2883431 C11.3908968,67.2557445 11.5086945,67.1727103 11.6122997,67.2089993 C11.6772304,67.2317569 11.7215819,67.4341143 11.8918919,67.8222222 C11.5899466,67.8080757 11.4281521,67.8006948 11.2660028,67.792699 C11.2706154,67.6241703 11.2748732,67.4562567 11.2794857,67.2883431" id="Fill-63" fill="#FFFFFF"></path>
            <path d="M23.9842442,64.7111111 C24.1594931,64.8005946 24.4060934,64.8942401 24.3948274,64.9259755 C24.3447562,65.071126 24.222082,65.1991081 24.126321,65.3333333 C24.0061503,65.2537347 23.8190094,65.1887031 23.787715,65.0898551 C23.7589241,64.9972501 23.894742,64.8682274 23.9842442,64.7111111" id="Fill-65" fill="#FFFFFF"></path>
            <path d="M11.6402458,65.9555556 C11.7241278,66.1214031 11.8080099,66.2872506 11.8918919,66.4530981 C11.807549,66.494658 11.7236669,66.5362179 11.6397849,66.5777778 C11.5153445,66.4260449 11.3904432,66.2743121 11.2660028,66.1225793 C11.3909041,66.0669047 11.5153445,66.0112301 11.6402458,65.9555556" id="Fill-67" fill="#FFFFFF"></path>
            <path d="M24.0743734,62.8444444 C23.9385555,62.692358 23.777702,62.5896719 23.7839609,62.4964218 C23.7914715,62.4003965 23.9610875,62.3132521 24.0599779,62.2222222 C24.1588684,62.3115869 24.3259808,62.3942908 24.3372468,62.4914263 C24.3478869,62.5846764 24.1957959,62.691803 24.0743734,62.8444444" id="Fill-69" fill="#FFFFFF"></path>
            <path d="M21.9061166,65.1465012 C21.7217187,65.2143234 21.5030417,65.3319234 21.4776279,65.297079 C21.3789278,65.1589457 21.3411025,64.972279 21.2802276,64.804279 C21.4143889,64.7713012 21.5763281,64.6761012 21.6738462,64.7246346 C21.7749104,64.7750346 21.8139177,64.9648123 21.9061166,65.1465012" id="Fill-71" fill="#FFFFFF"></path>
            <path d="M24.376238,78.2124476 C24.8556564,77.7942322 25.0243846,77.4064134 24.9078334,76.7680847 C24.4687336,76.8390101 24.0587716,76.9053935 23.4133356,77.0095106 C23.8317679,77.5318431 24.0950245,77.860965 24.376238,78.2124476 M22.3277834,80.8052432 C22.2173308,80.0449787 22.0296292,79.4670937 21.3679302,78.9933259 C21.2127545,79.6938454 20.9417053,80.2595018 21.2869543,80.9883216 C21.6244106,80.928926 21.9554295,80.8705784 22.3277834,80.8052432 M22.8431157,74.1931078 C22.9013913,74.2710209 22.9596669,74.3485847 23.0182813,74.4268472 C23.6637173,74.3852702 24.2905187,74.2825507 24.825841,73.7724467 C24.6506754,73.2218139 24.5900281,72.6421821 23.8758134,72.3595285 C23.5244658,72.9831831 23.1836214,73.5879707 22.8431157,74.1931078 M22.535136,78.1879906 C22.6838743,78.55834 22.8288857,78.9304364 22.9816897,79.2990389 C23.1263622,79.6484252 23.3069488,79.9852336 23.4228223,80.3444027 C23.6996314,81.2035436 23.4621245,81.6958289 22.6059477,81.9107014 C22.0431817,82.0518535 21.4529719,82.1203332 20.8732654,82.1329111 C20.2844109,82.1458384 19.9815133,81.8621367 20.0343679,81.252807 C20.1431265,79.9929201 20.3101606,78.7347801 20.5337762,77.4913143 C20.6445676,76.8756957 21.0646939,76.7527117 22.0045571,76.9109837 C22.087566,76.774723 22.1953081,76.6258845 22.2732347,76.4623717 C22.3386253,76.3250629 22.3701348,76.1702848 22.4365419,75.960653 C22.2335938,75.9012573 22.0702866,75.8523432 21.9066406,75.8058749 C21.7609516,75.7649967 21.6152627,75.7269136 21.4912576,75.6933725 C21.1595611,75.2608323 21.1880213,74.8331834 21.4231565,74.4237027 C21.9557683,73.4971303 22.4958339,72.5744011 23.0589387,71.6673943 C23.6349184,70.7394243 24.3555705,70.6723422 24.9447638,71.5744576 C25.4018206,72.2749771 25.710478,73.0848545 26.0347206,73.8681785 C26.1306043,74.100171 26.0550493,74.4072816 26.0587762,74.7035611 C25.331009,74.9722392 24.6794744,75.2129663 24.0272621,75.4536935 C24.0333607,75.5102941 24.040137,75.5668946 24.0462356,75.6234952 C24.4507766,75.6248928 24.8556564,75.6112667 25.2588421,75.6308323 C26.1661795,75.674855 26.4582351,76.037518 26.193962,76.9074898 C25.9842377,77.5992747 25.7196259,78.2865175 25.3811531,78.9199548 C24.8837778,79.8503705 24.3487943,79.8811165 23.6633785,79.09919 C23.3611586,78.7536469 23.0714747,78.3958754 22.7763699,78.0440434 C22.6960715,78.0919093 22.6157732,78.1397752 22.535136,78.1879906" id="Fill-73" fill="#FFFFFF"></path>
            <path d="M16.6579506,77.9404164 L16.5743375,78.2169518 C16.9804583,78.8057376 17.2797402,79.5037089 18.0989497,79.7418083 C18.5505269,79.1026815 18.813311,78.4931471 18.6766102,77.6186421 C17.9688848,77.7315692 17.3135836,77.8359928 16.6579506,77.9404164 M15.4356064,72.0569805 C15.0125639,73.0716241 14.7521024,73.8631344 14.9239738,74.8461448 C15.7654137,74.8638322 16.5361807,75.0937681 17.4824688,74.8981865 C16.8540433,73.8729986 16.2587975,73.0287662 15.4356064,72.0569805 M18.1244981,76.5104595 C17.2731043,76.0084099 16.3719406,75.9988859 15.4847126,75.9635112 C13.8532614,75.8988842 13.597445,75.6345939 13.8569111,73.9417072 C13.9680635,73.2158443 14.1369487,72.4780763 14.4163227,71.8052755 C14.8569506,70.7426719 15.622077,70.6545751 16.3629821,71.5229576 C16.6997572,71.916842 16.9714998,72.3678703 17.2953347,72.77434 C17.6938242,73.2743487 18.1381019,73.7372819 18.5196697,74.2495357 C18.7801312,74.5992017 18.9666017,75.0063516 19.1676713,75.3553373 C18.9261223,75.7284731 18.7638731,75.9794979 18.5674486,76.2825644 C18.7316886,76.312837 18.8405184,76.3376674 18.9503436,76.3522935 C19.9331295,76.4825678 20.200227,76.8764523 19.9281526,77.8502788 C19.7459954,78.5026711 19.5764466,79.1662881 19.3143261,79.7863669 C18.7844445,81.0387697 17.8567371,81.2493176 16.8985042,80.2887566 C16.3012677,79.690787 15.7883078,78.9843121 15.3307582,78.2645717 C14.8821672,77.5580968 15.1243798,77.1019664 15.930981,76.9523039 C16.2561431,76.8917587 16.5905956,76.8835952 16.9184121,76.8349549 C17.216035,76.7903963 17.5123307,76.7312116 17.8053084,76.6618227 C17.9171243,76.6352916 18.0186546,76.5621611 18.1244981,76.5104595" id="Fill-75" fill="#FFFFFF"></path>
            <path d="M20.4073078,72.8531128 C21.0265561,72.0110962 21.1906435,71.2562075 21.3050075,70.4983598 C21.3298692,70.3313374 21.1627219,70.100202 21.0070492,69.963099 C20.5224368,69.5366658 19.6373592,69.4764983 18.8108024,69.8348731 C19.145862,70.8376652 19.629327,71.7914683 20.4073078,72.8531128 M19.5520644,68.4444444 C19.9682115,68.5512993 20.6953214,68.6558527 21.3329291,68.9205241 C22.367177,69.3492588 22.7160061,70.0242529 22.4425271,70.9898923 C22.1568085,72.0015615 21.7861775,72.9958051 21.4354359,73.9930078 C21.3111273,74.3471085 21.0820169,74.728827 20.6023768,74.6581384 C20.2879715,74.6117798 19.9054834,74.356972 19.7605204,74.1067672 C19.0674519,72.9086773 18.4130148,71.6915179 17.8060061,70.4592345 C17.1802555,69.188812 17.5309971,68.7554744 19.5520644,68.4444444" id="Fill-77" fill="#FFFFFF"></path>
            <path d="M12.5177809,81.2846484 C12.8771793,80.7985965 13.247645,80.7898322 13.769559,81.0976773 C13.5621914,81.57533 13.2057055,81.6410621 12.5177809,81.2846484" id="Fill-79" fill="#FFFFFF"></path>
            <path d="M14.3954481,82.13722 C14.3839807,82.3153006 14.3725133,82.493028 14.3563546,82.7555556 C13.6213976,82.5371948 13.6714372,82.3485141 13.9930461,82.1333333 C14.1264851,82.1347467 14.2609666,82.13616 14.3954481,82.13722" id="Fill-81" fill="#FFFFFF"></path>
            <path d="M14.3594287,80.8888889 C14.3869729,81.2751207 14.463673,81.7027996 13.769559,81.4190467 L14.3954481,80.9189494 L14.3594287,80.8888889 Z" id="Fill-83" fill="#FFFFFF"></path>
            <path d="M13.14367,79.8560485 C13.0453986,80.0277819 12.9466016,80.2673374 12.9108666,80.2542708 C12.7689774,80.204493 12.6470578,80.075693 12.5177809,79.9755152 C12.6018634,79.8597819 12.6722825,79.6762263 12.773707,79.6476041 C12.8661978,79.6214708 12.991796,79.7633374 13.14367,79.8560485" id="Fill-85" fill="#FFFFFF"></path>
        </g>
    </g>
</svg>