<?xml version="1.0" encoding="UTF-8" standalone="no"?>
<svg width="100px" height="80px" viewBox="0 0 100 80" version="1.1" xmlns="http://www.w3.org/2000/svg" xmlns:xlink="http://www.w3.org/1999/xlink">
    <!-- Generator: Sketch 48.2 (47327) - http://www.bohemiancoding.com/sketch -->
    <title>manzana</title>
    <desc>Created with Sketch.</desc>
    <defs>
        <polygon id="path-1" points="0.0184155017 0.263448276 62.2315628 0.263448276 62.2315628 77.0841039 0.0184155017 77.0841039"></polygon>
    </defs>
    <g id="Page-2" stroke="none" stroke-width="1" fill="none" fill-rule="evenodd">
        <g id="manzana">
            <g id="Group-3" transform="translate(20.183486, 0.000000)">
                <mask id="mask-2" fill="white">
                    <use xlink:href="#path-1"></use>
                </mask>
                <g id="Clip-2"></g>
                <path d="M31.2742145,20.0976897 C31.379468,19.8425172 31.4477782,19.7376897 31.4655528,19.6252759 C32.1312285,15.4311379 31.0734662,11.7259655 28.170632,8.58734483 C27.2533238,7.59527586 26.2157757,6.71148276 25.2231869,5.78872414 C25.0792476,5.65527586 24.8774537,5.58217241 24.6868126,5.47148276 C24.6049101,5.62286207 24.5365999,5.69941379 24.5216134,5.78493103 C24.0640049,8.41527586 24.1734406,10.9218276 26.155133,13.0138966 C26.2415663,13.104931 26.3137102,13.2094138 26.3868997,13.3118276 C27.8510379,15.3566552 29.3141305,17.4028621 30.7789657,19.4473448 C30.9051304,19.6235517 31.0414023,19.7928621 31.2742145,20.0976897 M58.4282097,42.4635517 C58.5007022,42.1263103 58.5773769,41.7897586 58.6435959,41.4514828 C58.7038901,41.1438966 58.7694121,40.8359655 58.8035672,40.524931 C59.4539081,34.6021724 57.7726411,29.6128621 52.776239,25.9938966 C50.6757009,24.4728621 48.3350315,23.5452759 45.6803444,23.7932069 C44.3632823,23.9159655 43.0434319,24.1580345 41.76401,24.4925172 C39.9293937,24.9721724 38.3192251,25.9101034 36.9606888,27.2376897 C35.6749936,28.4942414 34.448547,29.797 33.4984778,31.337 C32.8293168,32.4211379 31.5300292,32.5028621 30.7137922,31.5273448 C30.4771462,31.244931 30.2837169,30.8980345 30.171493,30.549069 C29.8836144,29.6545862 29.6630004,28.7397586 29.39673,27.8380345 C28.9070576,26.1804483 28.1214904,24.6721724 26.7392548,23.5876897 C24.4637589,21.8018276 21.8742453,20.5952759 18.9857004,20.2597586 C13.5090359,19.6235517 9.25428733,21.6901034 6.34134591,26.3156207 C4.58723797,29.1004483 3.61765158,32.1725172 3.42666188,35.4580345 C3.3339552,37.0525172 3.26634206,38.6532069 3.29073856,40.249069 C3.37926298,45.9825172 3.48591051,51.7163103 3.63995695,57.4480345 C3.70303931,59.797 3.88496745,62.144931 4.48825791,64.4352759 C5.79451591,69.3952759 10.5124494,72.4407931 15.012557,72.1128621 C16.5237456,72.0028621 18.0356312,71.7801034 19.5206806,71.4807931 C21.4675209,71.0880345 23.3659167,71.1297586 25.2291118,71.7994138 C26.4482395,72.2376897 27.6394854,72.7525172 28.8453693,73.2283793 C30.1666137,73.7494138 31.5404849,73.9514828 32.9467685,73.7521724 C34.7827789,73.4914828 36.5337502,72.9466552 38.0958229,71.9294138 C40.3577264,70.4566552 42.3613756,68.6783793 44.1555635,66.679069 C48.2297781,62.1383793 51.6804879,57.1535517 54.7279586,51.8945862 C56.4395469,48.9414828 57.6705243,45.7894138 58.4282097,42.4635517 M26.6890677,19.2611379 C26.4876224,18.9545862 26.3018605,18.6359655 26.0819435,18.3428621 C25.1186305,17.0597586 24.1692584,15.7659655 23.1710932,14.5097586 C21.6372508,12.5797586 20.9248731,10.4166552 21.0200195,7.95562069 C21.094603,6.03355172 21.3835272,4.15217241 21.8557737,2.29389655 C21.9477833,1.93286207 22.0763877,1.56803448 22.2614525,1.24596552 C22.8985495,0.136655172 24.2006253,-0.0585172414 25.1674235,0.78837931 C25.2852237,0.891482759 25.4054636,1.00182759 25.4908513,1.1307931 C26.5294449,2.69941379 27.9650044,3.89975862 29.3549075,5.12837931 C32.2559992,7.69286207 33.9982574,10.8742414 34.73538,14.6266552 C34.7712777,14.8101034 34.8218133,14.9914828 34.8814105,15.1687241 C34.8970939,15.2156207 34.9723746,15.2428621 35.1138742,15.3497586 C35.3034698,15.0787241 35.5045667,14.8156207 35.6795244,14.5366552 C37.012967,12.4111379 38.6639127,10.569069 40.6710471,9.04493103 C40.946379,8.83562069 41.2279842,8.62251724 41.5364256,8.4707931 C42.3613756,8.06458621 43.2577725,8.29803448 43.7164266,9.00527586 C44.1768233,9.71527586 44.0098816,10.587 43.2891395,11.1818276 C42.6084773,11.7428621 41.8832043,12.2566552 41.2422736,12.8580345 C38.8677977,15.0856207 37.3834452,17.8780345 36.1827892,20.8376897 C35.8645892,21.6221724 35.5892573,22.4245862 35.3156681,23.2256207 C35.2180821,23.5107931 35.1828815,23.817 35.0825073,24.2866552 C35.4334683,24.0952759 35.6561734,24.0066552 35.8405412,23.8683793 C38.9113628,21.557 42.4387474,20.5876897 46.2306596,20.5097586 C49.5670545,20.4411379 52.5002101,21.6514828 55.0959971,23.6456207 C61.1010199,28.2587241 63.0328738,34.4435517 61.9423505,41.677 C61.3916867,45.3280345 60.1188868,48.7883793 58.3640818,52.0428621 C54.9356773,58.4004483 50.8332325,64.3066552 45.8849265,69.604931 C43.7965865,71.8411379 41.5158628,73.9087241 38.7416329,75.3001034 C35.6094716,76.8711379 32.3142022,77.6366552 28.8192302,76.6301034 C27.820368,76.3421724 26.865071,75.9052759 25.8909538,75.5338966 C25.3298345,75.3197586 24.7784737,75.0783793 24.2096868,74.8859655 C22.8919276,74.4401034 21.5651069,74.3945862 20.1863564,74.6707931 C18.6688945,74.9742414 17.1287786,75.2083793 15.5872687,75.3466552 C9.04203782,75.9342414 2.40549434,71.494931 1.08111322,64.2128621 C0.645461535,61.8173448 0.43460612,59.3638966 0.34155092,56.9287241 C0.151258265,51.9511379 0.0606427144,46.9680345 0.0271846651,41.987 C0.00906155502,39.2335517 -0.0135923325,36.4538966 0.325867459,33.7304483 C0.924975655,28.9207931 2.75087899,24.5832069 6.36643944,21.1607931 C10.7470043,17.0145862 15.959838,16.0745862 21.6898775,17.5180345 C23.0874481,17.8697586 24.3999795,18.5535517 25.7498027,19.089069 C26.0063144,19.1907931 26.2555071,19.3111379 26.5081851,19.4228621 C26.5684793,19.369069 26.6287735,19.314931 26.6890677,19.2611379" id="Fill-1" fill="#FFFFFF" mask="url(#mask-2)"></path>
            </g>
            <path d="M82.5688073,78.6908886 C82.3665962,79.3568392 82.084169,79.7805638 81.5300101,79.9330638 C80.9220397,80.1002338 80.3825871,79.9569452 79.9587792,79.4731758 C79.5750793,79.0354634 79.2244686,78.5670464 78.8387633,78.1310398 C77.2936026,76.3856489 75.7377464,74.6501518 74.1939226,72.9033962 C73.9719917,72.6523001 73.7614247,72.3786873 73.6036666,72.0832399 C73.2049262,71.3367749 73.3904257,70.5636991 74.0395068,70.1201869 C74.6297629,69.7165909 75.3794483,69.8387273 75.9189009,70.4391745 C77.5984234,72.30909 79.2786144,74.1786643 80.9497811,76.0564265 C81.4126942,76.5767003 81.8899794,77.0935626 82.2730108,77.6725165 C82.4778959,77.9822927 82.4959445,78.4210285 82.5688073,78.6908886" id="Fill-4" fill="#FFFFFF"></path>
            <path d="M10.6559997,39.4936154 C10.5256062,39.3901167 10.1454353,39.218932 9.96653135,38.9181054 C9.66686723,38.4145789 9.23749774,38.1338074 8.77647602,37.864496 C7.17012495,36.9262034 5.55517273,36.0029521 3.95742281,35.048902 C3.41830263,34.7269458 2.89122406,34.3670283 2.41127981,33.957331 C1.76206489,33.4029505 1.66710817,32.6129225 2.09682171,31.9604152 C2.56231603,31.2527564 3.31887332,31.0579353 4.07474252,31.499864 C6.41425575,32.8668345 8.75136065,34.2388188 11.0733275,35.6373045 C11.5539599,35.9270292 12.0074126,36.2966162 12.3996251,36.7059553 C12.9122537,37.240997 12.9700535,38.0800884 12.6315122,38.6910529 C12.2757685,39.3328164 11.5749467,39.670172 10.6559997,39.4936154" id="Fill-6" fill="#FFFFFF"></path>
            <path d="M99.9527578,53.6474728 C99.7793872,54.3876875 99.1865026,54.8587664 98.3692351,54.8390468 C97.6896652,54.8226138 97.0115222,54.697358 96.3337359,54.7050267 C95.2036165,54.7178079 94.0734971,54.7802532 92.9448047,54.8540191 C91.5239506,54.9467742 90.1055937,55.1016094 88.6836695,55.1706279 C87.9320402,55.2071457 87.3338047,54.6790991 87.1896859,54.0013297 C87.0505614,53.3472969 87.3502143,52.612925 87.9352508,52.306176 C88.1860317,52.1747121 88.4860413,52.1137275 88.7707115,52.0808615 C90.5400904,51.8749014 92.3076856,51.6032094 94.0831288,51.5177579 C95.5646269,51.4465482 97.0607509,51.5484328 98.5422489,51.6722279 C99.5806888,51.7591402 100.177854,52.6863257 99.9527578,53.6474728" id="Fill-8" fill="#FFFFFF"></path>
            <path d="M83.8366248,64.9692291 C82.9339304,64.5731765 82.5660901,64.0880663 82.5688224,63.2412956 C82.5729209,62.0415529 83.7310885,61.2751513 84.7225837,61.753383 C86.5764715,62.6475787 88.4546087,63.4845748 90.320792,64.3501706 C90.8016825,64.5731765 91.2941855,64.7791673 91.7474112,65.0553905 C92.4226389,65.4670101 92.805507,66.187435 92.6091206,67.0305854 C92.4079526,67.8483943 91.5124306,68.1571995 90.8071472,68.0109424 C88.3084289,67.4921642 85.2068897,65.5705486 83.8366248,64.9692291" id="Fill-10" fill="#FFFFFF"></path>
            <path d="M9.26593141,46.0061789 C10.3453986,46.2222363 10.8700252,46.6820506 10.9857315,47.3497754 C11.0959442,47.9858899 10.8154338,48.6334102 10.1888347,48.9185538 C9.84686606,49.0743237 9.35382696,49.2137996 9.04241578,49.0945281 C8.03951382,48.7096658 7.07884292,48.9276784 6.11233521,49.1150585 C4.67544898,49.3940103 3.2464596,49.7071794 1.76459557,49.6478696 C1.57781752,49.6403744 1.38657603,49.6560165 1.20460478,49.6247322 C0.541268048,49.5106748 0.0362119772,48.9553781 0.00187777802,48.3238258 C-0.0327997632,47.6922735 0.415948221,47.1229641 1.08889853,46.943731 C1.11876928,46.9359099 1.14864003,46.9258077 1.17919747,46.9215712 C3.42705749,46.6129644 5.67320081,46.2909966 7.92449425,46.0065048 C8.443284,45.9413291 8.97992753,46.0042237 9.26593141,46.0061789" id="Fill-12" fill="#FFFFFF"></path>
            <path d="M5.73819312,61.5827561 C5.22806697,61.4093325 4.81464055,61.075629 4.65417504,60.4779565 C4.49300881,59.8777283 4.61633602,59.2953901 5.09142603,58.9507336 C7.09759523,57.4943404 8.87252593,55.6885444 11.1144883,54.588126 C11.3713032,54.4621657 11.6407311,54.341682 11.9168159,54.2850911 C12.6560784,54.1332085 13.3753702,54.5315352 13.6391924,55.201863 C13.9264887,55.9320676 13.7050603,56.8543161 13.0008339,57.185829 C10.8850016,58.1825583 9.1503625,59.7543237 7.29589977,61.1471891 C6.84113071,61.4889248 6.34712118,61.6831593 5.73819312,61.5827561" id="Fill-14" fill="#FFFFFF"></path>
            <path d="M31.1657761,33.1985234 C32.5698637,31.5275166 34.1724709,30.1291621 36.3100833,29.160707 C34.0252155,28.5978558 31.2246095,30.8556721 31.1657761,33.1985234 M27.7575693,32.3309631 C28.5158661,29.9860872 29.9237383,27.665507 32.6524369,26.4540946 C35.7781746,25.0665381 38.6303889,25.8240926 41.2328193,27.8322027 C41.5988936,28.1146406 41.9584309,28.4075392 42.3413638,28.6663563 C42.9093983,29.0507013 43.1922113,29.5639488 43.1031012,30.234781 C43.0136469,30.9113498 42.593556,31.371619 41.9370995,31.5342655 C41.3979656,31.6675546 40.8251144,31.7424664 40.270154,31.7286314 C37.7059136,31.6655299 35.7609719,32.787858 34.2316483,34.7085709 C33.7320808,35.3355358 33.3040766,36.0168287 32.8347859,36.6674146 C32.546468,37.0669444 32.2794815,37.4914449 31.9364588,37.8417085 C30.7842193,39.0190393 29.1454864,38.8452573 28.3039283,37.4327302 C28.0101056,36.9400667 27.8253481,36.3647302 27.692887,35.8039036 C27.4510165,34.7780837 27.4627144,33.7350542 27.7575693,32.3309631" id="Fill-16" fill="#FFFFFF"></path>
        </g>
    </g>
</svg>