<?xml version="1.0" encoding="UTF-8" standalone="no"?>
<svg width="135px" height="23px" viewBox="0 0 135 23" version="1.1" xmlns="http://www.w3.org/2000/svg" xmlns:xlink="http://www.w3.org/1999/xlink">
    <!-- Generator: Sketch 48.2 (47327) - http://www.bohemiancoding.com/sketch -->
    <title>JumboCL</title>
    <desc>Created with Sketch.</desc>
    <defs></defs>
    <g id="Desktop" stroke="none" stroke-width="1" fill="none" fill-rule="evenodd" transform="translate(-1005.000000, -6343.000000)">
        <g id="Group-10" transform="translate(0.000000, 6279.000000)" fill="#FFFFFF" fill-rule="nonzero">
            <g id="JumboCL" transform="translate(1005.000000, 64.000000)">
                <path d="M96.3241746,0 C97.8630801,0 99.3304087,0.297120305 100.690372,0.908838581 C102.068229,1.50307919 103.267144,2.32452945 104.30501,3.35571168 C105.342877,4.36941625 106.166012,5.57537514 106.792311,6.93863301 C107.400716,8.30189088 107.704918,9.75253708 107.704918,11.3080493 C107.704918,12.8635615 107.400716,14.3142077 106.810205,15.6599879 C106.219695,17.0057681 105.39656,18.1942493 104.376587,19.2079539 C103.356615,20.2391361 102.139806,21.0431087 100.761949,21.6373493 C99.3661972,22.2315899 97.8809744,22.5112325 96.2704918,22.5112325 C94.6957977,22.5112325 93.2105749,22.2315899 91.8327176,21.6723046 C90.4369661,21.1130193 89.2380513,20.3440021 88.2001847,19.3302975 C87.1623182,18.3165929 86.3391826,17.1281117 85.7307781,15.7648538 C85.1223736,14.401596 84.8360656,12.9159944 84.8360656,11.2905716 C84.8360656,9.73505942 85.1223736,8.28441322 85.7128839,6.93863301 C86.2854999,5.59285281 87.1086354,4.40437158 88.146502,3.40814468 C89.1843685,2.41191777 90.4011776,1.59046752 91.8148234,0.996226906 C93.2105749,0.38450863 94.713692,0.0524329951 96.3241746,0 Z M96.2883861,4.64905889 C95.3757793,4.64905889 94.498961,4.82383555 93.6579312,5.15591118 C92.8169014,5.48798682 92.1011314,5.95988377 91.4927269,6.55412438 C90.8843223,7.14836499 90.3832833,7.84747159 90.0253983,8.63396652 C89.6675133,9.43793911 89.4885708,10.2943447 89.4885708,11.2381386 C89.4885708,12.1294995 89.6675133,12.9859051 90.0253983,13.7898777 C90.3832833,14.5938503 90.8843223,15.3104346 91.4927269,15.9221528 C92.1011314,16.5338711 92.8347957,17.0232457 93.6579312,17.372799 C94.498961,17.7223523 95.3757793,17.897129 96.2883861,17.897129 C97.2009928,17.897129 98.0778111,17.7223523 98.9188409,17.372799 C99.7598707,17.0232457 100.475641,16.5338711 101.10194,15.9221528 C101.710344,15.3104346 102.211383,14.5938503 102.569268,13.7898777 C102.927153,12.9859051 103.106096,12.1294995 103.106096,11.2381386 C103.016624,9.43793911 102.354537,7.91738225 101.119834,6.67646804 C99.8851305,5.43555382 98.2925421,4.77140255 96.3420688,4.63158123 L96.2883861,4.63158123 L96.2883861,4.64905889 Z" id="Shape"></path>
                <path d="M34.3446468,12.8335064 C34.3446468,15.6561765 32.0119694,17.8476906 29.1314662,17.8476906 C27.4526454,17.8476906 25.9682143,17.1814703 25.0139371,15.9892867 C24.7488602,15.6737086 24.5191268,15.3405985 24.324737,14.9022957 C24.2717216,14.7795709 24.236378,14.639314 24.1833626,14.4990571 C24.1656908,14.4464608 24.148019,14.3763323 24.1303472,14.323736 C24.1126754,14.2886717 24.1126754,14.2536075 24.0950036,14.2010112 C23.971301,13.7802405 23.9006138,13.3244056 23.9006138,12.8510385 C23.9006138,12.7809101 23.9006138,12.7107816 23.9182856,12.6406532 C23.9182856,12.465332 23.9006138,12.2724788 23.9006138,12.0971577 L23.9006138,2.38436731 C23.9006138,1.75321126 23.6708804,1.20971577 23.1937419,0.753880841 C22.7166033,0.298045914 22.1687776,0.0350642251 21.5679364,0 C20.8964081,0.0350642251 20.3309105,0.280513801 19.8714437,0.718816616 C19.411977,1.17465154 19.1822436,1.71814703 19.1822436,2.33177097 L19.1822436,12.465332 C19.1469,14.2886717 19.6063668,15.7789013 20.0835053,16.7957638 C20.1188489,16.8658923 20.1541925,16.9360207 20.1895361,17.0061492 C20.2955669,17.2340667 20.4192695,17.4619841 20.5429721,17.6723695 C20.6136593,17.7950943 20.6843465,17.9002869 20.7550337,18.0054796 C20.8257209,18.1282044 20.9140799,18.2509292 21.0024389,18.373654 C21.691639,19.3379202 22.6282443,20.1619295 23.6178651,20.8281497 C23.6532086,20.8456818 23.706224,20.8807461 23.7415676,20.9158103 C24.4661114,21.3891773 25.2436705,21.7573517 26.0742451,22.0203334 C26.7281016,22.2131866 27.5056608,22.3534435 28.4245943,22.4761683 C28.5482969,22.4937004 28.6543277,22.4937004 28.7780303,22.4937004 C28.884061,22.4937004 29.0077636,22.5112325 29.1137944,22.5112325 C29.149138,22.5112325 29.2021534,22.5112325 29.237497,22.5112325 C29.5202458,22.5112325 29.8029946,22.4937004 30.0857434,22.4761683 C30.4038357,22.4411041 30.7042563,22.4060399 31.0046769,22.3534435 C31.0223487,22.3534435 31.0400205,22.3534435 31.0576923,22.3534435 C31.7645642,22.2131866 32.400749,22.0028013 32.9839183,21.7748838 C33.9735391,21.3541131 34.8748008,20.7930855 35.6700317,20.091801 C36.3945755,19.3905165 37.0661038,18.6366357 37.5962578,17.7775621 L37.6316014,17.7249658 C37.7376322,17.5496447 37.8259912,17.3743236 37.9143501,17.1990024 C37.9850373,17.0587455 38.0733963,16.9360207 38.1440835,16.7957638 C38.7802683,15.4457912 39.0983607,14.0081579 39.0983607,12.5179284 L39.0983607,2.3668352 C39.0983607,1.75321126 38.8686273,1.20971577 38.4091605,0.753880841 C37.9496937,0.298045914 37.3841962,0.0525963377 36.7126678,0.0350642251 C36.1118267,0.0701284503 35.5640009,0.315578026 35.0868624,0.788945066 C34.6097238,1.26231211 34.3623186,1.8058076 34.3623186,2.41943154 L34.3623186,12.149754" id="Shape"></path>
                <path d="M66.38552,19.786832 L66.38552,7.61435019 C66.38552,3.2483237 63.7294768,4.96359744e-15 59.3265057,4.96359744e-15 C57.4547973,4.96359744e-15 55.2443989,1.13516689 54.281806,2.37511841 L53.4796453,3.49282119 L52.6240072,2.28779788 C51.5366337,1.1700951 49.8788349,0 47.8110428,0 C43.0515558,0 40.5737705,3.37057244 40.5737705,7.61435019 L40.5737705,19.9090808 C40.5737705,21.3411374 41.5363634,22.5112325 42.9802527,22.5112325 C44.4419678,22.5112325 45.4402122,21.3411374 45.4402122,19.9090808 C45.4402122,19.8741525 45.4402122,19.8392243 45.4402122,19.8042961 L45.4402122,7.12535522 C45.4402122,5.69329853 46.6345404,4.61052397 48.1140813,4.61052397 C49.5579706,4.61052397 50.9483825,5.69329853 50.9483825,7.12535522 L50.9483825,17.5164982 L50.9483825,19.8042961 C50.9483825,19.8392243 50.9483825,19.8741525 50.9483825,19.9090808 C50.9483825,21.3411374 52.0892333,22.5112325 53.4796453,22.5112325 C54.8700572,22.5112325 56.010908,21.3411374 56.010908,19.9090808 C56.010908,19.8741525 56.010908,19.8392243 56.010908,19.786832 L56.010908,17.5164982 L56.010908,12.2772665 L56.010908,7.12535522 C56.010908,5.67583443 57.2943652,4.57559575 58.7739061,4.57559575 C60.2534469,4.57559575 61.5190783,5.64090622 61.5190783,7.12535522 L61.5190783,19.786832 C61.5190783,19.8217602 61.5190783,19.8566884 61.5190783,19.8916167 C61.5190783,21.3236733 62.5529744,22.4937684 63.9968637,22.4937684 C65.4585788,22.4937684 66.38552,21.3236733 66.38552,19.8916167 C66.4033458,19.8566884 66.38552,19.8217602 66.38552,19.786832" id="Shape"></path>
                <path d="M72.5761124,13.5102351 L77.5468384,13.4927574 C78.530445,13.4927574 79.7775176,14.29673 79.8477752,15.6250325 C79.9180328,16.9183797 78.9519906,18.106861 77.5644028,18.106861 L72.5936768,18.106861 L72.5761124,13.5102351 Z M76.9672131,4.35193859 C78.4601874,4.29950559 79.5843091,5.27825484 79.5843091,6.60655738 C79.5843091,8.1445919 78.4074941,9.01847515 76.9847775,9.01847515 L72.5936768,9.01847515 L72.5936768,4.35193859 L76.9672131,4.35193859 Z M84.8360656,16.4290051 C84.8360656,13.877266 83.1323185,11.7100356 80.7259953,10.8186746 L80.7962529,10.7837193 C82.8512881,9.77001475 84.0105386,7.93485992 84.0105386,5.68024113 C84.0105386,2.56921676 81.6217799,0.03495533 78.0210773,0 L70.4508197,0 C69.1159251,0.0524329951 67.8688525,1.15352589 67.8688525,2.39444011 C67.8688525,2.41191777 67.8688525,2.42939544 67.8688525,2.4468731 L67.8688525,19.8546275 C67.8688525,19.8721051 67.8688525,19.9420158 67.8688525,19.9594935 C67.8688525,21.2178853 69.0632319,22.5112325 70.4156909,22.5112325 L77.8629977,22.4937549 C78.0035129,22.5112325 78.1440281,22.5112325 78.2845433,22.5112325 C78.4601874,22.5112325 78.6358314,22.4937549 78.8114754,22.4937549 C79.3032787,22.4762772 79.795082,22.3888889 80.234192,22.2490676 C82.8864169,21.4625726 84.8360656,19.1555209 84.8360656,16.4290051 Z" id="Shape"></path>
                <path d="M17.7001801,14.3078386 L17.7001801,13.8530662 L17.7001801,11.631678 L17.7001801,5.66716344 L17.7001801,3.46326655 C17.7001801,2.95602044 17.7360105,2.43128308 17.6106043,1.95901946 C17.4314527,1.29435214 16.9835737,0.752123543 16.3923733,0.384807394 C15.9265791,0.0874562259 15.3891242,0 14.8516694,0 L13.2572199,0 L7.61394389,0 L7.11231935,0 C6.50320384,0 5.91200349,0.227386187 5.46412444,0.629684826 C4.37129955,1.64417705 4.55045117,3.4457753 5.82242768,4.23288133 C6.48528867,4.63517997 7.21981032,4.60019748 7.97224713,4.60019748 L10.8924185,4.60019748 L12.934747,4.60019748 C12.9705773,4.60019748 12.9526622,5.50974223 12.9526622,5.57970721 L12.9526622,11.2293794 L12.9526622,13.555715 C12.9526622,13.8005924 12.9526622,14.0279786 12.9526622,14.2728561 L12.9526622,14.3078386 C12.9526622,16.5117354 11.1074005,18.3133337 8.83217491,18.3133337 C6.61069481,18.3133337 4.78334828,16.5817004 4.72960279,14.4302773 C4.72960279,14.412786 4.72960279,14.3778035 4.72960279,14.3603123 C4.72960279,14.3253298 4.72960279,14.2903473 4.72960279,14.2553648 L4.72960279,14.2378736 C4.6758573,13.0134864 3.6367779,12.0514679 2.3648014,12.0514679 C1.05699456,12.0514679 0,13.0834514 0,14.3603123 C0,14.482751 0.0179151621,14.5876985 0.0358303242,14.7101372 C0.322472918,19.4152821 4.01299631,22.5112325 9.04715685,22.5112325 C17.8972469,22.4937413 17.7180953,13.3458201 17.7001801,14.3078386" id="Shape"></path>
                <path d="M107.704918,19.9696418 C107.704918,18.5595811 108.868125,17.428051 110.295697,17.428051 C111.72327,17.428051 112.868852,18.5769893 112.868852,19.9696418 C112.868852,21.3797024 111.72327,22.5112325 110.295697,22.5112325 C108.850501,22.5112325 107.704918,21.3797024 107.704918,19.9696418" id="Shape"></path>
                <path d="M134.981557,19.6729856 L134.981557,2.11207811 C134.981557,2.07801234 135,2.06097945 135,2.02691367 C135,0.902743064 134.022541,0 132.786885,0 C131.569672,0 130.57377,0.902743064 130.57377,2.02691367 L130.57377,19.8773803 L130.592213,19.8773803 C130.665984,20.9504522 131.606557,21.7850638 132.768443,21.7850638 C133.94877,21.7850638 134.889344,20.9334194 134.944672,19.8773803 L134.944672,19.8433145 C134.944672,19.8092487 134.963115,19.7922159 134.963115,19.7581501 C135,19.7240843 134.981557,19.7070514 134.981557,19.6729856" id="Shape"></path>
                <path d="M126.371745,16.9453232 C125.91972,16.9453232 125.521938,17.1198032 125.214561,17.381523 C125.214561,17.398971 125.19648,17.398971 125.178399,17.398971 C125.142237,17.433867 125.106075,17.451315 125.069913,17.486211 C124.075458,18.3760585 123.099084,18.9343943 121.724928,18.9343943 C119.374397,18.9343943 117.873674,17.1198032 117.873674,14.8864602 L117.873674,14.8341163 C117.873674,12.6705653 119.410559,10.8385262 121.562199,10.8385262 C123.099084,10.8385262 124.057377,11.4666539 125.01567,12.4437414 L125.051832,12.4262934 C125.395371,12.7752533 125.883558,13.0020771 126.444069,13.0020771 C127.510849,13.0020771 128.360656,12.1645735 128.360656,11.15259 C128.360656,10.5768063 128.07136,10.0882626 127.637416,9.73930272 L127.655497,9.72185473 C126.227097,8.18643147 124.455159,7.26168792 121.58028,7.26168792 C116.933462,7.26168792 113.606557,10.6989423 113.606557,14.8864602 L113.606557,14.9388042 C113.606557,19.1263222 116.951543,22.5112325 121.526037,22.5112325 C124.563645,22.5112325 126.263259,21.3945611 127.727821,19.8242418 L127.70974,19.8067939 C127.980955,19.510178 128.161765,19.1088742 128.161765,18.6726744 C128.179846,17.7304829 127.366201,16.9453232 126.371745,16.9453232" id="Shape"></path>
            </g>
        </g>
    </g>
</svg>