<?xml version="1.0" encoding="UTF-8" standalone="no"?>
<svg width="100px" height="96px" viewBox="0 0 100 96" version="1.1" xmlns="http://www.w3.org/2000/svg" xmlns:xlink="http://www.w3.org/1999/xlink">
    <!-- Generator: Sketch 48.2 (47327) - http://www.bohemiancoding.com/sketch -->
    <title>yoghurt-granola</title>
    <desc>Created with Sketch.</desc>
    <defs>
        <polygon id="path-1" points="5.76104164e-05 0.166443686 60.5339901 0.166443686 60.5339901 95.9999509 5.76104164e-05 95.9999509"></polygon>
    </defs>
    <g id="Page-2" stroke="none" stroke-width="1" fill="none" fill-rule="evenodd">
        <g id="yoghurt-granola">
            <g id="Group-3">
                <mask id="mask-2" fill="white">
                    <use xlink:href="#path-1"></use>
                </mask>
                <g id="Clip-2"></g>
                <path d="M56.397151,21.0515222 C56.0712039,22.392901 55.7544016,23.6966007 55.4209426,25.0691058 C55.6433575,25.4488464 55.9209677,25.9229488 56.2113154,26.4180205 C56.9755602,26.0952901 57.4311677,25.6166007 57.4465179,24.7991263 C57.4579489,24.2047782 57.5242488,23.6045324 57.4648076,23.0173925 C57.4118983,22.4938157 57.2430459,21.9767918 57.0826852,21.4705802 C56.9755602,21.1337611 56.7547784,20.8958908 56.397151,21.0515222 M4.95073862,17.6122321 C4.34032258,18.5961502 3.79228721,19.4404915 3.29258868,20.3133379 C3.17501256,20.519099 3.1172043,20.8700068 3.2115918,21.0675768 C3.58783539,21.8568737 4.18355442,22.4528601 5.10946639,22.9420341 C5.20809969,22.5596724 5.29301578,22.3060751 5.33580042,22.0452696 C5.38805648,21.7277816 5.36192845,21.3929283 5.44586474,21.0862526 C5.6999598,20.1541024 5.99096071,19.2317816 6.30710984,18.1728328 C5.91061702,18.0090102 5.49550799,17.8373242 4.95073862,17.6122321 M52.8097729,26.4901024 C37.7276957,31.8608601 22.8850166,31.5961229 8.28500151,24.7473584 C8.04005125,25.3797133 8.32876595,25.6994949 8.72068636,25.9468669 C9.49864838,26.4383345 10.2674656,26.9520819 11.0807004,27.3786758 C14.107959,28.9657884 17.3393428,29.9510171 20.6987539,30.5083413 C26.3737614,31.4503208 32.087961,31.6659113 37.8318812,31.4604778 C42.750809,31.2845324 47.4822681,30.2665392 52.0732891,28.5283823 C52.2911315,28.4461433 52.4932972,28.3232765 52.7016682,28.2197406 C52.8623555,27.6319454 53.1527032,27.0910034 52.8097729,26.4901024 M25.584695,4.43533106 C25.8665511,5.22364505 26.3907446,5.9287372 27.0935886,6.50309898 C28.102457,7.32745392 29.2517636,7.89722867 30.5268114,8.11773379 C32.045503,8.38050512 33.5775852,8.59380205 35.1129334,8.72387713 C36.6584062,8.85493515 38.213677,8.75893515 39.6837052,8.21176792 C40.4247613,7.93621843 41.1602653,7.56827304 41.7951764,7.10105119 C42.7060647,6.43068942 42.6410712,5.84060068 41.7190785,5.21447099 C41.5962768,5.13124915 41.463677,5.06244369 41.3369561,4.98479181 C40.0380665,4.19025256 38.5967792,3.84163823 37.1071551,3.71189078 C34.8598181,3.51628669 32.6098684,3.30724915 30.3569792,3.24139249 C29.0927093,3.2043686 27.8192945,3.43142662 26.5524118,3.56576109 C26.0912521,3.61490785 25.6816953,3.79314676 25.584695,4.43533106 M11.6378806,48.5396314 C11.6960155,48.8138703 11.7090795,48.9940751 11.7717868,49.1549488 C12.4436037,50.8790171 13.6935032,51.9910444 15.440815,52.5211741 C16.1766456,52.7443003 16.9402372,52.8973106 17.7018692,53.006744 C19.8345694,53.3134198 21.8702693,53.9333242 23.8197468,54.8389352 C24.813265,55.3002594 25.8623053,55.4214881 26.9361672,55.4739113 C28.1204201,55.5319044 29.3161039,55.543372 30.4830469,55.7258703 C32.7532459,56.0807099 35.0338961,56.1272355 37.3168325,56.0908669 C38.2273942,56.0764505 39.1454678,55.9113174 40.0416591,55.7258703 C41.6384082,55.3952765 43.2256859,55.0158635 44.8087177,54.6226894 C46.627555,54.1708669 48.2621897,53.3471672 49.5715305,51.9795768 C50.3076877,51.2099386 50.1300171,50.1431263 49.1832027,49.6713174 C48.7213898,49.4409829 48.1678022,49.2997679 47.6543865,49.2955085 C46.9812632,49.2899386 46.3016079,49.4331195 45.6333836,49.5592628 C44.5866295,49.7571604 43.5591448,49.7692833 42.5878354,49.2817474 C40.1843835,48.075686 37.6320018,47.7106894 34.978374,47.8646826 C33.8744649,47.928901 32.8009296,47.7595085 31.7189026,47.5177065 C30.4209929,47.2280683 29.0982615,47.0072355 27.7745503,46.8879727 C25.8580595,46.7153038 23.9317707,46.6464983 22.0084213,46.5642594 C21.4496081,46.5400137 20.8744649,46.5609829 20.3270827,46.666157 C18.689182,46.9813515 17.0444227,47.1654881 15.3754949,47.1389488 C13.9714401,47.1166689 12.8149482,47.7588532 11.6378806,48.5396314 M22.4604361,5.38222526 C22.2076475,5.41990444 22.0273641,5.42219795 21.8630841,5.4756041 C20.0488192,6.06569283 18.2930158,6.79372014 16.7302331,7.90738567 C14.6899608,9.36114676 12.8054768,11.0078908 11.2613104,12.9881775 C10.6136619,13.81843 10.1714451,14.8167645 9.68611697,15.764314 C9.51497839,16.0978567 9.43071551,16.5061024 9.41503869,16.8845324 C9.35331123,18.3789215 9.50681339,19.8457884 10.0577882,21.256628 C10.3402975,21.9803959 10.7413627,22.5269078 11.4997287,22.8443959 C17.2449553,25.2489829 23.1818963,26.8092287 29.4278012,27.0841229 C36.3811225,27.3901433 43.1717968,26.5064846 49.7740227,24.2866894 C50.8890363,23.9115358 51.9351372,23.3299659 52.8378605,22.9230307 C53.5452769,21.8306621 53.4277007,20.9610922 52.8316551,20.0875904 C52.5491458,19.6731195 52.3450206,19.2019659 52.1284846,18.745884 C50.5131193,15.3449283 48.5286956,12.1739795 46.2261632,9.20223891 C45.9256909,8.81430717 45.5625113,8.47519454 45.2143553,8.09807509 C44.9987991,8.25927645 44.8590142,8.32546075 44.7724651,8.43391126 C43.3801678,10.1782935 41.484906,11.0576928 39.3711486,11.4695427 C35.5224902,12.2188669 31.7322932,11.8021024 28.0564064,10.5409966 C25.8244197,9.77496246 24.077761,8.32087372 23.0163099,6.13515358 C22.8804442,5.85567235 22.6433323,5.62533788 22.4604361,5.38222526 M50.7649281,48.2424573 C50.8054266,47.9416792 50.8586624,47.662198 50.8779319,47.3804232 C50.9752588,45.9554949 51.0382926,44.5276177 51.1604412,43.1049829 C51.4556879,39.6650375 51.7793488,36.2277133 52.0837403,32.7884232 C52.1075822,32.5168055 52.0683901,32.2392901 52.0546729,31.8552901 C51.548769,31.9965051 51.1784042,32.079727 50.8217566,32.2022662 C47.034499,33.5053106 43.1352176,34.2379249 39.1438348,34.4571195 C34.0684655,34.7359454 29.0032208,34.6173379 23.9451613,34.0580478 C18.9194352,33.5023618 14.0576625,32.4001638 9.53392121,30.048 C9.34220681,29.9483959 9.11815898,29.9116997 8.89868355,29.8425666 C8.65210029,31.2327645 10.6401166,45.433884 11.1972968,46.4515495 C11.2515124,46.4515495 11.3148729,46.4679317 11.3648427,46.448273 C11.5023415,46.3942116 11.6385338,46.3335973 11.7672144,46.2608601 C13.0690433,45.5292287 14.4606874,45.2625256 15.9545573,45.2507304 C17.1923726,45.2412287 18.4354135,45.0554539 19.6634308,44.8664027 C20.7274947,44.7029078 21.7762084,44.6416382 22.8513767,44.740587 C24.2070948,44.8650922 25.5745704,44.862471 26.9309416,44.9830444 C28.4346096,45.1163959 29.9572204,45.2084642 31.4236559,45.5357816 C32.9168727,45.8689966 34.3839614,46.0482184 35.9134308,45.9866212 C38.1607678,45.8958635 40.3738117,46.221215 42.4199628,47.1916997 C43.6110743,47.7562321 44.7437242,47.9092423 46.0262838,47.5881502 C47.535504,47.2100478 49.0349261,47.3257065 50.4076274,48.181843 C50.4736006,48.2231263 50.5725605,48.2119863 50.7649281,48.2424573 M11.9164707,52.8806007 C11.9582756,53.2767235 11.9798312,53.5935563 12.0268616,53.9064573 C12.6251934,57.8801365 13.164084,61.8636451 13.8421063,65.8235631 C14.9267461,72.1598908 16.1034871,78.4804915 17.2433223,84.8073174 C17.3599186,85.454744 17.4778213,86.0920137 18.1404934,86.4619249 C18.3286152,86.5667713 18.4804844,86.8079181 18.5640941,87.0202321 C19.1614461,88.5408328 20.3522309,89.4815017 21.7657572,90.0833857 C23.2893478,90.7317952 24.8625817,91.3127099 26.4658627,91.7130922 C31.2312883,92.9024437 35.9934479,92.8159454 40.7010652,91.3494061 C43.1972716,90.5719044 45.1307457,89.007727 46.7255351,86.9589625 C47.3013315,86.2188123 47.5593458,85.429843 47.6344639,84.5062116 C47.8862727,81.4207782 48.1949101,78.3402594 48.4748066,75.2574471 C49.075098,68.6468805 49.6744096,62.0359863 50.2590242,55.4241092 C50.2936439,55.0342116 50.1972968,54.6328464 50.1522259,54.128273 C49.8128882,54.3291195 49.6074565,54.4388805 49.4144357,54.5666621 C47.8085419,55.630198 46.0778866,56.3644505 44.1649884,56.6707986 C43.3177872,56.8064437 42.4918149,57.0711809 41.649186,57.2425392 C40.3725053,57.5026894 39.0919053,57.9171604 37.808366,57.9351809 C35.4712139,57.9672901 33.1298161,57.7723413 30.7920109,57.6412833 C29.5790172,57.5734608 28.3709225,57.3781843 27.1582555,57.3513174 C25.5288463,57.3156041 23.9912119,57.003686 22.5084464,56.3094061 C21.0511557,55.6269215 19.5069892,55.2068805 17.914486,54.9411604 C15.9245101,54.6095836 13.9133052,54.3052014 12.2701789,52.9618567 C12.230007,52.9287645 12.1588082,52.9340068 11.9164707,52.8806007 M6.61672696,14.9337338 C6.7490001,14.7414061 6.8404482,14.6539249 6.87800724,14.5474403 C7.81175761,11.8977747 9.68611697,9.95254608 11.6780525,8.09873038 C13.1833534,6.69772014 14.8552206,5.52409556 16.5483168,4.35669625 C20.1788062,1.85348805 24.24694,0.667412969 28.5391217,0.242457338 C30.4712893,0.051440273 32.452447,0.263754266 34.4042106,0.400054608 C36.0884886,0.518006826 37.7792986,0.698539249 39.4364687,1.01340614 C41.3888855,1.3839727 43.1352176,2.23847099 44.6003467,3.6516041 C45.4289318,4.45073038 46.3943624,5.1047099 47.2516883,5.87631399 C47.80103,6.37073038 48.3030148,6.93034812 48.7612351,7.51224573 C51.0889157,10.4682594 53.0550497,13.6536246 54.6962165,17.0414744 C54.8497186,17.3586348 55.0237966,17.6659659 55.1723998,17.9470853 C55.7334991,18.1449829 56.1639584,17.9483959 56.5976836,17.7485324 C57.7417646,17.2220068 58.3348709,17.5640683 58.992644,18.5994266 C60.4692041,20.92243 60.6664707,23.4413652 60.4708371,26.0726826 C60.4287057,26.6378703 60.3006783,27.1267167 59.8672797,27.5035085 C58.7447543,28.4802184 57.6274545,29.4733106 56.2629183,30.1010785 C55.6753643,30.3713857 55.410818,30.7704573 55.3494171,31.3929829 C55.062662,34.296901 54.7053613,37.1949215 54.4698824,40.1027713 C53.8228871,48.0878089 53.2595016,56.0793993 52.5935635,64.062471 C52.1680032,69.1668532 51.6167018,74.2604232 51.1277811,79.3592355 C50.98571,80.8415017 50.8406994,82.3240956 50.7489247,83.8099659 C50.7247563,84.2024846 50.8260024,84.636942 50.987343,84.9989898 C51.2933675,85.6850785 51.2976133,86.3269352 50.9102653,86.9599454 C48.8023867,90.4025119 46.1004221,93.1881502 42.18775,94.4957816 C36.2625666,96.4760683 30.2857803,96.4416655 24.2988695,94.7415154 C23.7563863,94.5875222 23.2184755,94.4145256 22.6841574,94.2333379 C20.4038338,93.4591126 18.3047734,92.3847645 16.7223947,90.5103072 L16.0603758,90.5103072 C15.9254899,90.3382935 15.7458597,90.1954403 15.6795598,90.0113038 C15.2771882,88.896 14.7598533,87.7983891 14.5387448,86.6450785 C13.3224852,80.2992491 12.0474374,73.9603003 11.0428148,67.5790853 C9.39413627,57.1068942 7.92508793,46.6065256 6.40900914,36.1136928 C6.03047935,33.4912218 5.74503065,30.8546621 5.45435635,28.2203959 C5.38087127,27.5542935 5.17576625,27.0336655 4.62544468,26.6273857 C3.9807356,26.1513174 3.33765953,25.6611604 2.76120993,25.1064573 C2.03681037,24.4102116 1.2996734,23.7011877 0.714405587,22.8915768 C-0.134428701,21.716314 -0.243186614,20.3831263 0.476313938,19.0951536 C1.1135112,17.9546212 1.81374234,16.8432491 2.56263692,15.7725051 C3.3040197,14.7125734 4.37167621,14.3813242 5.62810773,14.6857065 C5.94164406,14.7617201 6.25387398,14.8423208 6.61672696,14.9337338" id="Fill-1" fill="#FFFFFF" mask="url(#mask-2)"></path>
            </g>
            <path d="M70.1374686,78.9862881 C70.7793221,78.6118997 70.8967026,78.4751101 71.1932429,77.6342758 C71.7752681,75.9846977 72.0474218,74.2702903 72.2395876,72.5399999 C72.7146373,68.2680819 73.1887115,63.9958397 73.6702642,59.72457 C73.9190068,57.5187576 74.3521116,55.3618912 75.3695177,53.356725 C75.5951744,52.9123211 75.7138555,52.4134606 75.9398374,51.9693808 C76.1476106,51.5609571 76.3931017,51.1560989 76.6951696,50.8138009 C77.1214461,50.3311478 77.6816861,49.9570835 78.0660178,49.4481745 C78.7930616,48.4851372 79.4901912,47.4906578 80.1021306,46.4520945 C81.3656781,44.3065732 82.0686605,41.9873098 82.0537034,39.476152 C82.0452495,38.0700073 81.585482,36.8171836 80.7615424,35.6940183 C78.9101169,33.1698947 75.7281623,33.0713543 73.733344,35.4894823 C72.4109437,37.0923835 71.8289185,38.9552496 72.1222071,41.0093618 C72.3377841,42.521178 72.7143121,44.0109522 73.0352389,45.5068853 C73.3818528,47.1230764 73.6936752,48.7454263 73.589626,50.4069979 C73.4007117,53.4199335 72.9103798,56.3823023 71.7469797,59.1861638 C70.5562667,62.0555027 69.7189957,65.0266235 69.0117863,68.039559 C68.4427672,70.4641699 68.2522271,72.9299473 68.3998469,75.4093388 C68.4479697,76.2161378 68.6885835,77.0265024 68.9454549,77.8012109 C69.1301423,78.3584176 69.5167501,78.8284291 70.1374686,78.9862881 M65.4259907,73.5568453 C65.4734631,68.4735903 66.8400844,63.6655351 68.6625712,58.9787104 C69.4702531,56.9015839 70.0337446,54.7852357 70.3988922,52.6017894 C70.753635,50.4809032 70.6456839,48.3836796 70.1706343,46.2874284 C69.7801246,44.566214 69.347345,42.8404616 69.1516024,41.0926672 C68.8124671,38.0632002 69.7505356,35.3718174 71.8513541,33.1517425 C75.1250021,29.6931064 80.2546277,30.0289215 83.1032998,33.8506009 C84.7989766,36.1248081 85.3153208,38.6842637 84.9215596,41.4628418 C84.5173935,44.31727 83.4895824,46.9315062 81.826421,49.2779979 C81.0112605,50.4280674 80.0634373,51.4847828 79.1838964,52.5901201 C78.9650679,52.8649958 78.7381106,53.1450578 78.5843129,53.4568861 C77.5851154,55.4776112 76.8795317,57.5784004 76.643145,59.8428832 C76.1541137,64.5284113 75.6361438,69.2119945 75.0489161,73.8865017 C74.8590263,75.3973454 74.4594123,76.887768 74.0741051,78.3668454 C73.8126815,79.3707251 73.3155214,80.2793059 72.5380788,81.010903 C71.3483412,82.1305028 69.8945788,82.3337422 68.4639022,81.5412056 C67.4773857,80.9940474 66.769526,80.1775241 66.2775684,79.1736444 C65.7098499,78.0157955 65.4617576,76.7801516 65.4289171,75.4997755 C65.4120091,74.8524563 65.4259907,74.2044887 65.4259907,73.5568453" id="Fill-4" fill="#FFFFFF"></path>
            <path d="M90.4282523,29.9413973 C90.5714776,29.8961672 90.8433522,29.8218842 91.107305,29.724821 C93.3593012,28.8984636 95.6093961,28.067154 97.8610754,27.239476 C98.0505638,27.1694849 98.2422702,27.0971828 98.4387297,27.0578953 C99.1209511,26.9202241 99.7204695,27.2860267 99.9346737,27.954574 C100.133668,28.5752499 99.8687647,29.2127633 99.2663945,29.5287138 C99.0876798,29.6221453 98.8912203,29.6795909 98.7010982,29.7489217 C96.3388312,30.6092842 93.9787823,31.4772401 91.6111286,32.3217556 C91.1808189,32.4752738 90.721674,32.6033708 90.2714016,32.6202083 C89.450391,32.6509119 88.8442184,32.0635808 88.7887661,31.3049035 C88.7269764,30.4587373 89.4418355,29.702371 90.4282523,29.9413973" id="Fill-6" fill="#FFFFFF"></path>
            <path d="M89.7184075,21.1334121 C89.6309646,21.2658851 89.5147212,21.646824 89.2409418,21.8189121 C88.4820628,22.2955611 88.0510945,22.9984917 87.566342,23.6599057 C87.0597287,24.3504763 86.6377823,25.0927051 86.1599696,25.8013403 C85.9472614,26.1166766 85.7293483,26.4453236 85.4406481,26.6975926 C84.9510376,27.1254359 84.2188773,27.1279712 83.7084471,26.7698506 C83.191077,26.4072931 83.0036994,25.7671128 83.3638807,25.2277134 C84.4430364,23.6114168 85.5541156,22.0122338 86.6724818,20.4181216 C86.9656929,20.0001029 87.3730655,19.6784282 87.943873,19.5931765 C88.9081732,19.4486605 89.75623,20.0850377 89.7184075,21.1334121" id="Fill-8" fill="#FFFFFF"></path>
            <path d="M77.5638707,22.429918 C77.5638707,22.9033499 77.5800458,23.377764 77.5602395,23.850541 C77.5285496,24.5980134 77.0343842,25.1254676 76.3619628,25.1631195 C75.7076972,25.1994618 75.1267145,24.7191543 75.0210813,23.9887072 C74.9448274,23.46289 74.950109,22.9262684 74.9101665,22.3948853 C74.8613111,21.7466176 74.7556779,21.097695 74.7672315,20.4510643 C74.7748239,20.0296903 74.8649422,19.5664081 75.0666357,19.2029853 C75.3419422,18.7063074 75.9499933,18.547842 76.4774992,18.6915741 C77.0149081,18.8379254 77.3681191,19.2553705 77.4110326,19.8594382 C77.4711115,20.7149552 77.5031316,21.5724366 77.5473655,22.4292632 C77.5529773,22.4295906 77.5582589,22.4295906 77.5638707,22.429918" id="Fill-10" fill="#FFFFFF"></path>
            <path d="M92.617858,36.4787383 C93.0576705,36.436381 93.4971776,36.3863527 93.9379064,36.3536675 C94.6590156,36.300304 95.2209982,36.7659007 95.3144584,37.4799712 C95.4024209,38.1523515 95.0264423,38.788378 94.3425949,38.9407975 C93.7793906,39.0662018 93.1914468,39.0678694 92.6132767,39.1022221 C92.0888613,39.1329062 91.5629189,39.1465806 91.0375873,39.14558 C90.2782999,39.1442459 89.7657962,38.6689771 89.7224258,37.9509043 C89.6796662,37.2435042 90.1295578,36.7015309 90.877239,36.5617852 C90.9862759,36.5414404 91.0965344,36.5260984 91.206793,36.5197615 C91.6762317,36.4917456 92.1456705,36.4680656 92.6154146,36.4427179 C92.6160255,36.4547247 92.6169418,36.4667315 92.617858,36.4787383" id="Fill-12" fill="#FFFFFF"></path>
            <path d="M32.0161848,63.3786408 C29.9512169,63.3603432 27.9773507,62.8939211 26.0451975,62.2594938 C24.4240576,61.7268677 22.790237,61.3622467 21.0756596,61.2661012 C20.316814,61.2238504 19.5075789,60.9779974 18.8428381,60.6077208 C17.6435016,59.9390272 16.3967789,59.4230352 15.1100117,58.9665936 C14.5460499,58.7669836 13.9981059,58.4868642 13.4942111,58.1634959 C13.0560561,57.8823784 12.9896488,57.4838237 13.1972134,57.151473 C13.4221307,56.7908442 13.7935446,56.7579086 14.3031125,57.0559929 C14.4075622,57.1172066 14.4973289,57.2110234 14.608119,57.2516107 C16.5406059,57.9562342 18.4517356,58.7031084 20.2677593,59.6848571 C20.640508,59.8864632 21.1527455,59.8615119 21.6032475,59.8828037 C23.0365114,59.9513365 24.415715,60.2520822 25.7862423,60.6702653 C27.1444225,61.0851215 28.5289654,61.4217971 29.9155105,61.7345194 C31.2603425,62.037594 32.6205249,61.9557539 33.9830432,61.778101 C34.9718118,61.6496852 35.9745959,61.6270627 36.9680363,61.5282557 C38.1416775,61.4118166 39.3179883,61.2993696 40.480951,61.1117361 C40.9387945,61.0378804 41.3812876,60.7960196 41.7994202,60.5724564 C42.1294547,60.3964668 42.4304568,60.3219458 42.717777,60.5767812 C43.0331284,60.8572333 43.0818494,61.26843 42.8289008,61.5571992 C42.5676096,61.8562816 42.1928587,62.1566947 41.8194426,62.2395328 C40.5513628,62.520983 39.2686,62.7628438 37.9791631,62.9142148 C36.3573558,63.104177 34.7235351,63.19134 33.0943863,63.3187578 C32.7323161,63.3473685 32.3689112,63.3593451 32.0161848,63.3786408" id="Fill-14" fill="#FFFFFF"></path>
            <path d="M44.805617,60.5825243 C44.2780369,60.4552994 43.9536943,60.203852 43.9276052,59.7692609 C43.8982952,59.2791262 44.1430821,59.0096647 44.5279772,58.9199693 C45.3006662,58.7409538 46.0578951,58.5544324 46.687255,57.9243128 C46.9256001,57.6860007 47.247366,57.7734444 47.4747601,58.0571671 C47.7024763,58.3401392 47.7250225,58.6741514 47.5378894,58.9860212 C47.4071216,59.203692 47.2528415,59.458517 47.0573341,59.5572195 C46.3181422,59.929887 45.5580145,60.245885 44.805617,60.5825243" id="Fill-16" fill="#FFFFFF"></path>
            <path d="M41.7976687,21.3881935 C41.7175538,22.7850426 42.6484892,23.5346528 43.7473455,22.9791143 C43.1769272,22.3538834 42.6135591,21.7926762 41.7976687,21.3881935 M40.2405551,16.9895693 C39.6775075,17.1466272 39.1952156,17.3193577 38.6988236,17.4093909 C38.1889722,17.5020918 37.6656615,17.5137628 37.0103215,17.5734515 C38.1924973,18.4064258 39.6919281,18.1196532 40.2405551,16.9895693 M40.296956,19.6592217 C39.852158,19.7469208 39.5172776,19.8092771 39.1836791,19.8789695 C37.7323172,20.1820815 36.4748334,19.7499219 35.3695679,18.7738948 C34.2928234,17.822877 34.3158965,16.5787509 35.4429532,15.6877552 C35.6313835,15.5390336 35.9265268,15.4950174 36.1761649,15.4826795 C36.4927791,15.4673405 36.8148411,15.5243615 37.1324166,15.5667105 C37.8412735,15.6614121 38.5155206,15.5640429 39.1872041,15.2929428 C39.6428978,15.1085413 40.1325602,14.9548179 40.6161339,14.9184711 C41.5948178,14.8451107 42.2668217,15.467007 42.2517601,16.4877173 C42.2421463,17.1336224 42.0261565,17.7758596 41.87522,18.5654845 C42.8603131,19.4951611 43.9348144,20.4985316 44.9984201,21.51424 C46.2462901,22.7060134 46.0011384,24.1818918 44.4440248,24.9068261 C42.6949559,25.7207934 40.5020502,24.5280196 40.0014922,22.4845984 C39.772684,21.5512537 39.8406214,20.6362492 40.296956,19.6592217" id="Fill-18" fill="#FFFFFF"></path>
            <path d="M12.2314535,17.5904916 C11.8693193,19.1533843 12.3576042,20.4678206 13.336057,20.8711368 C12.9867889,19.8337463 12.6422279,18.8103103 12.2314535,17.5904916 M14.1372083,23.300904 C13.2792577,23.2393004 12.3943197,22.9091598 11.7099049,22.1522187 C10.3837531,20.685305 9.97705823,18.9056086 10.5033139,16.9553962 C10.6683768,16.3441255 11.108963,15.7611039 11.5495491,15.3101385 C12.2562443,14.5872326 13.3134628,14.8915066 13.7374171,15.8894163 C13.925388,16.3315325 14.0242375,16.8250417 14.118066,17.3056176 C14.3386729,18.4366047 14.6810372,19.5025846 15.3698453,20.4096206 C15.4595944,20.5277224 15.5342806,20.6614804 15.6036321,20.7959192 C16.3024821,22.1508573 15.6745527,23.3111145 14.1372083,23.300904" id="Fill-20" fill="#FFFFFF"></path>
            <path d="M20.6513831,22.5989782 C20.3783621,21.522606 20.2651583,20.5032514 19.504029,19.6277667 C19.2546476,19.6698669 19.006598,19.711967 18.7785256,19.7507522 C18.6876296,20.8904404 19.4790575,22.1292464 20.6513831,22.5989782 M16.8224299,19.8097588 C16.8224299,18.7317291 17.2289649,18.1887363 18.2531266,17.9003336 C19.9571773,17.4196623 20.8747942,17.8161332 21.6472439,19.400028 C21.8443518,19.8041233 21.9648806,20.2446834 22.1253637,20.6666797 C22.4563184,21.5361974 22.7899368,22.4047207 23.1238881,23.2729125 C23.1778264,23.4134674 23.2524077,23.5470609 23.2956915,23.6902678 C23.5467377,24.5219948 23.0922576,25.1488565 22.2329073,25.1644369 C19.5672899,25.211841 16.8230958,22.4958825 16.8224299,19.8097588" id="Fill-22" fill="#FFFFFF"></path>
            <path d="M34.1162658,24.1643827 C35.4946286,24.2986388 36.97362,22.8984063 36.3797873,21.8854392 C35.6315953,22.6385757 34.8706694,23.4047348 34.1162658,24.1643827 M33.285459,26.0969888 C32.2937707,26.1090812 31.4943327,25.0061965 31.8704475,24.0381881 C32.0571072,23.5582147 32.3881876,23.0943644 32.7618178,22.7350045 C33.592314,21.9353589 34.4656705,21.1924543 35.1762821,20.2647537 C35.8788186,19.3472852 36.8906947,19.3457349 37.6208729,20.2390187 C37.943257,20.6334155 38.1948284,21.1605181 38.2780644,21.6603353 C38.5246665,23.1393232 37.5954052,24.7662098 36.2350561,25.4154762 C35.5437006,25.7453804 34.0634669,26.0873769 33.285459,26.0969888" id="Fill-24" fill="#FFFFFF"></path>
            <path d="M27.8869744,24.1217082 C28.303472,24.1032939 28.6652655,24.0444869 28.8268915,23.4858208 C28.4206509,23.7608473 28.1536572,23.9414263 27.8869744,24.1217082 M27.0051805,26.0970874 C26.0267218,26.0944143 25.1955914,25.8170118 24.5798587,25.032919 C24.197862,24.5461281 24.1761046,24.0807215 24.6985916,23.7041194 C25.0973726,23.4166187 25.5716826,23.2250506 26.0121133,22.9904168 C26.5970749,22.6791557 27.1842123,22.3714587 27.7654441,22.0536635 C27.9597061,21.9473358 28.1309674,21.8018034 28.325851,21.6960697 C28.9061504,21.3803536 29.504788,21.3280807 30.0850874,21.6791404 C30.6650759,22.0299031 30.8801627,22.5796591 30.8354048,23.2063393 C30.7636056,24.2149677 30.2551054,24.9957934 29.3437837,25.5054537 C28.6276564,25.9064103 27.8350676,26.0849102 27.0051805,26.0970874" id="Fill-26" fill="#FFFFFF"></path>
            <path d="M50.2574082,19.5948716 C49.7443938,20.1658474 49.3273562,20.7139465 49.1196912,21.4293897 C50.0989271,21.2131585 50.4708796,20.6133519 50.2574082,19.5948716 M52.3364486,19.8891341 C52.2930712,21.1692855 51.7120875,22.283033 50.3912975,22.9777933 C49.5517573,23.419657 48.690016,23.451935 47.9058076,22.8007344 C47.7517667,22.6725625 47.5396615,22.6026791 47.3541976,22.5067853 C46.7339352,22.1874525 46.5652074,21.7374409 46.8927579,21.1548701 C47.1475573,20.7017247 47.4631534,20.2780369 47.7261501,19.828652 C48.0905884,19.205342 48.4314595,18.5701237 48.7815526,17.9399194 C48.8515712,17.8136278 48.9086107,17.6807553 48.9861435,17.5585377 C49.5821556,16.623416 50.5221127,16.5153004 51.3544803,17.2981201 C52.0912127,17.9910001 52.313906,18.8618791 52.3364486,19.8891341" id="Fill-28" fill="#FFFFFF"></path>
            <path d="M23.364486,19.7533443 C23.4068088,18.5472732 23.8017248,17.5405929 24.8662176,16.9988336 C25.4820881,16.6856441 26.1032125,16.6687851 26.6586635,17.174881 C27.1846344,17.6543916 27.1396846,18.2788251 27.0413204,18.9512422 C26.8793261,20.0568074 26.491999,21.0112894 25.8025743,21.8390043 C25.2587986,22.4922929 24.9759651,22.5130425 24.317188,22.0575237 C23.5235615,21.5089559 23.3960092,20.6867526 23.364486,19.7533443" id="Fill-30" fill="#FFFFFF"></path>
            <path d="M24.2964495,14.76032 C24.2508109,14.9522402 24.1592122,15.270661 24.1020032,15.5954234 C24.0026909,16.1561643 23.8799165,16.7182402 23.851312,17.2843215 C23.8246359,17.8136876 23.7195385,18.2442565 23.1966225,18.4335065 C22.6074983,18.6471221 22.0000543,18.8263589 21.4899942,18.2719597 C20.4409482,17.1314528 20.025058,14.8918271 21.6208036,13.5126716 C21.9306322,13.2449846 22.4011602,13.0894457 22.8112652,13.0547332 C23.7388224,12.9756287 24.3440166,13.6608674 24.2964495,14.76032" id="Fill-32" fill="#FFFFFF"></path>
            <path d="M28.0997243,15.0716785 C28.1285375,15.1259592 28.1573506,15.1805154 28.1861637,15.2347961 C28.4315504,15.1524107 28.6772536,15.0700253 29.0024305,14.9609129 C28.3976712,14.5974805 28.3976712,14.5974805 28.0997243,15.0716785 M28.3039493,16.7766975 C27.0273056,16.7753198 26.14708,16.1074197 26.1686107,15.1570948 C26.1945742,14.0304267 27.2926398,13.0346383 28.4932928,13.0486906 C29.7430232,13.0632941 30.8480546,13.9124971 30.8410887,14.8529027 C30.8334897,15.8638455 29.627454,16.7780752 28.3039493,16.7766975" id="Fill-34" fill="#FFFFFF"></path>
            <path d="M31.620505,18.441 C31.5784898,18.5069484 31.5364745,18.5731811 31.4947303,18.6394138 C31.6321609,18.7076363 31.7695915,18.776143 31.907022,18.8446498 C31.9333155,18.7909246 31.9596089,18.7374836 31.9859023,18.6837584 L31.620505,18.441 Z M29.9070953,18.3088189 C29.9285096,17.3312472 30.5110309,16.7632949 31.477382,16.7769394 C32.660044,16.7942793 33.6648866,17.7582064 33.6445566,18.8565887 C33.6274794,19.7798666 32.8598199,20.5158169 31.9259967,20.5047307 C30.7761337,20.490802 29.881073,19.51721 29.9070953,18.3088189 Z" id="Fill-36" fill="#FFFFFF"></path>
            <path d="M16.7513971,16.7766983 C15.7408483,16.7775658 14.9441549,15.9624701 14.9533498,14.937167 C14.9628413,13.8861301 15.8508904,13.0325783 16.9180917,13.0487703 C17.8174119,13.0623601 18.6817322,14.0497854 18.6915203,15.0747993 C18.7004186,16.0214553 17.8405475,16.7758309 16.7513971,16.7766983" id="Fill-38" fill="#FFFFFF"></path>
            <path d="M18.663219,12.1165049 C18.1817254,11.873641 17.6648277,11.6888857 17.2288145,11.3718217 C16.7753716,11.042242 16.720904,10.5469785 16.9687317,10.0144659 C17.333937,9.22955375 17.9181021,8.71223881 18.6839167,8.467289 C19.4472803,8.22323316 20.0532325,8.55370682 20.3729574,9.33921498 C20.9514034,10.7618311 20.1409253,12.0601843 18.663219,12.1165049" id="Fill-40" fill="#FFFFFF"></path>
            <path d="M44.8589496,14.9126214 C44.5653158,14.8368126 44.2892214,14.8007779 44.0367145,14.6943736 C42.9030038,14.2167443 42.6734795,13.238029 43.4331171,12.1794255 C44.1029408,11.2459235 44.8274996,10.9743037 45.6624356,11.3434891 C46.3531252,11.6494439 46.717219,12.189284 46.7287103,12.926635 C46.7405041,13.6826832 46.3528228,14.3782204 45.7138442,14.6685375 C45.4395643,14.7926191 45.1362536,14.8361327 44.8589496,14.9126214" id="Fill-42" fill="#FFFFFF"></path>
            <path d="M47.6632287,17.8904697 C47.614582,18.0248665 47.5495987,18.3410943 47.3902262,18.6158962 C46.9502275,19.3738942 46.0778537,19.7245908 45.2613874,19.511137 C44.4739639,19.3052727 43.8640647,18.4713801 43.9301371,17.6766997 C43.9421173,17.5353459 44.000566,17.3971544 44.0332391,17.2570655 C44.3167697,16.0525539 44.7084847,15.7578296 45.8858081,15.8650309 C46.9436928,15.9611641 47.6334598,16.6445323 47.6632287,17.6254708 C47.6639548,17.6539313 47.6632287,17.6827081 47.6632287,17.8904697" id="Fill-44" fill="#FFFFFF"></path>
            <path d="M49.6438652,14.9130046 C50.1052831,14.9275927 50.4695101,15.2783138 50.4672795,15.7056223 C50.4647303,16.227753 49.9580628,16.7702463 49.4673282,16.7766286 C48.9880653,16.7827069 48.5875112,16.3946039 48.5983456,15.9344724 C48.6104546,15.4099102 49.135923,14.8965931 49.6438652,14.9130046" id="Fill-46" fill="#FFFFFF"></path>
            <path d="M14.952734,12.0561421 C14.935068,12.5606118 14.3821527,13.072356 13.8809957,13.047686 C13.449573,13.0261788 13.0897442,12.6520173 13.0841654,12.2193436 C13.0779668,11.7211995 13.613836,11.1860505 14.1199518,11.1844691 C14.5929052,11.1832039 14.9694702,11.5772912 14.952734,12.0561421" id="Fill-48" fill="#FFFFFF"></path>
            <path d="M39.290981,24.2341409 C39.8162179,24.2585487 40.2059097,24.6815057 40.1862004,25.2047686 C40.1661453,25.7327126 39.741184,26.1222342 39.2142182,26.0958203 C38.6931307,26.0694064 38.3010184,25.6424372 38.3183073,25.1211803 C38.3355962,24.5932364 38.7567538,24.2093987 39.290981,24.2341409" id="Fill-50" fill="#FFFFFF"></path>
            <path d="M23.348635,10.2524925 C23.8767322,10.2461929 24.3190312,10.6962657 24.2983696,11.2184341 C24.2784083,11.7199537 23.8777828,12.11263 23.3822539,12.1164797 C22.8471527,12.1203295 22.4129083,11.6811061 22.4304181,11.152988 C22.4468774,10.6637176 22.86011,10.2580922 23.348635,10.2524925" id="Fill-52" fill="#FFFFFF"></path>
            <path d="M15.909021,49.4284613 C16.4078248,49.6006618 16.6875594,49.7083297 16.9733605,49.7942601 C19.0528333,50.4192089 21.1285988,51.0560453 23.2158233,51.6541621 C24.2724112,51.9567868 25.3458505,52.2050681 26.4196269,52.4394239 C26.9504486,52.5552432 27.4930663,52.6663074 28.0339988,52.3867787 C28.3393477,52.2288433 28.6379559,52.3497573 28.8368034,52.6353997 C29.0663206,52.9648564 28.9824002,53.2858219 28.7434462,53.5656903 C28.3676581,54.0058716 27.8526769,54.1213513 27.3228663,54.0282883 C26.0296836,53.8014047 24.7233568,53.6081461 23.4601698,53.2606881 C21.0723148,52.6044919 18.7033336,51.8749321 16.3444632,51.1192195 C15.6906258,50.9096579 15.0290366,50.5893716 14.4968668,50.1614175 C13.7604571,49.5687351 13.9063909,48.7702272 14.7166101,48.2811368 C16.2480728,47.3572994 17.8476154,47.3572994 19.4886126,47.915338 C19.8468751,48.0372709 20.061226,48.2869108 19.9982014,48.6839571 C19.9277622,49.1285538 19.6170209,49.3112834 19.2014634,49.2599968 C18.7474845,49.2036156 18.298898,49.0996839 17.8503116,49.0052623 C17.228829,48.8748382 16.6521713,48.9465035 15.909021,49.4284613" id="Fill-54" fill="#FFFFFF"></path>
            <path d="M38.1545259,52.5070183 C39.1229868,52.7529577 39.6136947,52.6047338 39.7255495,52.0626767 C39.8503593,51.455916 39.3451166,50.9567745 38.5488617,50.900324 C38.1216646,51.455916 38.1087096,51.505434 38.1545259,52.5070183 M38.61806,54.0582524 C38.4458541,54.0499994 38.2730162,54.0499994 38.1017582,54.0321729 C36.6817702,53.8826286 36.0744678,52.7480059 36.6849299,51.3922028 C36.794573,51.1485742 36.8912611,50.8983432 36.9983763,50.653064 C37.5184698,49.4606704 38.5943619,49.0750902 39.7135425,49.6818508 C40.3508625,50.0274865 40.8305113,50.5206859 41.0311549,51.2631259 C41.4043204,52.6443482 40.5865792,53.9027659 39.2206228,54.0440573 C39.021559,54.0645247 38.8190196,54.0466982 38.61806,54.0466982 C38.61806,54.0506597 38.61806,54.054291 38.61806,54.0582524" id="Fill-56" fill="#FFFFFF"></path>
            <path d="M32.3290689,52.9686578 C32.3360782,53.0839658 32.3434213,53.1988994 32.3504306,53.313833 C32.5583729,53.2808879 32.7663152,53.2475684 32.9739238,53.2146232 C32.9662469,53.1221522 32.9585701,53.0296812 32.9508932,52.9375846 C32.7436185,52.9476928 32.5363437,52.9581753 32.3290689,52.9686578 M32.5587067,54.9902913 C32.2446236,54.9127953 31.9065087,54.8764808 31.6011038,54.7447002 C30.8057161,54.4017713 30.6458375,53.8136257 31.0690652,52.9937411 C31.1698655,52.7986909 31.2626552,52.5699468 31.2740036,52.3513109 C31.3067136,51.7227327 31.6551755,51.4464428 32.1344776,51.3352529 C32.427199,51.2674908 32.7392794,51.2454025 33.0370074,51.2749783 C33.8831291,51.3584643 34.4835918,51.9514767 34.5677033,52.7380419 C34.6588241,53.5908717 34.2125658,54.4373371 33.4645742,54.7589265 C33.186539,54.878727 32.8791314,54.9112978 32.5587067,54.9902913" id="Fill-58" fill="#FFFFFF"></path>
            <path d="M32.7094844,48.9875091 C32.7369313,49.7135596 32.0516017,50.2900147 31.1150268,50.3282092 C30.0032135,50.3734769 28.9876758,49.5982686 28.9720521,48.6915012 C28.9619179,48.1030219 29.8136183,47.5658223 30.8071985,47.5350545 C31.8079571,47.5035793 32.6778148,48.1680941 32.7094844,48.9875091" id="Fill-60" fill="#FFFFFF"></path>
            <path d="M45.2916203,54.0582524 C44.5932252,54.0582524 43.9437465,53.4080101 43.9256597,52.6913742 C43.9067508,51.9386368 44.5200561,51.251878 45.2011866,51.262252 C45.9176685,51.2734559 46.6978651,51.9809627 46.7278727,52.6465585 C46.7603466,53.378133 46.0685284,54.0582524 45.2916203,54.0582524" id="Fill-62" fill="#FFFFFF"></path>
            <path d="M23.8165887,47.5339806 C23.9559474,47.5644979 24.335979,47.5933197 24.6725901,47.7336144 C25.0906662,47.9073933 25.3681429,48.3053894 25.1663416,48.7406844 C25.03484,49.0233931 24.6651466,49.2552396 24.3537606,49.3637455 C24.0965467,49.453178 23.7657249,49.345096 23.4721206,49.2963531 C22.7310798,49.1730125 22.3994309,48.8597866 22.4320996,48.3397214 C22.4647682,47.82008 22.8547244,47.5488154 23.8165887,47.5339806" id="Fill-64" fill="#FFFFFF"></path>
            <path d="M77.5069446,38.7879727 C77.0813213,39.4981073 77.0057529,40.2957299 76.9803375,41.0926469 C76.9559387,41.8585198 76.994909,42.6261566 77.0074472,43.3934406 C77.0111748,43.6167467 77.0342181,43.8411112 77.0240519,44.0640645 C76.9830484,44.9452946 76.4764347,45.5520663 75.7082118,45.655782 C74.952866,45.7577337 74.1792211,45.3023022 74.0585826,44.4619939 C73.6963284,41.9368357 73.6400756,39.4144998 74.8695034,37.0770175 C75.6241715,35.6422846 76.7244891,35.4366172 78.1541902,35.4175674 C78.7529772,35.4094536 79.2456971,35.9410844 79.3907344,36.5379785 C79.5466155,37.1782637 79.3236377,37.857707 78.7685653,38.2087174 C78.406311,38.4376678 77.9888207,38.5713693 77.5069446,38.7879727" id="Fill-66" fill="#FFFFFF"></path>
        </g>
    </g>
</svg>